<svg width="24" height="24" viewBox="0 0 24 24" fill="none" xmlns="http://www.w3.org/2000/svg">
<path fill-rule="evenodd" clip-rule="evenodd" d="M12 4C10.8954 4 10 4.89543 10 6V9C10 9.55228 9.55228 10 9 10H6C4.89543 10 4 10.8954 4 12C4 13.1046 4.89543 14 6 14H9C9.55228 14 10 14.4477 10 15V18C10 19.1046 10.8954 20 12 20C13.1046 20 14 19.1046 14 18V15C14 14.4477 14.4477 14 15 14H18C19.1046 14 20 13.1046 20 12C20 10.8954 19.1046 10 18 10H15C14.4477 10 14 9.55228 14 9V6C14 4.89543 13.1046 4 12 4ZM8 6C8 3.79086 9.79086 2 12 2C14.2091 2 16 3.79086 16 6V8H18C20.2091 8 22 9.79086 22 12C22 14.2091 20.2091 16 18 16H16V18C16 20.2091 14.2091 22 12 22C9.79086 22 8 20.2091 8 18V16H6C3.79086 16 2 14.2091 2 12C2 9.79086 3.79086 8 6 8H8V6Z" fill="black"/>
</svg>
