<svg width="24" height="24" viewBox="0 0 24 24" fill="none" xmlns="http://www.w3.org/2000/svg">
<path fill-rule="evenodd" clip-rule="evenodd" d="M21.7071 3.70711C22.0976 3.31658 22.0976 2.68342 21.7071 2.29289C21.3166 1.90237 20.6834 1.90237 20.2929 2.29289L18.2935 4.29228C18.2933 4.29248 18.2937 4.29207 18.2935 4.29228C18.2933 4.29248 18.2925 4.29331 18.2923 4.29351L11.4765 11.1093C10.4957 10.4108 9.29583 10 8 10C4.68629 10 2 12.6863 2 16C2 19.3137 4.68629 22 8 22C11.3137 22 14 19.3137 14 16C14 14.7042 13.5892 13.5043 12.8907 12.5235L16 9.41421L18.2929 11.7071C18.6834 12.0976 19.3166 12.0976 19.7071 11.7071C20.0976 11.3166 20.0976 10.6834 19.7071 10.2929L17.4142 8L19 6.41421L20.2929 7.70711C20.6834 8.09763 21.3166 8.09763 21.7071 7.70711C22.0976 7.31658 22.0976 6.68342 21.7071 6.29289L20.4142 5L21.7071 3.70711ZM4 16C4 13.7909 5.79086 12 8 12C10.2091 12 12 13.7909 12 16C12 18.2091 10.2091 20 8 20C5.79086 20 4 18.2091 4 16Z" fill="black"/>
</svg>
