<svg width="24" height="24" viewBox="0 0 24 24" fill="none" xmlns="http://www.w3.org/2000/svg">
<path d="M16.6035 9.6664C17.1191 9.36876 17.7783 9.54539 18.0759 10.0609L-0 -0L18.0759 10.0609C18.3736 10.5765 18.197 11.2357 17.6814 11.5333L11.4791 15.1142L9.05777 13.2463C8.8677 13.0996 8.88726 12.807 9.09515 12.687L-0 -0L9.09515 12.687C9.49299 12.4573 9.98034 12.4458 10.3886 12.6564L10.9358 12.9387L12.336 12.1303L10.391 11.2802C10.0397 11.1266 10.0139 10.6381 10.3471 10.4483L-0 -0L10.3471 10.4483C10.7416 10.2236 11.2045 10.1507 11.649 10.2431L14.5569 10.848L16.6035 9.6664Z" fill="black"/>
<path fill-rule="evenodd" clip-rule="evenodd" d="M5 6C4.44772 6 4 6.44772 4 7V7.99732C4.00263 8.00484 4.01143 8.02257 4.03721 8.05111C4.09031 8.10987 4.18601 8.1768 4.30906 8.2194C5.87398 8.76121 7 10.2478 7 12C7 13.7522 5.87397 15.2388 4.30906 15.7806C4.18601 15.8232 4.09031 15.8901 4.03721 15.9489C4.01143 15.9774 4.00263 15.9952 4 16.0027V17C4 17.5523 4.44772 18 5 18H19C19.5523 18 20 17.5523 20 17V7C20 6.44772 19.5523 6 19 6H5ZM2 7C2 5.34315 3.34315 4 5 4H19C20.6569 4 22 5.34315 22 7V17C22 18.6569 20.6569 20 19 20H5C3.34315 20 2 18.6569 2 17V16C2 14.8475 2.92379 14.1437 3.65473 13.8907C4.43909 13.6191 5 12.8738 5 12C5 11.1262 4.43909 10.3809 3.65473 10.1093C2.92379 9.85628 2 9.15251 2 8V7Z" fill="black"/>
</svg>
