<svg width="24" height="24" viewBox="0 0 24 24" fill="none" xmlns="http://www.w3.org/2000/svg">
<path d="M15.637 21.9321C15.7496 21.9759 15.872 22 16.0001 22C16.2489 22 16.4765 21.9091 16.6515 21.7587C16.6727 21.7405 16.6932 21.7214 16.7128 21.7014L21.7071 16.7071C22.0977 16.3166 22.0977 15.6834 21.7071 15.2929C21.3166 14.9024 20.6834 14.9024 20.2929 15.2929L17.0001 18.5857V7C17.0001 4.23858 14.7615 2 12.0001 2H3.00006C2.44778 2 2.00006 2.44772 2.00006 3C2.00006 3.55228 2.44778 4 3.00006 4H12.0001C13.6569 4 15.0001 5.34315 15.0001 7V18.5858L11.7071 15.2929C11.3166 14.9024 10.6834 14.9024 10.2929 15.2929C9.90237 15.6834 9.90237 16.3166 10.2929 16.7071L15.2929 21.7071C15.3941 21.8083 15.5117 21.8833 15.637 21.9321Z" fill="black"/>
</svg>
