<svg width="24" height="24" viewBox="0 0 24 24" fill="none" xmlns="http://www.w3.org/2000/svg">
<path d="M13 3C13 2.44772 12.5523 2 12 2C11.4477 2 11 2.44772 11 3V4.06193C10.1461 4.17227 9.30602 4.44175 8.60587 4.96233C7.58183 5.72373 7 6.91517 7 8.49134C7 9.27693 7.15009 9.96301 7.45782 10.5508C7.76732 11.142 8.20687 11.5774 8.7004 11.9021C9.60764 12.4989 10.7646 12.7522 11.7 12.9569L11.7858 12.9757C12.8365 13.2061 13.6362 13.3946 14.2012 13.7655C14.4578 13.9339 14.6429 14.1282 14.7707 14.3717C14.9002 14.6186 15 14.9722 15 15.5C15 16.5489 14.6445 17.1044 14.2023 17.4339C13.7095 17.801 12.955 18 12 18C11.0466 18 10.2918 17.7997 9.79841 17.4315C9.35488 17.1004 9 16.5441 9 15.5C9 14.9477 8.55228 14.5 8 14.5C7.44772 14.5 7 14.9477 7 15.5C7 17.0769 7.57885 18.2705 8.60218 19.0343C9.3027 19.5571 10.1439 19.8276 11 19.9381V21C11 21.5523 11.4477 22 12 22C12.5523 22 13 21.5523 13 21V19.9385C13.8553 19.8287 14.6964 19.5598 15.3971 19.0378C16.4217 18.2745 17 17.08 17 15.5C17 14.7153 16.8498 14.0298 16.5418 13.4427C16.2321 12.8522 15.7922 12.4175 15.2988 12.0936C14.3929 11.4989 13.2379 11.2462 12.3035 11.0417L12.2142 11.0221C11.1639 10.7918 10.3644 10.6028 9.7996 10.2312C9.54313 10.0625 9.35768 9.86764 9.22968 9.62315C9.09991 9.37529 9 9.02042 9 8.49134C9 7.45191 9.35489 6.89767 9.79921 6.5673C10.2938 6.19956 11.0495 6 12 6C12.9513 6 13.7068 6.19894 14.2011 6.56617C14.6448 6.89582 15 7.44966 15 8.49134C15 9.04363 15.4477 9.49134 16 9.49134C16.5523 9.49134 17 9.04363 17 8.49134C17 6.91375 16.4184 5.72192 15.3938 4.96072C14.6936 4.44051 13.8536 4.17174 13 4.06175V3Z" fill="black"/>
</svg>
