<svg width="24" height="24" viewBox="0 0 24 24" fill="none" xmlns="http://www.w3.org/2000/svg">
<path fill-rule="evenodd" clip-rule="evenodd" d="M14 12C14 12.5523 14.4477 13 15 13L21 13C21.5523 13 22 12.5523 22 12C22 11.4477 21.5523 11 21 11L15 11C14.4477 11 14 11.4477 14 12Z" fill="black"/>
<path fill-rule="evenodd" clip-rule="evenodd" d="M9 4C7.34315 4 6 5.34315 6 7C6 8.65685 7.34315 10 9 10C10.6569 10 12 8.65685 12 7C12 5.34315 10.6569 4 9 4ZM4 7C4 4.23858 6.23858 2 9 2C11.7614 2 14 4.23858 14 7C14 9.76142 11.7614 12 9 12C6.23858 12 4 9.76142 4 7Z" fill="black"/>
<path fill-rule="evenodd" clip-rule="evenodd" d="M2 19C2 16.2386 4.23858 14 7 14H11C13.7614 14 16 16.2386 16 19V21C16 21.5523 15.5523 22 15 22C14.4477 22 14 21.5523 14 21V19C14 17.3431 12.6569 16 11 16H7C5.34315 16 4 17.3431 4 19V21C4 21.5523 3.55228 22 3 22C2.44772 22 2 21.5523 2 21V19Z" fill="black"/>
</svg>
