<svg width="24" height="24" viewBox="0 0 24 24" fill="none" xmlns="http://www.w3.org/2000/svg">
<path d="M4 16C4 15.4477 3.55228 15 3 15C2.44772 15 2 15.4477 2 16V19C2 20.6569 3.34315 22 5 22H19C20.6569 22 22 20.6569 22 19V16C22 15.4477 21.5523 15 21 15C20.4477 15 20 15.4477 20 16V19C20 19.5523 19.5523 20 19 20H5C4.44772 20 4 19.5523 4 19V16Z" fill="black"/>
<path d="M18.7071 9.70712C18.3166 10.0976 17.6834 10.0976 17.2929 9.70712L13 5.41423V16C13 16.5523 12.5523 17 12 17C11.4477 17 11 16.5523 11 16V5.4142L6.70707 9.70712C6.31655 10.0976 5.68338 10.0976 5.29286 9.70712C4.90234 9.3166 4.90234 8.68343 5.29286 8.29291L11.2929 2.29289C11.391 2.19473 11.5045 2.12123 11.6257 2.07242C11.7404 2.02607 11.8657 2.00039 11.997 2L12 2C12.2605 2 12.4977 2.09959 12.6757 2.26278C12.6875 2.27368 12.6992 2.28486 12.7105 2.29632L18.7071 8.29291C19.0976 8.68343 19.0976 9.3166 18.7071 9.70712Z" fill="black"/>
</svg>
