<svg width="24" height="24" viewBox="0 0 24 24" fill="none" xmlns="http://www.w3.org/2000/svg">
<path fill-rule="evenodd" clip-rule="evenodd" d="M11.2295 4.03662C7.17273 4.42428 4 7.84163 4 12C4 16.4183 7.58172 20 12 20C15.545 20 18.5519 17.6938 19.6017 14.5003C18.7972 14.8226 17.919 15 17 15C13.134 15 10 11.866 10 8C10 6.5285 10.4544 5.16312 11.2295 4.03662ZM2 12C2 6.47715 6.47715 2 12 2C12.5674 2 13.1246 2.04737 13.6675 2.13856C14.0656 2.20544 14.3844 2.50512 14.4758 2.89832C14.5672 3.29152 14.4133 3.70112 14.0855 3.93674C12.8205 4.846 12 6.32716 12 8C12 10.7614 14.2386 13 17 13C18.2761 13 19.4385 12.5232 20.3224 11.7366C20.6239 11.4683 21.057 11.4075 21.4206 11.5824C21.7842 11.7573 22.0072 12.1335 21.9858 12.5365C21.7066 17.8103 17.3429 22 12 22C6.47715 22 2 17.5228 2 12Z" fill="black"/>
</svg>
