<svg width="24" height="24" viewBox="0 0 24 24" fill="none" xmlns="http://www.w3.org/2000/svg">
<path fill-rule="evenodd" clip-rule="evenodd" d="M8.86415 3.50201C9.11176 3.99567 8.9123 4.5966 8.41863 4.84421C5.79634 6.15952 4 8.87088 4 12C4 16.4183 7.58172 20 12 20C15.1396 20 17.8587 18.1916 19.169 15.555C19.4148 15.0604 20.0149 14.8587 20.5095 15.1045C21.0041 15.3503 21.2058 15.9505 20.96 16.445C19.3249 19.7353 15.9278 22 12 22C6.47715 22 2 17.5228 2 12C2 8.08532 4.24957 4.69787 7.52194 3.0565C8.0156 2.80888 8.61653 3.00834 8.86415 3.50201Z" fill="black"/>
<path fill-rule="evenodd" clip-rule="evenodd" d="M11.2929 2.29289C11.4804 2.10536 11.7348 2 12 2C17.5229 2 22 6.47715 22 12C22 12.5523 21.5523 13 21 13H12C11.4477 13 11 12.5523 11 12V3C11 2.73478 11.1054 2.48043 11.2929 2.29289ZM13 4.06189V11H19.9381C19.4869 7.38128 16.6187 4.51314 13 4.06189Z" fill="black"/>
</svg>
