<svg width="24" height="24" viewBox="0 0 24 24" fill="none" xmlns="http://www.w3.org/2000/svg">
<path fill-rule="evenodd" clip-rule="evenodd" d="M9.76618 3C8.21159 3 7.25137 4.69594 8.0512 6.02899L9.2338 8H8.06617L6.85747 5.9855C6.67675 5.6843 6.35124 5.5 5.99998 5.5H4.34435C2.51987 5.5 1.30989 7.3911 2.07445 9.04765L3.55577 12.2572C4.04613 13.3196 5.10949 14 6.27965 14H7.58098L6.51276 16.991C5.815 18.9447 7.2634 21 9.33799 21H9.97075C10.9396 21 11.8488 20.5321 12.4119 19.7437L16.5146 14H19C20.6568 14 22 12.6569 22 11C22 9.34315 20.6568 8 19 8H17.0206L14.4164 4.27961C13.855 3.47763 12.9376 3 11.9587 3H9.76618ZM16.4877 10C16.4965 10.0001 16.5052 10.0001 16.514 10H19C19.5523 10 20 10.4477 20 11C20 11.5523 19.5523 12 19 12H16C15.677 12 15.374 12.156 15.1862 12.4188L10.7845 18.5812C10.5968 18.844 10.2937 19 9.97075 19H9.33799C8.64646 19 8.16366 18.3149 8.39625 17.6637L9.94172 13.3363C10.0511 13.0301 10.0047 12.6898 9.8174 12.424C9.63007 12.1581 9.32518 12 8.99998 12H6.27965C5.8896 12 5.53514 11.7732 5.37169 11.4191L3.89037 8.20953C3.73745 7.87822 3.97945 7.5 4.34435 7.5H5.43379L6.64249 9.5145C6.82321 9.8157 7.14872 10 7.49998 10H10.9836C10.9951 10.0002 11.0067 10.0002 11.0183 10H16.4877ZM14.5793 8L12.7779 5.42654C12.5908 5.15921 12.285 5 11.9587 5H9.76618L11.5662 8H14.5793Z" fill="black"/>
</svg>
