<svg width="24" height="24" viewBox="0 0 24 24" fill="none" xmlns="http://www.w3.org/2000/svg">
<path fill-rule="evenodd" clip-rule="evenodd" d="M12 4C7.58172 4 4 7.58172 4 12C4 16.4183 7.58172 20 12 20C16.4183 20 20 16.4183 20 12C20 7.58172 16.4183 4 12 4ZM2 12C2 6.47715 6.47715 2 12 2C17.5228 2 22 6.47715 22 12C22 17.5228 17.5228 22 12 22C6.47715 22 2 17.5228 2 12Z" fill="black"/>
<path fill-rule="evenodd" clip-rule="evenodd" d="M8.83747 16.9428C9.35819 17.1269 9.92951 16.854 10.1136 16.3332C10.3886 15.5551 11.1308 15 12 15C12.8693 15 13.6114 15.5551 13.8865 16.3332C14.0705 16.854 14.6418 17.1269 15.1625 16.9428C15.6833 16.7588 15.9562 16.1875 15.7721 15.6668C15.2235 14.1145 13.7432 13 12 13C10.2568 13 8.77651 14.1145 8.22788 15.6668C8.04383 16.1875 8.31675 16.7588 8.83747 16.9428Z" fill="black"/>
<path d="M10 9C10 9.55228 9.55228 10 9 10C8.44772 10 8 9.55228 8 9C8 8.44772 8.44772 8 9 8C9.55228 8 10 8.44772 10 9Z" fill="black"/>
<path d="M16 9C16 9.55228 15.5523 10 15 10C14.4477 10 14 9.55228 14 9C14 8.44772 14.4477 8 15 8C15.5523 8 16 8.44772 16 9Z" fill="black"/>
</svg>
