<svg width="24" height="24" viewBox="0 0 24 24" fill="none" xmlns="http://www.w3.org/2000/svg">
<path fill-rule="evenodd" clip-rule="evenodd" d="M21.9487 3.31622C22.0685 2.95689 21.9749 2.56072 21.7071 2.29289C21.4393 2.02506 21.0431 1.93154 20.6838 2.05131L2.68377 8.05131C2.28335 8.18479 2.00985 8.55531 2.00026 8.97729C1.99067 9.39926 2.24707 9.78182 2.64102 9.93334L10.8929 13.1071L14.0667 21.359C14.2182 21.7529 14.6007 22.0093 15.0227 21.9997C15.4447 21.9902 15.8152 21.7167 15.9487 21.3162L21.9487 3.31622ZM11.4191 11.1667L5.96053 9.06725L17.2975 5.28824L11.4191 11.1667ZM12.8333 12.5809L14.9328 18.0395L18.7118 6.70246L12.8333 12.5809Z" fill="black"/>
</svg>
