<svg width="24" height="24" viewBox="0 0 24 24" fill="none" xmlns="http://www.w3.org/2000/svg">
<path d="M3.70711 17.7071C3.31658 18.0976 2.68342 18.0976 2.29289 17.7071C1.90237 17.3166 1.90237 16.6834 2.29289 16.2929L8.29289 10.2929C8.48043 10.1053 8.73478 9.99997 9 9.99997C9.26522 9.99997 9.51957 10.1053 9.70711 10.2929L13 13.5858L18.5858 8H15C14.4477 8 14 7.55229 14 7C14 6.44771 14.4477 6 15 6H21C21.2652 6 21.5196 6.10536 21.7071 6.29289C21.8946 6.48043 22 6.73478 22 7V13C22 13.5523 21.5523 14 21 14C20.4477 14 20 13.5523 20 13V9.41418L13.7071 15.7071C13.5196 15.8946 13.2652 16 13 16C12.7348 16 12.4804 15.8946 12.2929 15.7071L9 12.4142L3.70711 17.7071Z" fill="black"/>
</svg>
