<svg width="24" height="24" viewBox="0 0 24 24" fill="none" xmlns="http://www.w3.org/2000/svg">
<path fill-rule="evenodd" clip-rule="evenodd" d="M17.0995 4.74605C16.1048 3.75132 14.492 3.75132 13.4973 4.74604L5.26552 12.9778C3.57816 14.6652 3.57816 17.4009 5.26551 19.0883C6.95287 20.7756 9.68861 20.7756 11.376 19.0883L19.97 10.4942C20.3605 10.1037 20.9937 10.1037 21.3842 10.4942C21.7748 10.8847 21.7748 11.5179 21.3842 11.9084L12.7902 20.5025C10.3218 22.9709 6.3197 22.9709 3.8513 20.5025C1.3829 18.0341 1.3829 14.032 3.8513 11.5636L12.0831 3.33183C13.8588 1.55605 16.7379 1.55606 18.5137 3.33183C20.2895 5.10761 20.2895 7.98671 18.5137 9.76249L10.2262 18.05C9.14306 19.1331 7.38693 19.1331 6.30378 18.05C5.22063 16.9668 5.22063 15.2107 6.30378 14.1276L14.0339 6.39743C14.4244 6.00691 15.0576 6.00691 15.4481 6.39743C15.8386 6.78796 15.8386 7.42112 15.4481 7.81165L7.718 15.5418C7.41589 15.8439 7.41589 16.3337 7.718 16.6358C8.0201 16.9379 8.5099 16.9379 8.812 16.6358L17.0995 8.34827C18.0942 7.35355 18.0942 5.74077 17.0995 4.74605Z" fill="black"/>
</svg>
