<svg width="24" height="24" viewBox="0 0 24 24" fill="none" xmlns="http://www.w3.org/2000/svg">
<path d="M7.4375 12C6.88522 12 6.4375 12.4477 6.4375 13C6.4375 13.5523 6.88522 14 7.4375 14H8.5625C9.11478 14 9.5625 13.5523 9.5625 13C9.5625 12.4477 9.11478 12 8.5625 12H7.4375Z" fill="black"/>
<path fill-rule="evenodd" clip-rule="evenodd" d="M5 21C3.34315 21 2 19.6569 2 18V6C2 4.34315 3.34315 3 5 3C5.58037 3 6.04745 3.25277 6.3809 3.53874C6.70927 3.82036 6.9518 4.16853 7.12164 4.47879C7.29285 4.79154 7.6228 5 8 5C8.3772 5 8.70715 4.79154 8.87836 4.47879C9.0482 4.16853 9.29073 3.82036 9.6191 3.53874C9.95255 3.25277 10.4196 3 11 3C12.6569 3 14 4.34315 14 6V18C14 19.6569 12.6569 21 11 21C10.4196 21 9.95255 20.7472 9.6191 20.4613C9.29073 20.1796 9.0482 19.8315 8.87836 19.5212C8.70715 19.2085 8.3772 19 8 19C7.6228 19 7.29285 19.2085 7.12164 19.5212C6.9518 19.8315 6.70927 20.1796 6.3809 20.4613C6.04745 20.7472 5.58037 21 5 21ZM4.99391 19C5.00481 18.9961 5.03252 18.9829 5.07889 18.9431C5.16839 18.8664 5.27195 18.735 5.3673 18.5608C5.87528 17.6329 6.86301 17 8 17C9.13699 17 10.1247 17.6329 10.6327 18.5609C10.7281 18.735 10.8316 18.8664 10.9211 18.9431C10.9675 18.9829 10.9952 18.9961 11.0061 19C11.5556 18.9967 12 18.5503 12 18V14H11.9375C11.3852 14 10.9375 13.5523 10.9375 13C10.9375 12.4477 11.3852 12 11.9375 12H12V6C12 5.44975 11.5556 5.00329 11.0061 5.00002C10.9952 5.00388 10.9675 5.01712 10.9211 5.05689C10.8316 5.13365 10.7281 5.26496 10.6327 5.43915C10.1247 6.36711 9.13699 7 8 7C6.86301 7 5.87528 6.36711 5.3673 5.43915C5.27195 5.26496 5.16839 5.13365 5.07889 5.05689C5.03252 5.01713 5.00481 5.00388 4.99391 5.00002C4.44443 5.0033 4 5.44975 4 6V12H4.0625C4.61478 12 5.0625 12.4477 5.0625 13C5.0625 13.5523 4.61478 14 4.0625 14H4V18C4 18.5503 4.44443 18.9967 4.99391 19Z" fill="black"/>
<path d="M17.5136 5.36309C17.3972 5.45681 17.2463 5.57645 17.0815 5.6825C16.6171 5.98135 15.9983 5.84712 15.6995 5.38268C15.4006 4.91824 15.5348 4.29946 15.9993 4.00061C16.0667 3.95723 16.1454 3.89696 16.2598 3.80488L16.3116 3.76308C16.4072 3.68578 16.5277 3.58832 16.6489 3.5001C16.9279 3.29709 17.3946 3 18 3H19C20.6569 3 22 4.34315 22 6V18C22 19.6569 20.6569 21 19 21H18C17.3946 21 16.9279 20.7029 16.6489 20.4999C16.5277 20.4117 16.4072 20.3143 16.3117 20.237L16.2598 20.1951C16.1454 20.103 16.0667 20.0428 15.9993 19.9994C15.5348 19.7005 15.4006 19.0818 15.6995 18.6173C15.9983 18.1529 16.6171 18.0186 17.0815 18.3175C17.2463 18.4235 17.3972 18.5432 17.5136 18.6369L17.5812 18.6914C17.676 18.7679 17.7493 18.8272 17.8256 18.8827C17.9442 18.969 18.0025 18.9938 18.0185 19H19C19.5523 19 20 18.5523 20 18V13.9981C19.4768 13.9658 19.0625 13.5313 19.0625 13C19.0625 12.4687 19.4768 12.0342 20 12.0019V6C20 5.44772 19.5523 5 19 5H18.0185C18.0025 5.00616 17.9442 5.03104 17.8256 5.11732C17.7493 5.17283 17.676 5.23206 17.5811 5.30864L17.5136 5.36309Z" fill="black"/>
<path d="M16 13C16 12.4477 16.4477 12 17 12H17.4375C17.9898 12 18.4375 12.4477 18.4375 13C18.4375 13.5523 17.9898 14 17.4375 14H17C16.4477 14 16 13.5523 16 13Z" fill="black"/>
</svg>
