<svg width="24" height="24" viewBox="0 0 24 24" fill="none" xmlns="http://www.w3.org/2000/svg">
<path fill-rule="evenodd" clip-rule="evenodd" d="M5 22C3.34315 22 2 20.6569 2 19V5C2 3.34315 3.34315 2 5 2H14.1716C14.9672 2 15.7303 2.31607 16.2929 2.87868L21.1213 7.70711C21.6839 8.26972 22 9.03278 22 9.82843V19C22 20.6569 20.6569 22 19 22H5ZM5 4C4.44772 4 4 4.44772 4 5V19C4 19.5523 4.44772 20 5 20H6V14C6 13.4477 6.44772 13 7 13H17C17.5523 13 18 13.4477 18 14V20H19C19.5523 20 20 19.5523 20 19V9.82843C20 9.56321 19.8946 9.30886 19.7071 9.12132L15 4.41421V8C15 8.55228 14.5523 9 14 9H8C7.44772 9 7 8.55228 7 8V4H5ZM16 20V15H8V20H16ZM13 7V4H9V7H13Z" fill="black"/>
</svg>
