<svg width="24" height="24" viewBox="0 0 24 24" fill="none" xmlns="http://www.w3.org/2000/svg">
<path fill-rule="evenodd" clip-rule="evenodd" d="M3.70711 2.29289C3.31658 1.90237 2.68342 1.90237 2.29289 2.29289C1.90237 2.68342 1.90237 3.31658 2.29289 3.70711L4.64363 6.05785C3.02158 7.52103 2 9.64106 2 12C2 16.4183 5.58172 20 10 20H17C17.4813 20 17.9478 19.9317 18.3898 19.804L20.2929 21.7071C20.6834 22.0976 21.3166 22.0976 21.7071 21.7071C22.0976 21.3166 22.0976 20.6834 21.7071 20.2929L3.70711 2.29289ZM16.5858 18L6.06026 7.47448C4.79651 8.5755 4 10.1949 4 12C4 15.3137 6.68629 18 10 18H16.5858Z" fill="black"/>
<path d="M10.8284 4.04245C10.2791 3.98585 9.78781 4.38532 9.7312 4.9347C9.6746 5.48407 10.0741 5.97532 10.6234 6.03192C13.339 6.31172 15.5198 8.4061 15.9303 11.0813C16.0099 11.6005 16.4564 12 17 12C18.6569 12 20 13.3431 20 15C20 15.0473 19.9989 15.0942 19.9968 15.1408C19.9714 15.6925 20.3981 16.1603 20.9498 16.1857C21.5015 16.211 21.9693 15.7843 21.9947 15.2326C21.9982 15.1554 22 15.0779 22 15C22 12.4978 20.162 10.4249 17.7624 10.0578C16.959 6.83738 14.2064 4.3905 10.8284 4.04245Z" fill="black"/>
</svg>
