<svg width="24" height="24" viewBox="0 0 24 24" fill="none" xmlns="http://www.w3.org/2000/svg">
<path d="M16.2427 17.6569C16.6332 18.0474 17.2664 18.0474 17.6569 17.6569C18.0474 17.2664 18.0474 16.6332 17.6569 16.2427L13.4142 12L17.6568 7.75743C18.0474 7.3669 18.0474 6.73374 17.6568 6.34322C17.2663 5.95269 16.6331 5.95269 16.2426 6.34322L12 10.5858L7.75738 6.34319C7.36686 5.95266 6.73369 5.95266 6.34317 6.34319C5.95264 6.73371 5.95264 7.36688 6.34317 7.7574L10.5858 12L6.34313 16.2427C5.9526 16.6332 5.9526 17.2664 6.34313 17.6569C6.73365 18.0474 7.36681 18.0474 7.75734 17.6569L12 13.4142L16.2427 17.6569Z" fill="black"/>
</svg>
