<svg width="24" height="24" viewBox="0 0 24 24" fill="none" xmlns="http://www.w3.org/2000/svg">
<path fill-rule="evenodd" clip-rule="evenodd" d="M8 8.69722V4C7.44771 4 6.99999 3.55228 6.99999 3C6.99999 2.44772 7.44771 2 7.99999 2H16C16.5523 2 17 2.44772 17 3C17 3.55228 16.5523 4 16 4L16 8.69722L21.7591 17.3359C23.0882 19.3296 21.659 22 19.263 22H4.73703C2.34095 22 0.911771 19.3296 2.24088 17.3359L8 8.69722ZM14 4H10V9C10 9.19742 9.94156 9.39043 9.83205 9.5547L7.53518 13H16.4648L15.1262 10.9921C15.0849 10.9973 15.0427 11 15 11H13C12.4477 11 12 10.5523 12 10C12 9.44772 12.4477 9 13 9H14V7H13C12.4477 7 12 6.55228 12 6C12 5.44772 12.4477 5 13 5H14V4ZM3.90498 18.4453L6.20185 15H17.7981L20.095 18.4453C20.5381 19.1099 20.0617 20 19.263 20H4.73703C3.93834 20 3.46194 19.1099 3.90498 18.4453Z" fill="black"/>
</svg>
