<svg width="24" height="24" viewBox="0 0 24 24" fill="none" xmlns="http://www.w3.org/2000/svg">
<path fill-rule="evenodd" clip-rule="evenodd" d="M12 2C9.23858 2 7 4.23858 7 7V10H6C4.34315 10 3 11.3431 3 13V19C3 20.6569 4.34315 22 6 22H18C19.6569 22 21 20.6569 21 19V13C21 11.3431 19.6569 10 18 10H9V7C9 5.34315 10.3431 4 12 4C13.6569 4 15 5.34315 15 7C15 7.55228 15.4477 8 16 8C16.5523 8 17 7.55228 17 7C17 4.23858 14.7614 2 12 2ZM5 13C5 12.4477 5.44772 12 6 12H18C18.5523 12 19 12.4477 19 13V19C19 19.5523 18.5523 20 18 20H6C5.44772 20 5 19.5523 5 19V13Z" fill="black"/>
</svg>
