<svg width="24" height="24" viewBox="0 0 24 24" fill="none" xmlns="http://www.w3.org/2000/svg">
<path d="M11.6023 11.6022C11.2118 11.2117 10.5786 11.2117 10.1881 11.6022C9.79754 11.9927 9.79754 12.6259 10.1881 13.0164L10.9836 13.8119C11.3741 14.2024 12.0073 14.2024 12.3978 13.8119C12.7883 13.4214 12.7883 12.7882 12.3978 12.3977L11.6023 11.6022Z" fill="black"/>
<path fill-rule="evenodd" clip-rule="evenodd" d="M2.80761 11.2928C1.63604 12.4644 1.63604 14.3639 2.80761 15.5354L3.51472 16.2425C3.9251 16.6529 4.43411 16.8045 4.87211 16.838C5.30344 16.8711 5.72113 16.7964 6.06061 16.6971C6.40282 16.597 6.78353 16.6829 7.05025 16.9496C7.31697 17.2164 7.40288 17.5971 7.3028 17.9393C7.2035 18.2788 7.12881 18.6965 7.16187 19.1278C7.19543 19.5658 7.34697 20.0748 7.75736 20.4852L8.46447 21.1923C9.63604 22.3639 11.5355 22.3639 12.7071 21.1923L21.1924 12.707C22.364 11.5354 22.364 9.63594 21.1924 8.46437L20.4853 7.75726C20.0749 7.34687 19.5659 7.19534 19.1279 7.16177C18.6966 7.12871 18.2789 7.20341 17.9394 7.3027C17.5972 7.40278 17.2165 7.31687 16.9497 7.05015C16.683 6.78343 16.5971 6.40272 16.6972 6.06051C16.7965 5.72103 16.8712 5.30334 16.8381 4.87201C16.8046 4.43401 16.653 3.92501 16.2426 3.51462L15.5355 2.80751C14.364 1.63594 12.4645 1.63594 11.2929 2.80751L2.80761 11.2928ZM4.22183 14.1212C3.8313 13.7307 3.8313 13.0975 4.22183 12.707L7.14486 9.78397C7.1887 9.94816 7.27502 10.1034 7.40383 10.2322L7.80158 10.6299C8.19211 11.0205 8.82527 11.0205 9.2158 10.6299C9.60632 10.2394 9.60632 9.60624 9.2158 9.21572L8.81805 8.81797C8.68924 8.68916 8.53403 8.60283 8.36983 8.559L12.7071 4.22173C13.0976 3.8312 13.7308 3.8312 14.1213 4.22173L14.8241 4.92449C14.8291 4.93489 14.8393 4.96384 14.844 5.02485C14.853 5.1424 14.8334 5.30849 14.7776 5.49908C14.4807 6.51444 14.7316 7.66039 15.5355 8.46437C16.3395 9.26834 17.4855 9.51925 18.5008 9.22228C18.6914 9.16653 18.8575 9.14691 18.9751 9.15592C19.0361 9.16059 19.065 9.17084 19.0754 9.17581L19.7782 9.87858C20.1687 10.2691 20.1687 10.9023 19.7782 11.2928L15.4409 15.63C15.3971 15.4659 15.3108 15.3107 15.182 15.1819L14.7843 14.7842C14.3937 14.3937 13.7606 14.3937 13.37 14.7842C12.9795 15.1747 12.9795 15.8079 13.37 16.1984L13.7678 16.5961C13.8966 16.7249 14.0517 16.8112 14.2159 16.8551L11.2929 19.7781C10.9024 20.1686 10.2692 20.1686 9.87868 19.7781L9.17591 19.0753C9.17094 19.0649 9.16069 19.036 9.15602 18.975C9.14701 18.8574 9.16663 18.6913 9.22238 18.5007C9.51935 17.4854 9.26844 16.3394 8.46447 15.5354C7.66049 14.7315 6.51454 14.4806 5.49918 14.7775C5.30858 14.8333 5.1425 14.8529 5.02494 14.8439C4.96394 14.8392 4.93499 14.829 4.92459 14.824L4.22183 14.1212ZM14.8213 4.91978C14.8211 4.91956 14.8213 4.91974 14.8213 4.91978V4.91978ZM9.17829 19.0791C9.17793 19.0785 9.17734 19.0776 9.17649 19.0765C9.1778 19.0791 9.17863 19.0801 9.17872 19.08C9.17876 19.08 9.17863 19.0796 9.17829 19.0791Z" fill="black"/>
</svg>
