<svg width="24" height="24" viewBox="0 0 24 24" fill="none" xmlns="http://www.w3.org/2000/svg">
<path fill-rule="evenodd" clip-rule="evenodd" d="M8.99658 22H5C3.34315 22 2 20.6568 2 19V10.8981C2 10.0412 2.36644 9.2252 3.00691 8.6559L10.0069 2.43368C11.1436 1.42331 12.8564 1.42331 13.9931 2.43368L20.9931 8.6559C21.6336 9.2252 22 10.0412 22 10.8981V19C22 20.6568 20.6569 22 19 22H15.0034L15 22H9L8.99658 22ZM11.3356 3.92849C11.7145 3.59171 12.2855 3.59171 12.6644 3.92849L19.6644 10.1507C19.8779 10.3405 20 10.6125 20 10.8981V19C20 19.5523 19.5523 20 19 20H16V13C16 12.4477 15.5523 12 15 12H9C8.44772 12 8 12.4477 8 13V20H5C4.44772 20 4 19.5523 4 19V10.8981C4 10.6125 4.12215 10.3405 4.33564 10.1507L11.3356 3.92849ZM10 20H14V14H10V20Z" fill="black"/>
</svg>
