<svg width="24" height="24" viewBox="0 0 24 24" fill="none" xmlns="http://www.w3.org/2000/svg">
<path d="M2.06796 8.36305C2.0241 8.25051 2.00003 8.12808 2.00003 8.00003C2.00003 7.75119 2.09092 7.52358 2.24131 7.34859C2.25956 7.32736 2.27868 7.3069 2.29862 7.28728L7.29294 2.29296C7.68346 1.90243 8.31663 1.90243 8.70715 2.29296C9.09768 2.68348 9.09768 3.31664 8.70715 3.70717L5.41429 7.00003H17C19.7615 7.00003 22 9.23861 22 12V21C22 21.5523 21.5523 22 21 22C20.4477 22 20 21.5523 20 21V12C20 10.3432 18.6569 9.00003 17 9.00003H5.4142L8.70715 12.293C9.09768 12.6835 9.09768 13.3167 8.70715 13.7072C8.31663 14.0977 7.68346 14.0977 7.29294 13.7072L2.29292 8.70718C2.1917 8.60596 2.11671 8.48843 2.06796 8.36305Z" fill="black"/>
</svg>
