<svg width="24" height="24" viewBox="0 0 24 24" fill="none" xmlns="http://www.w3.org/2000/svg">
<path fill-rule="evenodd" clip-rule="evenodd" d="M12 9C10.3431 9 9 10.3431 9 12C9 13.6569 10.3431 15 12 15C13.6569 15 15 13.6569 15 12C15 10.3431 13.6569 9 12 9ZM7 12C7 9.23858 9.23858 7 12 7C14.7614 7 17 9.23858 17 12C17 14.7614 14.7614 17 12 17C9.23858 17 7 14.7614 7 12Z" fill="black"/>
<path fill-rule="evenodd" clip-rule="evenodd" d="M12 18.5C11.4477 18.5 11 18.9477 11 19.5V21C11 21.5523 11.4477 22 12 22C12.5523 22 13 21.5523 13 21V19.5C13 18.9477 12.5523 18.5 12 18.5Z" fill="black"/>
<path fill-rule="evenodd" clip-rule="evenodd" d="M12 2C11.4477 2 11 2.44772 11 3V4.5C11 5.05228 11.4477 5.5 12 5.5C12.5523 5.5 13 5.05228 13 4.5V3C13 2.44772 12.5523 2 12 2Z" fill="black"/>
<path fill-rule="evenodd" clip-rule="evenodd" d="M18.5 12C18.5 12.5523 18.9477 13 19.5 13H21C21.5523 13 22 12.5523 22 12C22 11.4477 21.5523 11 21 11H19.5C18.9477 11 18.5 11.4477 18.5 12Z" fill="black"/>
<path fill-rule="evenodd" clip-rule="evenodd" d="M2 12C2 12.5523 2.44772 13 3 13H4.5C5.05228 13 5.5 12.5523 5.5 12C5.5 11.4477 5.05228 11 4.5 11H3C2.44772 11 2 11.4477 2 12Z" fill="black"/>
<path fill-rule="evenodd" clip-rule="evenodd" d="M16.5962 7.40381C16.9867 7.79433 17.6199 7.79433 18.0104 7.40381L19.0711 6.34315C19.4616 5.95262 19.4616 5.31946 19.0711 4.92893C18.6805 4.53841 18.0474 4.53841 17.6569 4.92893L16.5962 5.98959C16.2057 6.38012 16.2057 7.01328 16.5962 7.40381Z" fill="black"/>
<path fill-rule="evenodd" clip-rule="evenodd" d="M4.92893 19.0711C5.31946 19.4616 5.95262 19.4616 6.34315 19.0711L7.40381 18.0104C7.79433 17.6199 7.79433 16.9867 7.40381 16.5962C7.01328 16.2057 6.38012 16.2057 5.98959 16.5962L4.92893 17.6569C4.53841 18.0474 4.53841 18.6805 4.92893 19.0711Z" fill="black"/>
<path fill-rule="evenodd" clip-rule="evenodd" d="M7.40381 7.40381C7.79433 7.01328 7.79433 6.38012 7.40381 5.98959L6.34315 4.92893C5.95262 4.53841 5.31946 4.53841 4.92893 4.92893C4.53841 5.31946 4.53841 5.95262 4.92893 6.34315L5.98959 7.40381C6.38012 7.79433 7.01328 7.79433 7.40381 7.40381Z" fill="black"/>
<path fill-rule="evenodd" clip-rule="evenodd" d="M19.0711 19.0711C19.4616 18.6805 19.4616 18.0474 19.0711 17.6569L18.0104 16.5962C17.6199 16.2057 16.9867 16.2057 16.5962 16.5962C16.2057 16.9867 16.2057 17.6199 16.5962 18.0104L17.6569 19.0711C18.0474 19.4616 18.6805 19.4616 19.0711 19.0711Z" fill="black"/>
</svg>
