<svg width="24" height="24" viewBox="0 0 24 24" fill="none" xmlns="http://www.w3.org/2000/svg">
<path fill-rule="evenodd" clip-rule="evenodd" d="M10 4C6.68629 4 4 6.68629 4 10C4 11.4347 4.50228 12.7493 5.34149 13.7817C5.68986 14.2102 5.62488 14.84 5.19633 15.1884C4.76779 15.5368 4.13796 15.4718 3.78959 15.0432C2.67112 13.6674 2 11.9107 2 10C2 5.58172 5.58172 2 10 2C13.7489 2 16.8941 4.57783 17.7624 8.05775C20.1619 8.42486 22 10.4978 22 13C22 14.3892 21.4322 15.6476 20.5184 16.5526C20.126 16.9412 19.4928 16.9382 19.1042 16.5458C18.7156 16.1534 18.7186 15.5202 19.111 15.1316C19.6611 14.5868 20 13.8339 20 13C20 11.3431 18.6569 10 17 10C16.4562 10 16.0099 9.60015 15.9303 9.08133C15.4888 6.20396 13.0008 4 10 4Z" fill="black"/>
<path d="M9 15C9 15.5523 8.55228 16 8 16C7.44772 16 7 15.5523 7 15C7 14.4477 7.44772 14 8 14C8.55228 14 9 14.4477 9 15Z" fill="black"/>
<path d="M13 17C13 17.5523 12.5523 18 12 18C11.4477 18 11 17.5523 11 17C11 16.4477 11.4477 16 12 16C12.5523 16 13 16.4477 13 17Z" fill="black"/>
<path d="M17 15C17 15.5523 16.5523 16 16 16C15.4477 16 15 15.5523 15 15C15 14.4477 15.4477 14 16 14C16.5523 14 17 14.4477 17 15Z" fill="black"/>
<path d="M9 19C9 19.5523 8.55228 20 8 20C7.44772 20 7 19.5523 7 19C7 18.4477 7.44772 18 8 18C8.55228 18 9 18.4477 9 19Z" fill="black"/>
<path d="M13 21C13 21.5523 12.5523 22 12 22C11.4477 22 11 21.5523 11 21C11 20.4477 11.4477 20 12 20C12.5523 20 13 20.4477 13 21Z" fill="black"/>
<path d="M17 19C17 19.5523 16.5523 20 16 20C15.4477 20 15 19.5523 15 19C15 18.4477 15.4477 18 16 18C16.5523 18 17 18.4477 17 19Z" fill="black"/>
</svg>
