<svg width="24" height="24" viewBox="0 0 24 24" fill="none" xmlns="http://www.w3.org/2000/svg">
<path fill-rule="evenodd" clip-rule="evenodd" d="M8.29975 3C7.11418 3 6.03981 3.6982 5.55831 4.78159L2.25857 12.206C2.22205 12.2882 2.18932 12.3718 2.16042 12.4565C2.05894 12.613 2 12.7996 2 13C2 13.053 2.00412 13.105 2.01206 13.1557C2.00404 13.2449 2 13.3346 2 13.4244V18C2 19.6569 3.34315 21 5 21H19C20.6569 21 22 19.6569 22 18V13.4244C22 13.3346 21.996 13.2449 21.9879 13.1557C21.9959 13.105 22 13.053 22 13C22 12.7996 21.9411 12.613 21.8396 12.4565C21.8107 12.3718 21.7779 12.2882 21.7414 12.206L18.4417 4.78158C17.9602 3.6982 16.8858 3 15.7003 3H8.29975ZM19.4612 12L16.6141 5.59386C16.4536 5.23273 16.0954 5 15.7003 5H8.29975C7.90456 5 7.54644 5.23273 7.38593 5.59386L4.53876 12H8C8.33435 12 8.64658 12.1671 8.83205 12.4453L10.5352 15H13.9648L15.6679 12.4453C15.8534 12.1671 16.1656 12 16.5 12H19.4612ZM4 14V18C4 18.5523 4.44772 19 5 19H19C19.5523 19 20 18.5523 20 18V14H17.0352L15.3321 16.5547C15.1466 16.8329 14.8344 17 14.5 17H10C9.66565 17 9.35342 16.8329 9.16795 16.5547L7.46482 14H4Z" fill="black"/>
</svg>
