<svg width="24" height="24" viewBox="0 0 24 24" fill="none" xmlns="http://www.w3.org/2000/svg">
<path d="M8.36301 2.06793C8.25048 2.02407 8.12805 2 8 2C7.75116 2 7.52355 2.09089 7.34855 2.24128C7.32732 2.25953 7.30687 2.27865 7.28725 2.29859L2.29292 7.29291C1.9024 7.68343 1.9024 8.3166 2.29292 8.70712C2.68344 9.09765 3.31661 9.09765 3.70713 8.70712L7 5.41426V17C7 19.7614 9.23858 22 12 22H21C21.5523 22 22 21.5523 22 21C22 20.4477 21.5523 20 21 20H12C10.3431 20 9 18.6569 9 17V5.41417L12.293 8.70712C12.6835 9.09765 13.3166 9.09765 13.7072 8.70712C14.0977 8.3166 14.0977 7.68343 13.7072 7.29291L8.70715 2.29289C8.60592 2.19167 8.48839 2.11668 8.36301 2.06793Z" fill="black"/>
</svg>
