<svg width="24" height="24" viewBox="0 0 24 24" fill="none" xmlns="http://www.w3.org/2000/svg">
<path fill-rule="evenodd" clip-rule="evenodd" d="M4.14991 12C4.218 12.1115 4.29956 12.2403 4.39456 12.3828C4.74245 12.9046 5.26432 13.6001 5.95711 14.2929C7.34812 15.6839 9.35876 17 12 17C14.6412 17 16.6519 15.6839 18.0429 14.2929C18.7357 13.6001 19.2576 12.9046 19.6055 12.3828C19.7004 12.2403 19.782 12.1115 19.8501 12C19.782 11.8885 19.7004 11.7597 19.6055 11.6172C19.2576 11.0954 18.7357 10.3999 18.0429 9.70711C16.6519 8.3161 14.6412 7 12 7C9.35876 7 7.34812 8.3161 5.95711 9.70711C5.26432 10.3999 4.74245 11.0954 4.39456 11.6172C4.29956 11.7597 4.218 11.8885 4.14991 12ZM21 12C21.8944 11.5528 21.894 11.552 21.894 11.552L21.8925 11.5489L21.8894 11.5428L21.8798 11.5241C21.872 11.5089 21.8611 11.4881 21.8472 11.462C21.8194 11.41 21.7796 11.337 21.7276 11.246C21.6238 11.0643 21.4712 10.8102 21.2696 10.5078C20.8675 9.90464 20.2643 9.1001 19.4571 8.29289C17.8481 6.6839 15.3588 5 12 5C8.64125 5 6.1519 6.6839 4.5429 8.29289C3.73569 9.1001 3.13256 9.90464 2.73046 10.5078C2.52884 10.8102 2.37622 11.0643 2.27239 11.246C2.22043 11.337 2.18058 11.41 2.15281 11.462C2.13892 11.4881 2.12804 11.5089 2.12017 11.5241L2.11062 11.5428L2.10754 11.5489L2.10642 11.5511L2.10596 11.552C2.10596 11.552 2.10558 11.5528 3.00001 12L2.10596 11.552C1.9652 11.8335 1.96482 12.1657 2.10558 12.4472L3.00001 12C2.10558 12.4472 2.10558 12.4472 2.10558 12.4472L2.10642 12.4489L2.10754 12.4511L2.11062 12.4572L2.12017 12.4759C2.12804 12.4911 2.13892 12.5119 2.15281 12.538C2.18058 12.59 2.22043 12.663 2.27239 12.754C2.37622 12.9357 2.52884 13.1898 2.73046 13.4922C3.13256 14.0954 3.73569 14.8999 4.5429 15.7071C6.1519 17.3161 8.64125 19 12 19C15.3588 19 17.8481 17.3161 19.4571 15.7071C20.2643 14.8999 20.8675 14.0954 21.2696 13.4922C21.4712 13.1898 21.6238 12.9357 21.7276 12.754C21.7796 12.663 21.8194 12.59 21.8472 12.538C21.8611 12.5119 21.872 12.4911 21.8798 12.4759L21.8894 12.4572L21.8925 12.4511L21.894 12.448C21.894 12.448 21.8944 12.4472 21 12ZM21 12L21.894 12.448C22.0348 12.1665 22.0348 11.8335 21.894 11.552L21 12Z" fill="black"/>
<path fill-rule="evenodd" clip-rule="evenodd" d="M12 10C10.8954 10 10 10.8954 10 12C10 13.1046 10.8954 14 12 14C13.1046 14 14 13.1046 14 12C14 10.8954 13.1046 10 12 10ZM8.00001 12C8.00001 9.79086 9.79087 8 12 8C14.2091 8 16 9.79086 16 12C16 14.2091 14.2091 16 12 16C9.79087 16 8.00001 14.2091 8.00001 12Z" fill="black"/>
</svg>
