<svg width="24" height="24" viewBox="0 0 24 24" fill="none" xmlns="http://www.w3.org/2000/svg">
<path d="M4 7C4 7.55228 3.55228 8 3 8C2.44772 8 2 7.55228 2 7V5C2 3.34315 3.34315 2 5 2H7C7.55228 2 8 2.44772 8 3C8 3.55228 7.55228 4 7 4H5C4.44772 4 4 4.44772 4 5V7Z" fill="black"/>
<path d="M10 9C10 9.55228 9.55228 10 9 10C8.44772 10 8 9.55228 8 9C8 8.44772 8.44772 8 9 8C9.55228 8 10 8.44772 10 9Z" fill="black"/>
<path d="M8.83747 13.0572C9.35818 12.8731 9.92951 13.1461 10.1136 13.6668C10.3886 14.4449 11.1308 15 12 15C12.8693 15 13.6114 14.4449 13.8865 13.6668C14.0705 13.1461 14.6418 12.8731 15.1625 13.0572C15.6833 13.2412 15.9562 13.8126 15.7721 14.3333C15.2235 15.8855 13.7432 17 12 17C10.2568 17 8.77651 15.8855 8.22787 14.3333C8.04383 13.8126 8.31675 13.2412 8.83747 13.0572Z" fill="black"/>
<path d="M15 10C15.5523 10 16 9.55228 16 9C16 8.44772 15.5523 8 15 8C14.4477 8 14 8.44772 14 9C14 9.55228 14.4477 10 15 10Z" fill="black"/>
<path d="M3 16C3.55228 16 4 16.4477 4 17V19C4 19.5523 4.44772 20 5 20H7C7.55228 20 8 20.4477 8 21C8 21.5523 7.55228 22 7 22H5C3.34315 22 2 20.6569 2 19V17C2 16.4477 2.44772 16 3 16Z" fill="black"/>
<path d="M21 16C20.4477 16 20 16.4477 20 17V19C20 19.5523 19.5523 20 19 20H17C16.4477 20 16 20.4477 16 21C16 21.5523 16.4477 22 17 22H19C20.6569 22 22 20.6569 22 19V17C22 16.4477 21.5523 16 21 16Z" fill="black"/>
<path d="M20 7C20 7.55228 20.4477 8 21 8C21.5523 8 22 7.55228 22 7V5C22 3.34315 20.6569 2 19 2H17C16.4477 2 16 2.44772 16 3C16 3.55228 16.4477 4 17 4H19C19.5523 4 20 4.44772 20 5V7Z" fill="black"/>
</svg>
