<svg width="24" height="24" viewBox="0 0 24 24" fill="none" xmlns="http://www.w3.org/2000/svg">
<path fill-rule="evenodd" clip-rule="evenodd" d="M2.00005 12C2.00005 6.47715 6.4772 2 12 2C17.5229 2 22 6.47715 22 12C22 17.5228 17.5229 22 12 22C6.4772 22 2.00005 17.5228 2.00005 12ZM4.20153 10.208C4.06969 10.7841 4.00005 11.3839 4.00005 12C4.00005 15.5565 6.32077 18.5709 9.53046 19.6116C9.61178 19.0739 9.65292 18.5455 9.65327 18.0289L9.63749 18.0292C9.08529 18.0388 8.62983 17.599 8.62019 17.0468C8.61152 16.5504 8.96604 16.1322 9.43888 16.0457C9.32658 15.5489 9.16988 15.0684 8.96811 14.6068C8.50698 14.8323 7.94201 14.6711 7.67273 14.2229C7.40344 13.7748 7.52637 13.2003 7.94189 12.899C7.62462 12.4985 7.26826 12.1297 6.87574 11.7934C6.58537 12.2054 6.02507 12.3408 5.57421 12.0909C5.09117 11.8231 4.91665 11.2145 5.1844 10.7315L5.21633 10.6739C4.89256 10.5032 4.55399 10.3478 4.20153 10.208ZM4.88984 8.32963C5.33951 8.50604 5.77437 8.70539 6.19212 8.92779C6.48405 8.52197 7.04008 8.38986 7.48807 8.63819C7.97111 8.90594 8.14563 9.51458 7.87788 9.99762L7.86624 10.0186C8.54059 10.5522 9.14518 11.1654 9.66547 11.8589L9.68432 11.8476C10.1577 11.5632 10.7721 11.7163 11.0565 12.1897C11.341 12.6631 11.1878 13.2775 10.7144 13.562L10.6956 13.5733C11.0594 14.3493 11.3153 15.1611 11.4704 15.9969L11.5499 15.9955C12.1021 15.9858 12.5576 16.4257 12.5672 16.9779C12.5765 17.5072 12.1728 17.9476 11.653 17.9917C11.6547 18.6494 11.6015 19.3154 11.4966 19.9844C11.6631 19.9948 11.831 20 12 20C15.2004 20 17.9618 18.1208 19.2411 15.4056C18.5725 15.1788 17.9329 14.9041 17.3292 14.581C17.0462 15.0193 16.4678 15.1689 16.0049 14.9123C15.5218 14.6445 15.3473 14.0359 15.615 13.5529L15.6536 13.4834C14.9885 12.954 14.3918 12.3469 13.8775 11.6613L13.8587 11.6726C13.3853 11.9571 12.7709 11.8039 12.4865 11.3305C12.202 10.8571 12.3552 10.2427 12.8286 9.95829L12.8474 9.94699C12.4793 9.16202 12.2218 8.34036 12.0672 7.49446L12.0432 7.49488C11.491 7.50451 11.0355 7.06468 11.0259 6.51248C11.0169 6.00033 11.3946 5.57139 11.89 5.50418C11.8898 5.00676 11.9209 4.50462 11.9819 4.00002C8.89434 4.00686 6.21754 5.76283 4.88984 8.32963ZM13.967 4.2436C13.9171 4.65609 13.8913 5.06273 13.8898 5.46234L13.9556 5.46119C14.5078 5.45155 14.9633 5.89138 14.9729 6.44358C14.9819 6.95899 14.5993 7.39012 14.0993 7.45312C14.2119 7.95754 14.3702 8.44528 14.5749 8.91341C15.036 8.68796 15.601 8.84913 15.8703 9.2973C16.1396 9.74549 16.0166 10.32 15.601 10.6213C15.9138 11.0162 16.2645 11.3801 16.6505 11.7125C16.9488 11.3356 17.4845 11.2189 17.9187 11.4596C18.4018 11.7274 18.5763 12.336 18.3085 12.819L18.3009 12.8329C18.7876 13.0913 19.308 13.315 19.859 13.5032C19.9516 13.0163 20 12.5138 20 12C20 8.26042 17.4342 5.12013 13.967 4.2436Z" fill="black"/>
</svg>
