<svg width="24" height="24" viewBox="0 0 24 24" fill="none" xmlns="http://www.w3.org/2000/svg">
<path d="M4 10C4 6.68629 6.68629 4 10 4C13.0008 4 15.4888 6.20396 15.9303 9.08133C16.0099 9.60015 16.4562 10 17 10C18.6569 10 20 11.3431 20 13C20 13.8339 19.6611 14.5868 19.111 15.1316C18.7186 15.5202 18.7156 16.1534 19.1042 16.5458C19.4928 16.9382 20.126 16.9412 20.5184 16.5526C21.4322 15.6476 22 14.3892 22 13C22 10.4978 20.1619 8.42486 17.7624 8.05775C16.8941 4.57783 13.7489 2 10 2C5.58172 2 2 5.58172 2 10C2 11.9107 2.67112 13.6674 3.78959 15.0432C4.13796 15.4718 4.76779 15.5368 5.19633 15.1884C5.62488 14.84 5.68986 14.2102 5.34149 13.7817C4.50228 12.7493 4 11.4347 4 10Z" fill="black"/>
<path d="M12.003 22C12.1408 21.9996 12.2719 21.9713 12.3912 21.9206C12.5116 21.8694 12.6199 21.7952 12.7106 21.7036L16.7071 17.7071C17.0977 17.3166 17.0977 16.6834 16.7071 16.2929C16.3166 15.9024 15.6834 15.9024 15.2929 16.2929L13 18.5858V12C13 11.4477 12.5523 11 12 11C11.4477 11 11 11.4477 11 12V18.5858L8.70711 16.2929C8.31658 15.9024 7.68342 15.9024 7.29289 16.2929C6.90237 16.6834 6.90237 17.3166 7.29289 17.7071L11.2929 21.7071C11.3911 21.8053 11.5046 21.8788 11.6257 21.9276C11.7386 21.9732 11.8618 21.9988 11.9908 22L12 22L12.003 22Z" fill="black"/>
</svg>
