<svg width="24" height="24" viewBox="0 0 24 24" fill="none" xmlns="http://www.w3.org/2000/svg">
<path fill-rule="evenodd" clip-rule="evenodd" d="M1.99997 12C1.99997 6.47715 6.47712 2 12 2C17.5228 2 22 6.47715 22 12C22 17.5228 17.5228 22 12 22C6.47712 22 1.99997 17.5228 1.99997 12ZM12 4C11.8257 4 11.6527 4.00558 11.4811 4.01656C11.8758 6.49318 11.558 8.93647 10.3629 11.0926C9.16764 13.2488 7.26358 14.8134 4.95353 15.7911C6.3046 18.297 8.95341 20 12 20C12.1788 20 12.3562 19.9941 12.532 19.9826C12.1395 17.5089 12.4582 15.0688 13.6517 12.9156C14.8456 10.7617 16.7465 9.19849 19.0527 8.22058C17.7036 5.70826 15.0513 4 12 4ZM19.7703 10.0888C17.8394 10.9208 16.3349 12.2004 15.401 13.8852C14.4669 15.5703 14.1792 17.5243 14.4969 19.6026C17.6924 18.5538 20 15.5464 20 12C20 11.3413 19.9204 10.7012 19.7703 10.0888ZM3.99997 12C3.99997 8.44892 6.31367 5.43823 9.51582 4.39319C9.83654 6.47622 9.54942 8.43471 8.61362 10.1229C7.67775 11.8113 6.16913 13.0924 4.2329 13.9242C4.08071 13.3079 3.99997 12.6634 3.99997 12Z" fill="black"/>
</svg>
