<svg width="24" height="24" viewBox="0 0 24 24" fill="none" xmlns="http://www.w3.org/2000/svg">
<path d="M21.9321 15.637C21.976 15.7495 22 15.872 22 16C22 16.2489 21.9091 16.4765 21.7587 16.6515C21.7405 16.6727 21.7214 16.6932 21.7014 16.7128L16.7071 21.7071C16.3166 22.0976 15.6834 22.0976 15.2929 21.7071C14.9024 21.3166 14.9024 20.6834 15.2929 20.2929L18.5858 17H7.00003C4.23861 17 2.00003 14.7615 2.00003 12V3.00003C2.00003 2.44775 2.44775 2.00003 3.00003 2.00003C3.55231 2.00003 4.00003 2.44775 4.00003 3.00003V12C4.00003 13.6569 5.34318 15 7.00003 15H18.5859L15.2929 11.7071C14.9024 11.3166 14.9024 10.6834 15.2929 10.2929C15.6834 9.90234 16.3166 9.90234 16.7071 10.2929L21.7071 15.2929C21.8084 15.3941 21.8834 15.5116 21.9321 15.637Z" fill="black"/>
</svg>
