<svg width="24" height="24" viewBox="0 0 24 24" fill="none" xmlns="http://www.w3.org/2000/svg">
<path fill-rule="evenodd" clip-rule="evenodd" d="M5.82643 6C5.30923 6 4.87736 6.39439 4.83054 6.90947L4.26989 13.0765C4.98469 12.4087 5.94461 12 7 12C8.25264 12 9.3708 12.5758 10.1042 13.4772C10.6686 13.173 11.3146 13 12 13C12.6854 13 13.3314 13.173 13.8958 13.4771C14.6292 12.5758 15.7474 12 17 12C18.0554 12 19.0153 12.4087 19.7301 13.0765L19.1695 6.90947C19.1226 6.39439 18.6908 6 18.1736 6H17C16.4477 6 16 5.55228 16 5C16 4.44772 16.4477 4 17 4H18.1736C19.7252 4 21.0208 5.18316 21.1613 6.72839L21.8148 13.9177C21.8944 14.7928 21.5676 15.6041 20.9963 16.1745C20.9049 18.3027 19.1507 20 17 20C14.7909 20 13 18.2091 13 16C13 15.7625 13.0207 15.5299 13.0604 15.3037C12.753 15.111 12.3902 15 12 15C11.6099 15 11.247 15.111 10.9396 15.3037C10.9793 15.5299 11 15.7625 11 16C11 18.2091 9.20914 20 7 20C4.84933 20 3.0951 18.3027 3.00374 16.1745C2.43242 15.6041 2.10562 14.7928 2.18518 13.9177L2.83875 6.72839C2.97922 5.18316 4.27482 4 5.82643 4H7C7.55228 4 8 4.44772 8 5C8 5.55228 7.55228 6 7 6H5.82643ZM19 16C19 14.8954 18.1046 14 17 14C15.8954 14 15 14.8954 15 16C15 17.1046 15.8954 18 17 18C18.1046 18 19 17.1046 19 16ZM7 14C5.89543 14 5 14.8954 5 16C5 17.1046 5.89543 18 7 18C8.10457 18 9 17.1046 9 16C9 14.8954 8.10457 14 7 14Z" fill="black"/>
</svg>
