<svg width="24" height="24" viewBox="0 0 24 24" fill="none" xmlns="http://www.w3.org/2000/svg">
<path fill-rule="evenodd" clip-rule="evenodd" d="M10 4C6.68629 4 4 6.68629 4 10C4 11.4347 4.50228 12.7493 5.34149 13.7817C5.68986 14.2102 5.62488 14.84 5.19633 15.1884C4.76779 15.5368 4.13796 15.4718 3.78959 15.0432C2.67112 13.6674 2 11.9107 2 10C2 5.58172 5.58172 2 10 2C13.7489 2 16.8941 4.57783 17.7624 8.05775C20.1619 8.42486 22 10.4978 22 13C22 14.3892 21.4322 15.6476 20.5184 16.5526C20.126 16.9412 19.4928 16.9382 19.1042 16.5458C18.7156 16.1534 18.7186 15.5202 19.111 15.1316C19.6611 14.5868 20 13.8339 20 13C20 11.3431 18.6569 10 17 10C16.4562 10 16.0099 9.60015 15.9303 9.08133C15.4888 6.20396 13.0008 4 10 4Z" fill="black"/>
<path fill-rule="evenodd" clip-rule="evenodd" d="M12 14C12.5523 14 13 14.4477 13 15V16C13 16.5523 12.5523 17 12 17C11.4477 17 11 16.5523 11 16V15C11 14.4477 11.4477 14 12 14Z" fill="black"/>
<path fill-rule="evenodd" clip-rule="evenodd" d="M8 12C8.55228 12 9 12.4477 9 13V14C9 14.5523 8.55228 15 8 15C7.44772 15 7 14.5523 7 14V13C7 12.4477 7.44772 12 8 12Z" fill="black"/>
<path fill-rule="evenodd" clip-rule="evenodd" d="M16 12C16.5523 12 17 12.4477 17 13V14C17 14.5523 16.5523 15 16 15C15.4477 15 15 14.5523 15 14V13C15 12.4477 15.4477 12 16 12Z" fill="black"/>
<path fill-rule="evenodd" clip-rule="evenodd" d="M12 19C12.5523 19 13 19.4477 13 20V21C13 21.5523 12.5523 22 12 22C11.4477 22 11 21.5523 11 21V20C11 19.4477 11.4477 19 12 19Z" fill="black"/>
<path fill-rule="evenodd" clip-rule="evenodd" d="M8 17C8.55228 17 9 17.4477 9 18V19C9 19.5523 8.55228 20 8 20C7.44772 20 7 19.5523 7 19V18C7 17.4477 7.44772 17 8 17Z" fill="black"/>
<path fill-rule="evenodd" clip-rule="evenodd" d="M16 17C16.5523 17 17 17.4477 17 18V19C17 19.5523 16.5523 20 16 20C15.4477 20 15 19.5523 15 19V18C15 17.4477 15.4477 17 16 17Z" fill="black"/>
</svg>
