<svg width="24" height="24" viewBox="0 0 24 24" fill="none" xmlns="http://www.w3.org/2000/svg">
<path fill-rule="evenodd" clip-rule="evenodd" d="M8.5 10.5C8.5 8.56698 10.067 6.99998 12 6.99998C13.933 6.99998 15.5 8.56698 15.5 10.5C15.5 12.433 13.933 14 12 14C10.067 14 8.5 12.433 8.5 10.5ZM12 8.99998C11.1716 8.99998 10.5 9.67155 10.5 10.5C10.5 11.3284 11.1716 12 12 12C12.8284 12 13.5 11.3284 13.5 10.5C13.5 9.67155 12.8284 8.99998 12 8.99998Z" fill="black"/>
<path d="M9 16C8.44772 16 8 16.4477 8 17C8 17.5523 8.44772 18 9 18H15C15.5523 18 16 17.5523 16 17C16 16.4477 15.5523 16 15 16H9Z" fill="black"/>
<path fill-rule="evenodd" clip-rule="evenodd" d="M4.22951 4.36249C4.08049 4.5428 3.99532 4.77403 4 5.01796V21C4 21.5523 4.44772 22 5 22H19C19.5523 22 20 21.5523 20 21V4.99998C20 4.44769 19.5523 3.99998 19 3.99998H16.5V2.99998C16.5 2.70199 16.3671 2.41953 16.1375 2.22955C15.908 2.03958 15.6056 1.96188 15.3129 2.01764L4.83054 4.01428C4.74123 4.02952 4.65595 4.05661 4.57639 4.09387C4.44014 4.15745 4.32241 4.25007 4.22951 4.36249ZM6 5.99998V20H18V5.99998H6Z" fill="black"/>
</svg>
