<svg width="24" height="24" viewBox="0 0 24 24" fill="none" xmlns="http://www.w3.org/2000/svg">
<path fill-rule="evenodd" clip-rule="evenodd" d="M19.886 4.11911C19.4989 3.73112 18.8704 3.73115 18.4834 4.11918L10.04 12.5851L9.68423 14.3244L11.4409 13.9858L19.8861 5.51812C20.2717 5.13149 20.2716 4.5057 19.886 4.11911ZM17.0673 2.70685C18.2357 1.53532 20.1334 1.53522 21.3019 2.70663C22.4663 3.87382 22.4664 5.76314 21.3021 6.93045L12.64 15.6157C12.4986 15.7575 12.3178 15.8536 12.1212 15.8915L8.59403 16.5713C8.26617 16.6345 7.92841 16.5299 7.69365 16.2925C7.4589 16.055 7.35814 15.7161 7.42505 15.389L8.14063 11.8907C8.1798 11.6991 8.27425 11.5233 8.41229 11.3849L17.0673 2.70685Z" fill="black"/>
<path fill-rule="evenodd" clip-rule="evenodd" d="M2 7.00003C2 5.34318 3.34315 4.00003 5 4.00003H10.5C11.0523 4.00003 11.5 4.44775 11.5 5.00003C11.5 5.55232 11.0523 6.00003 10.5 6.00003H5C4.44772 6.00003 4 6.44775 4 7.00003V19C4 19.5523 4.44772 20 5 20H17C17.5523 20 18 19.5523 18 19V13.5C18 12.9478 18.4477 12.5 19 12.5C19.5523 12.5 20 12.9478 20 13.5V19C20 20.6569 18.6569 22 17 22H5C3.34315 22 2 20.6569 2 19V7.00003Z" fill="black"/>
</svg>
