<svg width="24" height="24" viewBox="0 0 24 24" fill="none" xmlns="http://www.w3.org/2000/svg">
<path d="M12.003 17C12.1407 16.9996 12.2719 16.9713 12.3912 16.9206C12.5116 16.8694 12.6199 16.7952 12.7106 16.7036L18.7071 10.7071C19.0976 10.3166 19.0976 9.6834 18.7071 9.29288C18.3166 8.90235 17.6834 8.90235 17.2929 9.29288L13 13.5858V3C13 2.44771 12.5523 2 12 2C11.4477 2 11 2.44771 11 3V13.5858L6.70707 9.29288C6.31655 8.90235 5.68338 8.90235 5.29286 9.29288C4.90234 9.6834 4.90234 10.3166 5.29286 10.7071L11.2929 16.7071C11.391 16.8053 11.5045 16.8788 11.6257 16.9276C11.7386 16.9732 11.8618 16.9988 11.9908 17L12 17L12.003 17Z" fill="black"/>
<path d="M4 16C4 15.4477 3.55228 15 3 15C2.44772 15 2 15.4477 2 16V19C2 20.6569 3.34315 22 5 22H19C20.6569 22 22 20.6569 22 19V16C22 15.4477 21.5523 15 21 15C20.4477 15 20 15.4477 20 16V19C20 19.5523 19.5523 20 19 20H5C4.44772 20 4 19.5523 4 19V16Z" fill="black"/>
</svg>
