<svg width="24" height="24" viewBox="0 0 24 24" fill="none" xmlns="http://www.w3.org/2000/svg">
<path fill-rule="evenodd" clip-rule="evenodd" d="M5 5C4.44772 5 4 5.44772 4 6V18C4 18.5523 4.44772 19 5 19H19C19.5523 19 20 18.5523 20 18V9C20 8.44772 19.5523 8 19 8H13.3561C12.353 8 11.4163 7.4987 10.8599 6.6641L10.0474 5.4453C9.86193 5.1671 9.5497 5 9.21535 5H5ZM2 6C2 4.34315 3.34315 3 5 3H9.21535C10.2184 3 11.1551 3.5013 11.7115 4.3359L12.524 5.5547C12.7095 5.8329 13.0217 6 13.3561 6H19C20.6569 6 22 7.34315 22 9V18C22 19.6569 20.6569 21 19 21H5C3.34315 21 2 19.6569 2 18V6Z" fill="black"/>
</svg>
