<svg width="24" height="24" viewBox="0 0 24 24" fill="none" xmlns="http://www.w3.org/2000/svg">
<path fill-rule="evenodd" clip-rule="evenodd" d="M6.97919 2.87868C7.54179 2.31607 8.30486 2 9.10051 2L14.8995 2C15.6951 2 16.4582 2.31607 17.0208 2.87868L21.1213 6.97919C21.6839 7.54179 22 8.30486 22 9.10051V14.8995C22 15.6951 21.6839 16.4582 21.1213 17.0208L17.0208 21.1213C16.4582 21.6839 15.6951 22 14.8995 22H9.10051C8.30486 22 7.54179 21.6839 6.97919 21.1213L2.87868 17.0208C2.31607 16.4582 2 15.6951 2 14.8995L2 9.10051C2 8.30486 2.31607 7.54179 2.87868 6.97919L6.97919 2.87868ZM9.10051 4C8.83529 4 8.58094 4.10536 8.3934 4.29289L4.29289 8.3934C4.10536 8.58093 4 8.83529 4 9.10051V14.8995C4 15.1647 4.10536 15.4191 4.29289 15.6066L8.3934 19.7071C8.58093 19.8946 8.83529 20 9.10051 20H14.8995C15.1647 20 15.4191 19.8946 15.6066 19.7071L19.7071 15.6066C19.8946 15.4191 20 15.1647 20 14.8995V9.10051C20 8.83529 19.8946 8.58094 19.7071 8.3934L15.6066 4.29289C15.4191 4.10536 15.1647 4 14.8995 4H9.10051Z" fill="black"/>
<path fill-rule="evenodd" clip-rule="evenodd" d="M8.46446 8.46446C8.85499 8.07394 9.48815 8.07394 9.87868 8.46446L12 10.5858L14.1213 8.46446C14.5118 8.07394 15.145 8.07394 15.5355 8.46446C15.9261 8.85499 15.9261 9.48815 15.5355 9.87868L13.4142 12L15.5355 14.1213C15.9261 14.5118 15.9261 15.145 15.5355 15.5355C15.145 15.9261 14.5118 15.9261 14.1213 15.5355L12 13.4142L9.87868 15.5355C9.48815 15.9261 8.85499 15.9261 8.46446 15.5355C8.07394 15.145 8.07394 14.5118 8.46446 14.1213L10.5858 12L8.46446 9.87868C8.07394 9.48815 8.07394 8.85499 8.46446 8.46446Z" fill="black"/>
</svg>
