<svg width="24" height="24" viewBox="0 0 24 24" fill="none" xmlns="http://www.w3.org/2000/svg">
<path fill-rule="evenodd" clip-rule="evenodd" d="M7 2C5.34315 2 4 3.34315 4 5V11.1707C2.83481 11.5825 2 12.6938 2 14V18V21C2 21.5523 2.44772 22 3 22C3.55228 22 4 21.5523 4 21V19H20V21C20 21.5523 20.4477 22 21 22C21.5523 22 22 21.5523 22 21V18V14C22 12.6938 21.1652 11.5825 20 11.1707V5C20 3.34315 18.6569 2 17 2H7ZM20 17V14C20 13.4477 19.5523 13 19 13H5C4.44772 13 4 13.4477 4 14V17H20ZM7 11H6V5C6 4.44772 6.44772 4 7 4H17C17.5523 4 18 4.44772 18 5V11H17V10C17 8.34315 15.6569 7 14 7H10C8.34315 7 7 8.34315 7 10V11ZM15 10V11H9V10C9 9.44772 9.44772 9 10 9H14C14.5523 9 15 9.44772 15 10Z" fill="black"/>
</svg>
