<svg width="24" height="24" viewBox="0 0 24 24" fill="none" xmlns="http://www.w3.org/2000/svg">
<path fill-rule="evenodd" clip-rule="evenodd" d="M2 12C2 6.47715 6.47715 2 12 2C17.5228 2 22 6.47715 22 12V19C22 20.6569 20.6569 22 19 22H17.375C15.7181 22 14.375 20.6569 14.375 19V15C14.375 13.3431 15.7181 12 17.375 12H19.875C19.9173 12 19.9591 12.0026 20 12.0077V12C20 7.58172 16.4183 4 12 4C7.58172 4 4 7.58172 4 12V12.0077C4.04095 12.0026 4.08267 12 4.125 12H6.625C8.28185 12 9.625 13.3431 9.625 15V19C9.625 20.6569 8.28185 22 6.625 22H5C3.34315 22 2 20.6569 2 19V12ZM4 13.9923V19C4 19.5523 4.44772 20 5 20H6.625C7.17728 20 7.625 19.5523 7.625 19V15C7.625 14.4477 7.17728 14 6.625 14H4.125C4.08267 14 4.04095 13.9974 4 13.9923ZM20 13.9923C19.9591 13.9974 19.9173 14 19.875 14H17.375C16.8227 14 16.375 14.4477 16.375 15V19C16.375 19.5523 16.8227 20 17.375 20H19C19.5523 20 20 19.5523 20 19V13.9923Z" fill="black"/>
</svg>
