<svg width="24" height="24" viewBox="0 0 24 24" fill="none" xmlns="http://www.w3.org/2000/svg">
<path fill-rule="evenodd" clip-rule="evenodd" d="M12 2C8.13401 2 5 5.13401 5 9C5 11.2505 6.06206 13.253 7.71232 14.5336L7.0061 20.8895C6.96565 21.2536 7.12752 21.6107 7.42802 21.8202C7.72852 22.0298 8.11954 22.0582 8.4472 21.8944L12 20.118L15.5528 21.8944C15.8804 22.0582 16.2715 22.0298 16.572 21.8202C16.8725 21.6107 17.0343 21.2536 16.9939 20.8895L16.2877 14.5336C17.9379 13.253 19 11.2505 19 9C19 5.13401 15.866 2 12 2ZM7 9C7 6.23858 9.23858 4 12 4C14.7614 4 17 6.23858 17 9C17 11.7614 14.7614 14 12 14C9.23858 14 7 11.7614 7 9ZM14.3917 15.5808C13.6454 15.852 12.84 16 12 16C11.16 16 10.3545 15.852 9.60827 15.5808L9.19686 19.2835L11.5528 18.1055C11.8343 17.9648 12.1657 17.9648 12.4472 18.1055L14.8031 19.2835L14.3917 15.5808Z" fill="black"/>
</svg>
