<svg width="24" height="24" viewBox="0 0 24 24" fill="none" xmlns="http://www.w3.org/2000/svg">
<path fill-rule="evenodd" clip-rule="evenodd" d="M2 5C2 3.34315 3.34315 2 5 2H19C20.6569 2 22 3.34315 22 5V19C22 20.6569 20.6569 22 19 22H5C3.34315 22 2 20.6569 2 19V5ZM5 4C4.44772 4 4 4.44772 4 5V19C4 19.5523 4.44772 20 5 20H19C19.5523 20 20 19.5523 20 19V5C20 4.44772 19.5523 4 19 4H5Z" fill="black"/>
<path fill-rule="evenodd" clip-rule="evenodd" d="M8.46447 8.46447C8.85499 8.07394 9.48816 8.07394 9.87868 8.46447L12 10.5858L14.1213 8.46447C14.5118 8.07394 15.145 8.07394 15.5355 8.46447C15.9261 8.85499 15.9261 9.48816 15.5355 9.87868L13.4142 12L15.5355 14.1213C15.9261 14.5118 15.9261 15.145 15.5355 15.5355C15.145 15.9261 14.5118 15.9261 14.1213 15.5355L12 13.4142L9.87868 15.5355C9.48815 15.9261 8.85499 15.9261 8.46447 15.5355C8.07394 15.145 8.07394 14.5118 8.46447 14.1213L10.5858 12L8.46447 9.87868C8.07394 9.48816 8.07394 8.85499 8.46447 8.46447Z" fill="black"/>
</svg>
