<svg width="24" height="24" viewBox="0 0 24 24" fill="none" xmlns="http://www.w3.org/2000/svg">
<path fill-rule="evenodd" clip-rule="evenodd" d="M2 7.99997C2 7.44769 2.44772 6.99997 3 6.99997H21C21.5523 6.99997 22 7.44769 22 7.99997C22 8.55226 21.5523 8.99997 21 8.99997H3C2.44772 8.99997 2 8.55226 2 7.99997Z" fill="black"/>
<path fill-rule="evenodd" clip-rule="evenodd" d="M2 16C2 15.4477 2.44772 15 3 15H21C21.5523 15 22 15.4477 22 16C22 16.5523 21.5523 17 21 17H3C2.44772 17 2 16.5523 2 16Z" fill="black"/>
<path fill-rule="evenodd" clip-rule="evenodd" d="M10.1644 2.01358C10.7092 2.10437 11.0772 2.6196 10.9864 3.16437L7.98639 21.1644C7.8956 21.7091 7.38037 22.0772 6.8356 21.9864C6.29083 21.8956 5.92281 21.3803 6.01361 20.8356L9.01361 2.83557C9.1044 2.2908 9.61963 1.92278 10.1644 2.01358Z" fill="black"/>
<path fill-rule="evenodd" clip-rule="evenodd" d="M17.1644 2.01358C17.7092 2.10437 18.0772 2.6196 17.9864 3.16437L14.9864 21.1644C14.8956 21.7091 14.3804 22.0772 13.8356 21.9864C13.2908 21.8956 12.9228 21.3803 13.0136 20.8356L16.0136 2.83557C16.1044 2.2908 16.6196 1.92278 17.1644 2.01358Z" fill="black"/>
</svg>
