<svg width="24" height="24" viewBox="0 0 24 24" fill="none" xmlns="http://www.w3.org/2000/svg">
<path d="M16.7071 7.70712C16.3166 8.09765 15.6834 8.09765 15.2929 7.70712L13 5.41423V15C13 15.5523 12.5523 16 12 16C11.4477 16 11 15.5523 11 15V5.4142L8.70708 7.70712C8.31655 8.09765 7.68339 8.09765 7.29286 7.70712C6.90234 7.3166 6.90234 6.68343 7.29286 6.29291L11.2929 2.29289C11.391 2.19473 11.5045 2.12123 11.6257 2.07242C11.7404 2.02607 11.8657 2.00039 11.997 2L12 2C12.2605 2 12.4977 2.09959 12.6757 2.26278C12.6876 2.27368 12.6992 2.28486 12.7105 2.29632L16.7071 6.29291C17.0976 6.68343 17.0976 7.3166 16.7071 7.70712Z" fill="black"/>
<path d="M5 12C5 11.4477 4.55228 11 4 11C3.44772 11 3 11.4477 3 12V19C3 20.6569 4.34315 22 6 22H18C19.6569 22 21 20.6569 21 19V12C21 11.4477 20.5523 11 20 11C19.4477 11 19 11.4477 19 12V19C19 19.5523 18.5523 20 18 20H6C5.44772 20 5 19.5523 5 19V12Z" fill="black"/>
</svg>
