<svg width="24" height="24" viewBox="0 0 24 24" fill="none" xmlns="http://www.w3.org/2000/svg">
<path fill-rule="evenodd" clip-rule="evenodd" d="M19.7071 18.7071C20.0976 18.3166 20.0976 17.6834 19.7071 17.2929L14.4142 12L19.7071 6.70711C20.0976 6.31658 20.0976 5.68342 19.7071 5.29289C19.3166 4.90237 18.6834 4.90237 18.2929 5.29289L12.2929 11.2929C11.9023 11.6834 11.9023 12.3166 12.2929 12.7071L18.2929 18.7071C18.6834 19.0977 19.3166 19.0977 19.7071 18.7071Z" fill="black"/>
<path fill-rule="evenodd" clip-rule="evenodd" d="M11.7071 18.7071C12.0976 18.3166 12.0976 17.6834 11.7071 17.2929L6.41418 12L11.7071 6.70711C12.0976 6.31658 12.0976 5.68342 11.7071 5.29289C11.3166 4.90237 10.6834 4.90237 10.2929 5.29289L4.29286 11.2929C3.90234 11.6834 3.90234 12.3166 4.29286 12.7071L10.2929 18.7071C10.6834 19.0977 11.3166 19.0977 11.7071 18.7071Z" fill="black"/>
</svg>
