<svg width="24" height="24" viewBox="0 0 24 24" fill="none" xmlns="http://www.w3.org/2000/svg">
<path d="M12 20C16.4183 20 20 16.4183 20 12C20 11.4477 20.4477 11 21 11C21.5523 11 22 11.4477 22 12C22 17.5228 17.5228 22 12 22C9.24409 22 6.78613 20.886 5 19.0911V21C5 21.5523 4.55228 22 4 22C3.44772 22 3 21.5523 3 21V16.0217C2.99592 15.8278 3.0486 15.6369 3.14993 15.4731C3.22417 15.353 3.32454 15.2476 3.44782 15.1662C3.54507 15.1016 3.65426 15.0536 3.77137 15.0263C3.85392 15.0068 3.9375 14.9983 4.02022 15H9C9.55228 15 10 15.4477 10 16C10 16.5523 9.55228 17 9 17H5.81236C7.26571 18.8336 9.47983 20 12 20Z" fill="black"/>
<path d="M4 12C4 7.58172 7.58172 4 12 4C14.5202 4 16.7343 5.16638 18.1876 7H15C14.4477 7 14 7.44772 14 8C14 8.55228 14.4477 9 15 9H19.9798C20.0625 9.00174 20.1461 8.9932 20.2286 8.97375C20.3465 8.94617 20.4564 8.89775 20.5541 8.83257C20.7906 8.67487 20.9561 8.41911 20.9925 8.1234C20.9985 8.07547 21.001 8.02697 21 7.97829V3C21 2.44772 20.5523 2 20 2C19.4477 2 19 2.44772 19 3V4.90888C17.2139 3.11401 14.7559 2 12 2C6.47715 2 2 6.47715 2 12C2 12.5523 2.44772 13 3 13C3.55228 13 4 12.5523 4 12Z" fill="black"/>
</svg>
