<svg width="24" height="24" viewBox="0 0 24 24" fill="none" xmlns="http://www.w3.org/2000/svg">
<path fill-rule="evenodd" clip-rule="evenodd" d="M11.8468 4.28741C11.5857 3.808 11.2641 3.34139 10.8688 2.94601C9.42479 1.50205 7.08366 1.50205 5.63969 2.94601C4.54369 4.04201 4.27958 5.65488 4.84735 6.99998H4C2.89543 6.99998 2 7.89541 2 8.99998V11C2 12.1046 2.89543 13 4 13L4 19C4 20.6568 5.34315 22 7 22H17C18.6569 22 20 20.6568 20 19V13C21.1046 13 22 12.1046 22 11V8.99998C22 7.89541 21.1046 6.99998 20 6.99998H18.8462C19.414 5.65488 19.1498 4.04201 18.0539 2.94601C16.6099 1.50205 14.2688 1.50205 12.8248 2.94601C12.4294 3.34139 12.1079 3.808 11.8468 4.28741ZM16.3378 6.99998L16.6712 6.72847C17.3024 6.06338 17.2919 5.01245 16.6396 4.36023C15.9767 3.69731 14.9019 3.69731 14.239 4.36023C13.6862 4.91299 13.2853 5.80798 13.0221 6.66642C13.0078 6.71291 12.9941 6.75889 12.9809 6.80427C12.9934 6.86756 13 6.933 13 6.99998H16.3378ZM10.7677 6.99998H7.35573L7.02234 6.72847C6.39116 6.06338 6.40168 5.01245 7.0539 4.36023C7.71682 3.69731 8.79163 3.69731 9.45454 4.36023C10.0073 4.91299 10.4082 5.80798 10.6715 6.66642C10.7067 6.78115 10.7387 6.8928 10.7677 6.99998ZM11 8.99998H4V11H11V8.99998ZM13 11V8.99998H20V11H13ZM11 13H6V19C6 19.5523 6.44772 20 7 20H11V13ZM13 20V13H18V19C18 19.5523 17.5523 20 17 20H13Z" fill="black"/>
</svg>
