<svg width="24" height="24" viewBox="0 0 24 24" fill="none" xmlns="http://www.w3.org/2000/svg">
<path fill-rule="evenodd" clip-rule="evenodd" d="M11.9419 2.00017L12 2L12.0581 2.00017C12.0758 1.99984 12.0935 1.99999 12.1112 2.00061C17.5828 2.06024 22 6.51428 22 12C22 17.5228 17.5228 22 12 22C6.47715 22 2 17.5228 2 12C2 6.51428 6.41716 2.06024 11.8888 2.00061C11.9065 1.99999 11.9242 1.99984 11.9419 2.00017ZM9 11.8827C9 11.2408 9.05482 10.6117 9.16005 10H14.84C14.9452 10.6117 15 11.2408 15 11.8827C15 12.607 14.9302 13.3149 14.797 14H9.20303C9.06979 13.3149 9 12.607 9 11.8827ZM7.17135 14C7.05863 13.3109 7 12.6036 7 11.8827C7 11.2433 7.04611 10.6147 7.13517 10H4.25204C4.08751 10.6392 4 11.3094 4 12C4 12.6906 4.08751 13.3608 4.25203 14H7.17135ZM5.07026 16H7.66456C8.10121 17.3108 8.74054 18.5288 9.5451 19.6163C7.64398 19.004 6.05345 17.6996 5.07026 16ZM9.79454 16H14.2055C13.6878 17.2845 12.9349 18.4487 12 19.4393C11.0651 18.4487 10.3122 17.2845 9.79454 16ZM16.3354 16C15.8988 17.3108 15.2595 18.5288 14.4549 19.6163C16.356 19.004 17.9466 17.6996 18.9297 16H16.3354ZM19.748 14C19.9125 13.3608 20 12.6906 20 12C20 11.3094 19.9125 10.6392 19.748 10H16.8648C16.9539 10.6147 17 11.2433 17 11.8827C17 12.6036 16.9414 13.3109 16.8287 14H19.748ZM14.2969 8H9.70311C10.2217 6.62248 11.0085 5.3767 12 4.32609C12.9915 5.3767 13.7783 6.62248 14.2969 8ZM16.4111 8H18.9297C17.9851 6.36704 16.4799 5.09896 14.6772 4.45894C15.4237 5.53225 16.0129 6.72387 16.4111 8ZM5.07026 8H7.58889C7.98709 6.72388 8.5763 5.53226 9.3228 4.45895C7.52012 5.09896 6.01488 6.36704 5.07026 8Z" fill="black"/>
</svg>
