<svg width="24" height="24" viewBox="0 0 24 24" fill="none" xmlns="http://www.w3.org/2000/svg">
<path fill-rule="evenodd" clip-rule="evenodd" d="M3 2C2.44772 2 2 2.44772 2 3C2 3.55228 2.44772 4 3 4H4.61982C5.09438 4 5.50358 4.33354 5.59927 4.79835L7.02054 11.7017C7.0384 11.7884 7.06698 11.8701 7.10461 11.9458C7.2532 12.3941 7.50272 12.7919 7.82434 13.1152L7.55277 13.6583C6.55542 15.653 8.0059 18 10.236 18H18C18.5523 18 19 17.5523 19 17C19 16.4477 18.5523 16 18 16H10.236C9.49267 16 9.00917 15.2177 9.34162 14.5528L9.62676 13.9825C9.73371 13.9941 9.84218 14 9.95183 14H17.2634C18.5615 14 19.7123 13.1652 20.1152 11.9312L21.0948 8.9312C21.728 6.99203 20.283 5 18.243 5H7.68274L7.55819 4.39504C7.2711 3.00061 6.04349 2 4.61982 2H3ZM8.20041 7L8.96828 11.1807C9.05547 11.6553 9.46922 12 9.95183 12H17.2634C17.6961 12 18.0797 11.7217 18.214 11.3104L19.1936 8.3104C19.4047 7.66401 18.923 7 18.243 7H8.20041Z" fill="black"/>
<path d="M12 20.5C12 21.3284 11.3284 22 10.5 22C9.67157 22 9 21.3284 9 20.5C9 19.6716 9.67157 19 10.5 19C11.3284 19 12 19.6716 12 20.5Z" fill="black"/>
<path d="M16.5 22C17.3284 22 18 21.3284 18 20.5C18 19.6716 17.3284 19 16.5 19C15.6716 19 15 19.6716 15 20.5C15 21.3284 15.6716 22 16.5 22Z" fill="black"/>
</svg>
