<svg width="24" height="24" viewBox="0 0 24 24" fill="none" xmlns="http://www.w3.org/2000/svg">
<path d="M3.70711 2.29289C3.31658 1.90237 2.68342 1.90237 2.29289 2.29289C1.90237 2.68342 1.90237 3.31658 2.29289 3.70711L14 15.4142V18.25C14 19.2165 13.2165 20 12.25 20C11.2835 20 10.5 19.2165 10.5 18.25V17.4423C10.5 15.3712 8.82107 13.6923 6.75 13.6923C4.67893 13.6923 3 15.3712 3 17.4423V18.3846C3 18.9369 3.44772 19.3846 4 19.3846C4.55228 19.3846 5 18.9369 5 18.3846V17.4423C5 16.4758 5.7835 15.6923 6.75 15.6923C7.7165 15.6923 8.5 16.4758 8.5 17.4423V18.25C8.5 20.321 10.1789 22 12.25 22C14.3211 22 16 20.321 16 18.25V17.4142L20.2929 21.7071C20.6834 22.0976 21.3166 22.0976 21.7071 21.7071C22.0976 21.3166 22.0976 20.6834 21.7071 20.2929L15.7163 14.3021C15.7102 14.2958 15.704 14.2897 15.6978 14.2836L3.70711 2.29289Z" fill="black"/>
<path d="M16 3C16 2.44772 16.4477 2 17 2C17.5523 2 18 2.44772 18 3V5H19C20.1046 5 21 5.89543 21 7V9C21 10.8043 20.2023 12.4235 18.9437 13.5219C18.5276 13.8851 17.8959 13.8422 17.5327 13.4261C17.1696 13.01 17.2125 12.3783 17.6286 12.0151C18.4705 11.2803 19 10.2026 19 9V7H11.75C11.1977 7 10.75 6.55228 10.75 6C10.75 5.44772 11.1977 5 11.75 5H12V3C12 2.44772 12.4477 2 13 2C13.5523 2 14 2.44772 14 3V5H16V3Z" fill="black"/>
</svg>
