<svg width="24" height="24" viewBox="0 0 24 24" fill="none" xmlns="http://www.w3.org/2000/svg">
<path fill-rule="evenodd" clip-rule="evenodd" d="M18.7071 19.7071C18.3166 20.0976 17.6834 20.0976 17.2929 19.7071L12 14.4142L6.70707 19.7071C6.31655 20.0976 5.68339 20.0976 5.29286 19.7071C4.90234 19.3166 4.90234 18.6834 5.29286 18.2929L11.2929 12.2929C11.6834 11.9024 12.3166 11.9024 12.7071 12.2929L18.7071 18.2929C19.0976 18.6834 19.0976 19.3166 18.7071 19.7071Z" fill="black"/>
<path fill-rule="evenodd" clip-rule="evenodd" d="M18.7071 11.7071C18.3166 12.0976 17.6834 12.0976 17.2929 11.7071L12 6.41421L6.70707 11.7071C6.31655 12.0976 5.68339 12.0976 5.29286 11.7071C4.90234 11.3166 4.90234 10.6834 5.29286 10.2929L11.2929 4.29289C11.6834 3.90237 12.3166 3.90237 12.7071 4.29289L18.7071 10.2929C19.0976 10.6834 19.0976 11.3166 18.7071 11.7071Z" fill="black"/>
</svg>
