<svg width="24" height="24" viewBox="0 0 24 24" fill="none" xmlns="http://www.w3.org/2000/svg">
<path fill-rule="evenodd" clip-rule="evenodd" d="M17 2C17.5523 2 18 2.44772 18 3V5C18 5.55228 18.4477 6 19 6H21C21.5523 6 22 6.44772 22 7C22 7.55228 21.5523 8 21 8H19C17.3431 8 16 6.65685 16 5V3C16 2.44772 16.4477 2 17 2Z" fill="black"/>
<path fill-rule="evenodd" clip-rule="evenodd" d="M7 2C6.44772 2 6 2.44772 6 3V5C6 5.55228 5.55228 6 5 6H3C2.44772 6 2 6.44772 2 7C2 7.55228 2.44772 8 3 8H5C6.65685 8 8 6.65685 8 5V3C8 2.44772 7.55228 2 7 2Z" fill="black"/>
<path fill-rule="evenodd" clip-rule="evenodd" d="M17 22C17.5523 22 18 21.5523 18 21V19C18 18.4477 18.4477 18 19 18H21C21.5523 18 22 17.5523 22 17C22 16.4477 21.5523 16 21 16H19C17.3431 16 16 17.3431 16 19V21C16 21.5523 16.4477 22 17 22Z" fill="black"/>
<path fill-rule="evenodd" clip-rule="evenodd" d="M7 22C6.44772 22 6 21.5523 6 21V19C6 18.4477 5.55228 18 5 18H3C2.44772 18 2 17.5523 2 17C2 16.4477 2.44772 16 3 16H5C6.65685 16 8 17.3431 8 19V21C8 21.5523 7.55228 22 7 22Z" fill="black"/>
</svg>
