<svg width="24" height="24" viewBox="0 0 24 24" fill="none" xmlns="http://www.w3.org/2000/svg">
<path fill-rule="evenodd" clip-rule="evenodd" d="M4.29285 5.29286C3.90233 5.68338 3.90233 6.31655 4.29285 6.70707L9.58576 12L4.29285 17.2929C3.90233 17.6834 3.90233 18.3166 4.29285 18.7071C4.68338 19.0976 5.31654 19.0976 5.70707 18.7071L11.7071 12.7071C12.0976 12.3166 12.0976 11.6834 11.7071 11.2929L5.70707 5.29286C5.31654 4.90234 4.68338 4.90234 4.29285 5.29286Z" fill="black"/>
<path fill-rule="evenodd" clip-rule="evenodd" d="M12.2929 5.29286C11.9023 5.68338 11.9023 6.31655 12.2929 6.70707L17.5858 12L12.2929 17.2929C11.9023 17.6834 11.9023 18.3166 12.2929 18.7071C12.6834 19.0976 13.3165 19.0976 13.7071 18.7071L19.7071 12.7071C20.0976 12.3166 20.0976 11.6834 19.7071 11.2929L13.7071 5.29286C13.3165 4.90234 12.6834 4.90234 12.2929 5.29286Z" fill="black"/>
</svg>
