<svg width="24" height="24" viewBox="0 0 24 24" fill="none" xmlns="http://www.w3.org/2000/svg">
<path d="M10 9C10.5523 9 11 9.44772 11 10V16C11 16.5523 10.5523 17 10 17C9.44772 17 9 16.5523 9 16V10C9 9.44772 9.44772 9 10 9Z" fill="black"/>
<path d="M14 9C14.5523 9 15 9.44772 15 10V16C15 16.5523 14.5523 17 14 17C13.4477 17 13 16.5523 13 16V10C13 9.44772 13.4477 9 14 9Z" fill="black"/>
<path fill-rule="evenodd" clip-rule="evenodd" d="M9 6V4C9 2.89543 9.89543 2 11 2H13C14.1046 2 15 2.89543 15 4V6H16C17.6569 6 19 7.34315 19 9V17C19 18.6569 17.6569 20 16 20V21C16 21.5523 15.5523 22 15 22C14.4477 22 14 21.5523 14 21V20H10V21C10 21.5523 9.55228 22 9 22C8.44772 22 8 21.5523 8 21L8 20C6.34315 20 5 18.6569 5 17V9C5 7.34315 6.34315 6 8 6H9ZM8 8C7.44772 8 7 8.44772 7 9V17C7 17.5523 7.44772 18 8 18H16C16.5523 18 17 17.5523 17 17V9C17 8.44772 16.5523 8 16 8H8ZM13 6V4H11V6H13Z" fill="black"/>
</svg>
