<svg width="24" height="24" viewBox="0 0 24 24" fill="none" xmlns="http://www.w3.org/2000/svg">
<path fill-rule="evenodd" clip-rule="evenodd" d="M10.4415 5C10.0111 5 9.62895 5.27543 9.49284 5.68377L9.40453 5.94868C8.99619 7.17371 7.84977 8 6.55848 8H5C4.44772 8 4 8.44772 4 9V18C4 18.5523 4.44772 19 5 19H19C19.5523 19 20 18.5523 20 18V9C20 8.44772 19.5523 8 19 8H17.4415C16.1502 8 15.0038 7.17371 14.5955 5.94868L14.5072 5.68377C14.3711 5.27543 13.9889 5 13.5585 5H10.4415ZM7.59547 5.05132C8.00381 3.82629 9.15023 3 10.4415 3H13.5585C14.8498 3 15.9962 3.82629 16.4045 5.05132L16.4928 5.31623C16.6289 5.72457 17.0111 6 17.4415 6H19C20.6569 6 22 7.34315 22 9V18C22 19.6569 20.6569 21 19 21H5C3.34315 21 2 19.6569 2 18V9C2 7.34315 3.34315 6 5 6H6.55848C6.98891 6 7.37105 5.72457 7.50716 5.31623L7.59547 5.05132Z" fill="black"/>
<path fill-rule="evenodd" clip-rule="evenodd" d="M12 11C10.8954 11 10 11.8954 10 13C10 14.1046 10.8954 15 12 15C13.1046 15 14 14.1046 14 13C14 11.8954 13.1046 11 12 11ZM8 13C8 10.7909 9.79086 9 12 9C14.2091 9 16 10.7909 16 13C16 15.2091 14.2091 17 12 17C9.79086 17 8 15.2091 8 13Z" fill="black"/>
</svg>
