<svg width="24" height="24" viewBox="0 0 24 24" fill="none" xmlns="http://www.w3.org/2000/svg">
<path fill-rule="evenodd" clip-rule="evenodd" d="M3.70711 2.29289C3.31658 1.90237 2.68342 1.90237 2.29289 2.29289C1.90237 2.68342 1.90237 3.31658 2.29289 3.70711L6 7.41421V11.4982C5.99954 11.5002 5.99815 11.505 5.99438 11.5128C5.98627 11.5296 5.96922 11.5553 5.93916 11.583C4.7484 12.6782 4 14.2524 4 16C4 19.3137 6.68629 22 10 22C12.8752 22 15.278 19.9777 15.8636 17.2778L20.2929 21.7071C20.6834 22.0976 21.3166 22.0976 21.7071 21.7071C22.0976 21.3166 22.0976 20.6834 21.7071 20.2929L3.70711 2.29289ZM13.9499 15.3641L11 12.4142V13.1707C12.1652 13.5825 13 14.6938 13 16C13 17.6569 11.6569 19 10 19C8.34315 19 7 17.6569 7 16C7 14.6938 7.83481 13.5825 9 13.1707V10.4142L8 9.41421V11.5001C8 12.145 7.68992 12.69 7.29309 13.055C6.49678 13.7874 6 14.835 6 16C6 18.2091 7.79086 20 10 20C12.2091 20 14 18.2091 14 16C14 15.783 13.9828 15.5707 13.9499 15.3641ZM9 16C9 15.4477 9.44772 15 10 15C10.5523 15 11 15.4477 11 16C11 16.5523 10.5523 17 10 17C9.44772 17 9 16.5523 9 16Z" fill="black"/>
<path d="M9.20072 4.16583C9.44422 4.05949 9.71385 4 10 4C11.1046 4 12 4.89543 12 6V7.25C12 7.80228 12.4477 8.25 13 8.25C13.5523 8.25 14 7.80228 14 7.25V6C14 3.79086 12.2091 2 10 2C9.43323 2 8.8915 2.11848 8.40032 2.33297C7.89419 2.55399 7.66307 3.14347 7.88409 3.6496C8.10511 4.15573 8.69459 4.38685 9.20072 4.16583Z" fill="black"/>
<path d="M16 5C15.4477 5 15 5.44772 15 6C15 6.55228 15.4477 7 16 7H19C19.5523 7 20 6.55228 20 6C20 5.44772 19.5523 5 19 5H16Z" fill="black"/>
<path d="M16 11C15.4477 11 15 10.5523 15 10C15 9.44772 15.4477 9 16 9H19C19.5523 9 20 9.44772 20 10C20 10.5523 19.5523 11 19 11H16Z" fill="black"/>
</svg>
