<svg width="24" height="24" viewBox="0 0 24 24" fill="none" xmlns="http://www.w3.org/2000/svg">
<path d="M3 8C3.55228 8 4 7.55228 4 7V5C4 4.44772 4.44772 4 5 4H7C7.55228 4 8 3.55228 8 3C8 2.44772 7.55228 2 7 2H5C3.34315 2 2 3.34315 2 5V7C2 7.55228 2.44772 8 3 8Z" fill="black"/>
<path d="M4 17C4 16.4477 3.55228 16 3 16C2.44772 16 2 16.4477 2 17V19C2 20.6569 3.34315 22 5 22H7C7.55228 22 8 21.5523 8 21C8 20.4477 7.55228 20 7 20H5C4.44772 20 4 19.5523 4 19V17Z" fill="black"/>
<path d="M20 17C20 16.4477 20.4477 16 21 16C21.5523 16 22 16.4477 22 17V19C22 20.6569 20.6569 22 19 22H17C16.4477 22 16 21.5523 16 21C16 20.4477 16.4477 20 17 20H19C19.5523 20 20 19.5523 20 19V17Z" fill="black"/>
<path d="M21 8C20.4477 8 20 7.55228 20 7V5C20 4.44772 19.5523 4 19 4H17C16.4477 4 16 3.55228 16 3C16 2.44772 16.4477 2 17 2H19C20.6569 2 22 3.34315 22 5V7C22 7.55228 21.5523 8 21 8Z" fill="black"/>
<path d="M14 11C14 11.4387 13.8588 11.8444 13.6193 12.1741C14.4303 12.5141 15 13.3155 15 14.25C15 14.6642 14.6642 15 14.25 15H9.75C9.33579 15 9 14.6642 9 14.25C9 13.3155 9.56968 12.5141 10.3807 12.1741C10.1412 11.8444 10 11.4387 10 11C10 9.89543 10.8954 9 12 9C13.1046 9 14 9.89543 14 11Z" fill="black"/>
<path fill-rule="evenodd" clip-rule="evenodd" d="M8 6C6.34315 6 5 7.34315 5 9V15C5 16.6569 6.34315 18 8 18H16C17.6569 18 19 16.6569 19 15V9C19 7.34315 17.6569 6 16 6H8ZM7 9C7 8.44772 7.44772 8 8 8H16C16.5523 8 17 8.44772 17 9V15C17 15.5523 16.5523 16 16 16H8C7.44772 16 7 15.5523 7 15V9Z" fill="black"/>
</svg>
