<svg width="24" height="24" viewBox="0 0 24 24" fill="none" xmlns="http://www.w3.org/2000/svg">
<path fill-rule="evenodd" clip-rule="evenodd" d="M11.25 2C10.8431 2 10.4767 2.2466 10.3235 2.62362L7.32688 10H5C3.34315 10 2 11.3431 2 13V19C2 20.6569 3.34315 22 5 22H17.3308C18.7807 22 20.0231 20.9631 20.2825 19.5367L21.5552 12.5367C21.89 10.6951 20.4753 9 18.6036 9H16L16 5.99874L16 5.99741L16 5.99411L15.9999 5.98791L15.9997 5.97124C15.9994 5.95863 15.999 5.94305 15.9982 5.92468C15.9967 5.88797 15.9939 5.83994 15.9887 5.78216C15.9784 5.66697 15.9586 5.51092 15.9204 5.3273C15.8446 4.96328 15.6918 4.47004 15.3792 3.97C14.7149 2.90706 13.4448 2 11.25 2ZM7 20V12H5C4.44772 12 4 12.4477 4 13V19C4 19.5523 4.44772 20 5 20H7ZM9 20H17.3308C17.8141 20 18.2283 19.6544 18.3147 19.1789L19.5874 12.1789C19.6991 11.565 19.2275 11 18.6036 11H16C14.8954 11 14 10.1046 14 9V6.00914L14 6.00794C13.9996 6.0007 13.9988 5.98428 13.9966 5.96003C13.9923 5.91116 13.9828 5.83283 13.9624 5.7352C13.9211 5.53672 13.8395 5.27996 13.6833 5.03C13.4524 4.66068 12.9847 4.18004 11.9069 4.03994L9 11.1954V20Z" fill="black"/>
</svg>
