<svg width="24" height="24" viewBox="0 0 24 24" fill="none" xmlns="http://www.w3.org/2000/svg">
<path fill-rule="evenodd" clip-rule="evenodd" d="M2.00036 11.9126C2.04855 6.38998 6.56461 1.95207 12.0872 2.00027C17.6099 2.04846 22.0478 6.56451 21.9996 12.0872C21.9514 17.6098 17.4353 22.0477 11.9127 21.9995C6.39008 21.9513 1.95216 17.4353 2.00036 11.9126ZM7.33198 5.50231C8.39096 4.74022 9.64329 4.23086 11 4.06169L11 10.0268C10.2868 10.0653 9.58578 10.1446 8.90006 10.2623C8.68749 8.55079 8.14262 6.94144 7.33198 5.50231ZM6.93884 10.7141C6.79626 9.35958 6.40858 8.07938 5.82122 6.91783C4.70972 8.26752 4.03135 9.98855 4.00103 11.8697C4.9268 11.4021 5.9101 11.0136 6.93884 10.7141ZM4.2443 13.9699C4.32461 13.9496 4.4037 13.9189 4.47975 13.8773C5.25789 13.4518 6.0887 13.0899 6.96233 12.8008C6.83848 14.3043 6.4132 15.7208 5.74738 16.9908C5.04737 16.1149 4.52777 15.089 4.2443 13.9699ZM8.9941 12.2773C9.64649 12.1549 10.3162 12.0714 11 12.0301L11 19.9379C9.60056 19.7634 8.31461 19.2279 7.2372 18.4283C8.29593 16.6116 8.92742 14.5144 8.9941 12.2773ZM13 12.0301V19.9381C14.3973 19.7638 15.684 19.2287 16.7627 18.4282C15.704 16.6116 15.0725 14.5144 15.0059 12.2774C14.3535 12.1549 13.6837 12.0714 13 12.0301ZM17.0376 12.8008C17.1615 14.3044 17.5868 15.7209 18.2526 16.9909C18.9521 16.1158 19.4719 15.0903 19.7556 13.9698C19.6753 13.9495 19.5962 13.9189 19.5202 13.8773C18.7421 13.4518 17.9113 13.0899 17.0376 12.8008ZM19.999 11.8697C19.0732 11.4021 18.0899 11.0136 17.0611 10.7141C17.2037 9.35961 17.5914 8.07943 18.1787 6.91791C19.2918 8.26975 19.9693 9.9924 19.999 11.8697ZM15.0999 10.2623C14.4142 10.1446 13.7132 10.0653 13 10.0268V4.06187C14.3586 4.23131 15.6103 4.74093 16.668 5.50221C15.8574 6.94137 15.3125 8.55075 15.0999 10.2623Z" fill="black"/>
</svg>
