<svg width="24" height="24" viewBox="0 0 24 24" fill="none" xmlns="http://www.w3.org/2000/svg">
<path fill-rule="evenodd" clip-rule="evenodd" d="M11.6061 2.08085C11.8576 1.97305 12.1424 1.97305 12.3939 2.08085L19.3939 5.08085C19.7616 5.23843 20 5.59997 20 6V12C20 14.9441 17.9677 17.4482 16.1805 19.1078C15.2608 19.9617 14.3455 20.6478 13.6619 21.1198C13.3192 21.3564 13.0324 21.5409 12.8292 21.6673C12.7276 21.7306 12.6467 21.7794 12.5901 21.8132C12.5618 21.83 12.5395 21.8431 12.5237 21.8523L12.5049 21.8632L12.4993 21.8665L12.4974 21.8675C12.4974 21.8675 12.4961 21.8682 12 21C11.5039 21.8682 11.5033 21.8679 11.5033 21.8679L11.5007 21.8665L11.4951 21.8632L11.4763 21.8523C11.4605 21.8431 11.4382 21.83 11.4099 21.8132C11.3533 21.7794 11.2724 21.7306 11.1708 21.6673C10.9676 21.5409 10.6808 21.3564 10.3381 21.1198C9.6545 20.6478 8.73919 19.9617 7.81955 19.1078C6.03229 17.4482 4 14.9441 4 12V6.00029C4 5.60026 4.2384 5.23843 4.60608 5.08085L11.6061 2.08085ZM6 6.6594V12C6 14.0559 7.46771 16.0518 9.18045 17.6422C10.0108 18.4133 10.8455 19.0397 11.4744 19.474C11.6735 19.6114 11.851 19.7289 12 19.8251C12.149 19.7289 12.3265 19.6114 12.5256 19.474C13.1545 19.0397 13.9892 18.4133 14.8195 17.6422C16.5323 16.0518 18 14.0559 18 12V6.6594L12 4.08797L6 6.6594ZM12 21L11.5033 21.8679C11.8108 22.0436 12.1887 22.0439 12.4961 21.8682L12 21Z" fill="black"/>
</svg>
