<svg width="24" height="24" viewBox="0 0 24 24" fill="none" xmlns="http://www.w3.org/2000/svg">
<path d="M8.29289 6.70714C8.68342 7.09766 9.31658 7.09766 9.70711 6.70714L11.0001 5.41418V11.0001H5.41417L6.70712 9.70711C7.09765 9.31658 7.09765 8.68342 6.70712 8.29289C6.3166 7.90237 5.68343 7.90237 5.29291 8.29289L2.29289 11.2929C2.19167 11.3941 2.11668 11.5117 2.06793 11.637C2.02407 11.7496 2 11.872 2 12.0001C2 12.1438 2.03034 12.2805 2.08497 12.4041C2.12378 12.492 2.17589 12.5755 2.24128 12.6515C2.25953 12.6727 2.27865 12.6932 2.29859 12.7128L5.29291 15.7071C5.68343 16.0977 6.3166 16.0977 6.70712 15.7071C7.09765 15.3166 7.09765 14.6834 6.70712 14.2929L5.41426 13.0001H11.0001V18.5858L9.70711 17.2929C9.31658 16.9024 8.68342 16.9024 8.29289 17.2929C7.90237 17.6834 7.90237 18.3166 8.29289 18.7071L11.2929 21.7071C11.3941 21.8083 11.5117 21.8833 11.637 21.9321C11.7469 21.9749 11.8661 21.9988 11.9908 22C11.9939 22 11.997 22 12.0001 22L12.003 22C12.1454 21.9996 12.2809 21.9694 12.4034 21.9154C12.492 21.8763 12.5761 21.8238 12.6526 21.7578C12.6734 21.7399 12.6935 21.7211 12.7128 21.7015L15.7071 18.7071C16.0977 18.3166 16.0977 17.6834 15.7071 17.2929C15.3166 16.9024 14.6834 16.9024 14.2929 17.2929L13.0001 18.5858V13.0001H18.5857L17.2929 14.2929C16.9024 14.6834 16.9024 15.3166 17.2929 15.7071C17.6834 16.0977 18.3166 16.0977 18.7071 15.7071L21.7015 12.7128C21.7211 12.6935 21.7399 12.6734 21.7578 12.6526C21.8238 12.5761 21.8763 12.492 21.9153 12.4034C21.9694 12.2809 21.9996 12.1454 22 12.003L22 12.0001L22 11.9908C21.9988 11.8661 21.9749 11.7469 21.9321 11.637C21.8833 11.5117 21.8083 11.3941 21.7071 11.2929L18.7071 8.29289C18.3166 7.90237 17.6834 7.90237 17.2929 8.29289C16.9024 8.68342 16.9024 9.31658 17.2929 9.70711L18.5858 11.0001H13.0001V5.41427L14.2929 6.70714C14.6834 7.09766 15.3166 7.09766 15.7071 6.70714C16.0977 6.31661 16.0977 5.68345 15.7071 5.29292L12.7128 2.29859C12.6932 2.2787 12.6728 2.25964 12.6517 2.24144C12.5756 2.17595 12.492 2.12379 12.404 2.08495C12.2805 2.03034 12.1438 2.00002 12.0001 2.00002C11.872 2.00002 11.7496 2.02408 11.637 2.06794C11.5117 2.11669 11.3941 2.19168 11.2929 2.29291L8.29289 5.29292C7.90237 5.68345 7.90237 6.31661 8.29289 6.70714Z" fill="black"/>
</svg>
