<svg width="24" height="24" viewBox="0 0 24 24" fill="none" xmlns="http://www.w3.org/2000/svg">
<path fill-rule="evenodd" clip-rule="evenodd" d="M14 6C14 3.79086 15.7909 2 18 2C20.2091 2 22 3.79086 22 6C22 8.20914 20.2091 10 18 10C16.7834 10 15.6937 9.4569 14.9601 8.59993L9.80071 10.7497C9.93004 11.1431 10 11.5634 10 12C10 12.4366 9.93004 12.8569 9.80071 13.2503L14.9601 15.4001C15.6937 14.5431 16.7834 14 18 14C20.2091 14 22 15.7909 22 18C22 20.2091 20.2091 22 18 22C15.7909 22 14 20.2091 14 18C14 17.726 14.0275 17.4585 14.08 17.2L8.6947 14.9561C7.98376 15.6046 7.03806 16 6 16C3.79086 16 2 14.2091 2 12C2 9.79086 3.79086 8 6 8C7.03806 8 7.98376 8.39542 8.6947 9.04385L14.08 6.79998C14.0275 6.5415 14 6.27396 14 6ZM18 4C16.8954 4 16 4.89543 16 6C16 7.10457 16.8954 8 18 8C19.1046 8 20 7.10457 20 6C20 4.89543 19.1046 4 18 4ZM18 16C16.8954 16 16 16.8954 16 18C16 19.1046 16.8954 20 18 20C19.1046 20 20 19.1046 20 18C20 16.8954 19.1046 16 18 16ZM4 12C4 10.8954 4.89543 10 6 10C7.10457 10 8 10.8954 8 12C8 13.1046 7.10457 14 6 14C4.89543 14 4 13.1046 4 12Z" fill="black"/>
</svg>
