<svg width="24" height="24" viewBox="0 0 24 24" fill="none" xmlns="http://www.w3.org/2000/svg">
<path d="M20 17C20 16.4477 20.4477 16 21 16C21.5523 16 22 16.4477 22 17V19C22 20.6569 20.6569 22 19 22H17C16.4477 22 16 21.5523 16 21C16 20.4477 16.4477 20 17 20H19C19.5523 20 20 19.5523 20 19V17Z" fill="black"/>
<path d="M3 8C3.55228 8 4 7.55228 4 7V5C4 4.44772 4.44772 4 5 4H7C7.55228 4 8 3.55228 8 3C8 2.44772 7.55228 2 7 2H5C3.34315 2 2 3.34315 2 5V7C2 7.55228 2.44772 8 3 8Z" fill="black"/>
<path d="M3 16C3.55228 16 4 16.4477 4 17V19C4 19.5523 4.44772 20 5 20H7C7.55228 20 8 20.4477 8 21C8 21.5523 7.55228 22 7 22H5C3.34315 22 2 20.6569 2 19V17C2 16.4477 2.44772 16 3 16Z" fill="black"/>
<path d="M21 8C20.4477 8 20 7.55228 20 7V5C20 4.44772 19.5523 4 19 4H17C16.4477 4 16 3.55228 16 3C16 2.44772 16.4477 2 17 2H19C20.6569 2 22 3.34315 22 5V7C22 7.55228 21.5523 8 21 8Z" fill="black"/>
<path fill-rule="evenodd" clip-rule="evenodd" d="M6 5C5.44772 5 5 5.44772 5 6V9C5 9.55228 5.44772 10 6 10H9C9.55228 10 10 9.55228 10 9V6C10 5.44772 9.55228 5 9 5H6ZM7 8V7H8V8H7Z" fill="black"/>
<path fill-rule="evenodd" clip-rule="evenodd" d="M5 15C5 14.4477 5.44772 14 6 14H9C9.55228 14 10 14.4477 10 15V18C10 18.5523 9.55228 19 9 19H6C5.44772 19 5 18.5523 5 18V15ZM7 16V17H8V16H7Z" fill="black"/>
<path d="M5.25 11C5.11193 11 5 11.1119 5 11.25V12.75C5 12.8881 5.11193 13 5.25 13H6.75C6.88807 13 7 12.8881 7 12.75V11.25C7 11.1119 6.88807 11 6.75 11H5.25Z" fill="black"/>
<path d="M11 5.25C11 5.11193 11.1119 5 11.25 5H12.75C12.8881 5 13 5.11193 13 5.25V7.75C13 7.88807 12.8881 8 12.75 8H11.25C11.1119 8 11 7.88807 11 7.75V5.25Z" fill="black"/>
<path d="M19 14.25V18.75C19 18.8881 18.8881 19 18.75 19H17.25C17.1119 19 17 18.8881 17 18.75V16H14.25C14.1119 16 14 15.8881 14 15.75V14.25C14 14.1119 14.1119 14 14.25 14H18.75C18.8881 14 19 14.1119 19 14.25Z" fill="black"/>
<path d="M13.25 17C13.1119 17 13 17.1119 13 17.25V18.75C13 18.8881 13.1119 19 13.25 19H14.75C14.8881 19 15 18.8881 15 18.75V17.25C15 17.1119 14.8881 17 14.75 17H13.25Z" fill="black"/>
<path d="M16 11.25C16 11.1119 16.1119 11 16.25 11H18.75C18.8881 11 19 11.1119 19 11.25V12.75C19 12.8881 18.8881 13 18.75 13H16.25C16.1119 13 16 12.8881 16 12.75V11.25Z" fill="black"/>
<path d="M9.25 11C9.11193 11 9 11.1119 9 11.25V12.75C9 12.8881 9.11193 13 9.25 13H13.75C13.8881 13 14 12.8881 14 12.75V11.25C14 11.1119 13.8881 11 13.75 11H9.25Z" fill="black"/>
<path d="M11 14.25C11 14.1119 11.1119 14 11.25 14H12.75C12.8881 14 13 14.1119 13 14.25V16.75C13 16.8881 12.8881 17 12.75 17H11.25C11.1119 17 11 16.8881 11 16.75V14.25Z" fill="black"/>
<path fill-rule="evenodd" clip-rule="evenodd" d="M15.1 5C14.4925 5 14 5.49249 14 6.1V8.9C14 9.50751 14.4925 10 15.1 10H17.9C18.5075 10 19 9.50751 19 8.9V6.1C19 5.49249 18.5075 5 17.9 5H15.1ZM16 8V7H17V8H16Z" fill="black"/>
</svg>
