<svg width="24" height="24" viewBox="0 0 24 24" fill="none" xmlns="http://www.w3.org/2000/svg">
<path fill-rule="evenodd" clip-rule="evenodd" d="M3.70711 2.29289C3.31658 1.90237 2.68342 1.90237 2.29289 2.29289C1.90237 2.68342 1.90237 3.31658 2.29289 3.70711L5.7842 7.19841C4.69009 8.04264 3.84824 8.9903 3.25337 9.7737C2.87862 10.2672 2.59641 10.7028 2.40607 11.0185C2.31077 11.1765 2.23815 11.3051 2.18815 11.3966C2.16314 11.4423 2.14376 11.4788 2.13001 11.5052L2.11358 11.5369L2.10852 11.5469L2.10678 11.5504L2.10581 11.5523C1.96505 11.8338 1.96518 12.1665 2.10594 12.448L2.1064 12.4489L2.10752 12.4511L2.1106 12.4572L2.12015 12.4759C2.12802 12.4911 2.1389 12.5119 2.15279 12.538C2.18056 12.59 2.22041 12.663 2.27237 12.754C2.3762 12.9357 2.52882 13.1898 2.73044 13.4922C3.13254 14.0954 3.73567 14.8999 4.54288 15.7071C6.15188 17.3161 8.64123 19 12 19C13.7224 19 15.2215 18.5556 16.4895 17.9037L20.2929 21.7071C20.6834 22.0976 21.3166 22.0976 21.7071 21.7071C22.0976 21.3166 22.0976 20.6834 21.7071 20.2929L3.70711 2.29289ZM14.9855 16.3997L14.0318 15.446C13.4363 15.7978 12.7411 16 12 16C9.79086 16 8 14.2091 8 12C8 11.2587 8.20229 10.5636 8.55397 9.96818L7.21248 8.6267C6.19846 9.36813 5.40752 10.244 4.8462 10.9832C4.54153 11.3844 4.30924 11.7392 4.14989 12C4.21798 12.1115 4.29954 12.2403 4.39454 12.3828C4.74243 12.9046 5.2643 13.6001 5.95709 14.2929C7.3481 15.6839 9.35874 17 12 17C13.1084 17 14.1022 16.7693 14.9855 16.3997ZM10.0676 11.4818C10.0235 11.647 10 11.8206 10 12C10 13.1046 10.8954 14 12 14C12.1794 14 12.3531 13.9765 12.5182 13.9324L10.0676 11.4818ZM2.99999 12L2.10594 12.448C2.10594 12.448 2.10556 12.4472 2.99999 12ZM2.99999 12C2.10556 11.5528 2.10581 11.5523 2.10581 11.5523L2.99999 12Z" fill="black"/>
<path d="M12 7C11.8953 7 11.7918 7.00205 11.6894 7.00607C11.1375 7.02774 10.6726 6.59793 10.6509 6.04607C10.6292 5.49421 11.059 5.02928 11.6109 5.00761C11.7394 5.00257 11.8691 5 12 5C15.3587 5 17.8481 6.6839 19.4571 8.29289C20.2643 9.1001 20.8674 9.90464 21.2695 10.5078C21.4711 10.8102 21.6238 11.0643 21.7276 11.246C21.7796 11.337 21.8194 11.41 21.8472 11.462C21.8611 11.4881 21.8719 11.5089 21.8798 11.5241L21.8894 11.5428L21.8925 11.5489L21.894 11.552L21 12L21.8943 12.4475L21.8938 12.4484L21.893 12.45L21.891 12.4541L21.8849 12.466L21.8649 12.5046C21.848 12.5367 21.8241 12.5814 21.7932 12.6374C21.7313 12.7493 21.6411 12.9065 21.5226 13.0984C21.2858 13.4815 20.9337 14.0062 20.4651 14.5854C20.1178 15.0148 19.4881 15.0814 19.0587 14.734C18.6293 14.3867 18.5628 13.757 18.9101 13.3276C19.3165 12.8253 19.6205 12.3717 19.8212 12.047L19.8501 12C19.782 11.8885 19.7004 11.7597 19.6054 11.6172C19.2575 11.0954 18.7357 10.3999 18.0429 9.70711C16.6519 8.3161 14.6412 7 12 7Z" fill="black"/>
<path d="M21.8943 12.4475C21.8943 12.4475 21.8944 12.4472 21 12C21.8944 11.5528 21.894 11.552 21.894 11.552C22.0348 11.8335 22.035 12.166 21.8943 12.4475Z" fill="black"/>
</svg>
