<svg width="24" height="24" viewBox="0 0 24 24" fill="none" xmlns="http://www.w3.org/2000/svg">
<path d="M3.70711 2.29289C3.31658 1.90237 2.68342 1.90237 2.29289 2.29289C1.90237 2.68342 1.90237 3.31658 2.29289 3.70711L4.59897 6.01318C3.8001 6.48251 3.04274 7.02969 2.33876 7.65023C1.92446 8.01542 1.88465 8.64734 2.24985 9.06164C2.61504 9.47595 3.24696 9.51576 3.66126 9.15056C4.40139 8.49816 5.20979 7.93975 6.06806 7.48227L8.27462 9.68884C7.22383 10.0925 6.238 10.6677 5.35999 11.399C4.93563 11.7525 4.87816 12.383 5.23162 12.8074C5.58508 13.2318 6.21563 13.2892 6.63999 12.9358C7.586 12.1478 8.68712 11.5844 9.86114 11.2754L12.6222 14.0365C12.4018 14.0123 12.1794 14 11.956 14C10.6891 14 9.45362 14.3942 8.42082 15.128C7.97059 15.4478 7.86491 16.0721 8.18478 16.5223C8.50464 16.9726 9.12893 17.0782 9.57915 16.7584C10.2735 16.265 11.1042 16 11.956 16C12.8078 16 13.6385 16.265 14.3329 16.7584C14.6584 16.9896 15.0747 16.9985 15.4014 16.8156L20.2929 21.7071C20.6834 22.0976 21.3166 22.0976 21.7071 21.7071C22.0976 21.3166 22.0976 20.6834 21.7071 20.2929L3.70711 2.29289Z" fill="black"/>
<path d="M12 6C11.5956 6 11.1931 6.01943 10.7936 6.05781C10.2439 6.11063 9.75541 5.70779 9.70259 5.15803C9.64977 4.60828 10.0526 4.1198 10.6024 4.06698C11.0652 4.02251 11.5315 4 12 4C15.5574 4 18.9926 5.29789 21.6613 7.65023C22.0756 8.01542 22.1154 8.64734 21.7502 9.06164C21.385 9.47595 20.7531 9.51576 20.3388 9.15056C18.0354 7.12023 15.0705 6 12 6Z" fill="black"/>
<path d="M15.3619 10.5721C15.6135 10.0805 16.2161 9.88591 16.7077 10.1375C17.3845 10.4839 18.0254 10.906 18.6173 11.399C19.0417 11.7525 19.0991 12.383 18.7457 12.8074C18.3922 13.2318 17.7617 13.2892 17.3373 12.9358C16.8597 12.5379 16.3426 12.1974 15.7965 11.9179C15.3048 11.6663 15.1103 11.0637 15.3619 10.5721Z" fill="black"/>
<path d="M13 20C13 20.5523 12.5523 21 12 21C11.4477 21 11 20.5523 11 20C11 19.4477 11.4477 19 12 19C12.5523 19 13 19.4477 13 20Z" fill="black"/>
</svg>
