<svg width="24" height="24" viewBox="0 0 24 24" fill="none" xmlns="http://www.w3.org/2000/svg">
<path fill-rule="evenodd" clip-rule="evenodd" d="M11 6C9.89543 6 9 6.89543 9 8V9H8C6.89543 9 6 9.89543 6 11V13C6 14.1046 6.89543 15 8 15H9V16C9 17.1046 9.89543 18 11 18H13C14.1046 18 15 17.1046 15 16V15H16C17.1046 15 18 14.1046 18 13V11C18 9.89543 17.1046 9 16 9H15V8C15 6.89543 14.1046 6 13 6H11ZM10 11C10.5523 11 11 10.5523 11 10V8H13V10C13 10.5523 13.4477 11 14 11H16V13H14C13.4477 13 13 13.4477 13 14V16H11V14C11 13.4477 10.5523 13 10 13H8V11H10Z" fill="black"/>
<path fill-rule="evenodd" clip-rule="evenodd" d="M12 2C6.47715 2 2 6.47715 2 12C2 17.5228 6.47715 22 12 22C17.5228 22 22 17.5228 22 12C22 6.47715 17.5228 2 12 2ZM4 12C4 7.58172 7.58172 4 12 4C16.4183 4 20 7.58172 20 12C20 16.4183 16.4183 20 12 20C7.58172 20 4 16.4183 4 12Z" fill="black"/>
</svg>
