<svg width="24" height="24" viewBox="0 0 24 24" fill="none" xmlns="http://www.w3.org/2000/svg">
<path d="M2.06796 15.637C2.0241 15.7495 2.00003 15.872 2.00003 16C2.00003 16.2489 2.09092 16.4765 2.24131 16.6515C2.25956 16.6727 2.27868 16.6932 2.29862 16.7128L7.29294 21.7071C7.68346 22.0976 8.31663 22.0976 8.70715 21.7071C9.09768 21.3166 9.09768 20.6834 8.70715 20.2929L5.41429 17H17C19.7615 17 22 14.7615 22 12V3.00003C22 2.44775 21.5523 2.00003 21 2.00003C20.4477 2.00003 20 2.44775 20 3.00003V12C20 13.6569 18.6569 15 17 15H5.4142L8.70715 11.7071C9.09768 11.3166 9.09768 10.6834 8.70715 10.2929C8.31663 9.90234 7.68346 9.90234 7.29294 10.2929L2.29292 15.2929C2.1917 15.3941 2.11671 15.5116 2.06796 15.637Z" fill="black"/>
</svg>
