<svg width="24" height="24" viewBox="0 0 24 24" fill="none" xmlns="http://www.w3.org/2000/svg">
<path fill-rule="evenodd" clip-rule="evenodd" d="M4.72899 4.02871C5.08173 3.39378 5.75097 3 6.4773 3H17.5227C18.2491 3 18.9183 3.39378 19.271 4.02871L22.0488 9.02871C22.668 10.1433 22.0956 11.4712 21 11.8766V20C21 20.5523 20.5523 21 20 21C19.4477 21 19 20.5523 19 20V12H17V17C17 17.5523 16.5523 18 16 18C15.4477 18 15 17.5523 15 17V12H9.00002V17C9.00002 17.5523 8.55231 18 8.00002 18C7.44774 18 7.00002 17.5523 7.00002 17V12H5.00002V20C5.00002 20.5523 4.55231 21 4.00002 21C3.44774 21 3.00002 20.5523 3.00002 20V11.8766C1.90439 11.4713 1.33199 10.1433 1.95121 9.02871L4.72899 4.02871ZM20.3005 10L17.5227 5H6.4773L3.69952 10L20.3005 10Z" fill="black"/>
</svg>
