<svg width="24" height="24" viewBox="0 0 24 24" fill="none" xmlns="http://www.w3.org/2000/svg">
<path d="M9.58319 4.46386C10.329 4.16495 11.144 4 12 4C12.6019 4 13.1831 4.08153 13.7339 4.23358C14.2663 4.38051 14.817 4.06805 14.964 3.53567C15.1109 3.00329 14.7984 2.45259 14.2661 2.30566C13.5435 2.10623 12.7833 2 12 2C10.8849 2 9.81754 2.21526 8.83911 2.60743C8.32647 2.8129 8.07746 3.39505 8.28293 3.90769C8.48841 4.42033 9.07055 4.66933 9.58319 4.46386Z" fill="black"/>
<path d="M17.1006 3.69988C16.659 3.36819 16.0321 3.45728 15.7004 3.89887C15.3687 4.34046 15.4578 4.96733 15.8994 5.29902C17.4805 6.48658 18.5 8.37408 18.5 10.5V14C18.5 14.5523 18.9477 15 19.5 15C20.0523 15 20.5 14.5523 20.5 14V10.5C20.5 7.71846 19.1629 5.24894 17.1006 3.69988Z" fill="black"/>
<path d="M11.671 7.01519C11.779 7.00516 11.8888 7 12 7C13.933 7 15.5 8.567 15.5 10.5C15.5 11.0523 15.9477 11.5 16.5 11.5C17.0523 11.5 17.5 11.0523 17.5 10.5C17.5 7.46243 15.0376 5 12 5C11.8269 5 11.6555 5.00802 11.486 5.02377C10.9361 5.07485 10.5317 5.56206 10.5828 6.11198C10.6339 6.6619 11.1211 7.06628 11.671 7.01519Z" fill="black"/>
<path d="M6.12362 7.53783C6.11905 7.65939 6.09207 7.78216 6.04042 7.90037C5.69315 8.69518 5.5 9.57372 5.5 10.5V14C5.5 14.5523 5.05228 15 4.5 15C3.94772 15 3.5 14.5523 3.5 14V10.5C3.5 9.29297 3.75219 8.1422 4.20771 7.09963C4.36644 6.73634 4.715 6.51479 5.08627 6.50048L2.29289 3.70711C1.90237 3.31658 1.90237 2.68342 2.29289 2.29289C2.68342 1.90237 3.31658 1.90237 3.70711 2.29289L21.7071 20.2929C22.0976 20.6834 22.0976 21.3166 21.7071 21.7071C21.3166 22.0976 20.6834 22.0976 20.2929 21.7071L15.4127 16.827C15.569 17.1761 15.5167 17.5996 15.2451 17.903C14.8768 18.3145 14.2446 18.3496 13.8331 17.9812C13.0164 17.2502 12.5 16.1848 12.5 15V14C12.5 13.9722 12.5011 13.9447 12.5033 13.9176L11.5 12.9142V15C11.5 15.4941 11.573 15.979 11.7121 16.441C11.8713 16.9698 11.5716 17.5276 11.0428 17.6868C10.514 17.846 9.9562 17.5464 9.79699 17.0175C9.6022 16.3705 9.5 15.6915 9.5 15V11.5C9.5 11.3305 9.54219 11.1708 9.61665 11.0309L8.54187 9.95609C8.51431 10.1331 8.5 10.3148 8.5 10.5V14.8102C8.5 15.3625 8.05228 15.8102 7.5 15.8102C6.94772 15.8102 6.5 15.3625 6.5 14.8102V10.5C6.5 9.73863 6.65525 9.01161 6.9362 8.35042L6.12362 7.53783Z" fill="black"/>
<path d="M8.94325 17.4039C8.75984 16.883 8.18885 16.6094 7.66791 16.7928C7.14697 16.9762 6.87334 17.5472 7.05675 18.0681C7.44174 19.1616 8.02039 20.1865 8.77381 21.0906L9.23178 21.6402C9.58534 22.0645 10.2159 22.1218 10.6402 21.7682C11.0645 21.4147 11.1218 20.7841 10.7682 20.3598L10.3102 19.8102C9.71043 19.0905 9.24976 18.2746 8.94325 17.4039Z" fill="black"/>
<path d="M13.5 19C13.0582 18.6686 12.4314 18.7582 12.1 19.2C11.7686 19.6418 11.8582 20.2686 12.3 20.6L13.9 21.8C14.3418 22.1314 14.9686 22.0418 15.3 21.6C15.6314 21.1582 15.5418 20.5314 15.1 20.2L13.5 19Z" fill="black"/>
</svg>
