<svg width="24" height="24" viewBox="0 0 24 24" fill="none" xmlns="http://www.w3.org/2000/svg">
<path fill-rule="evenodd" clip-rule="evenodd" d="M12 3C12.3973 3 12.7569 3.23519 12.9161 3.59918L19.9161 19.5992C20.0805 19.975 19.9988 20.4131 19.7099 20.7043C19.421 20.9955 18.9836 21.0807 18.6065 20.9193L12 18.0916L5.39345 20.9193C5.01635 21.0807 4.57893 20.9955 4.29004 20.7043C4.00115 20.4131 3.9194 19.975 4.08381 19.5992L11.0838 3.59918C11.2431 3.23519 11.6027 3 12 3ZM12 6.49489L6.9285 18.0868L11.6065 16.0846C11.8578 15.977 12.1422 15.977 12.3935 16.0846L17.0714 18.0868L12 6.49489Z" fill="black"/>
</svg>
