<svg width="24" height="24" viewBox="0 0 24 24" fill="none" xmlns="http://www.w3.org/2000/svg">
<path fill-rule="evenodd" clip-rule="evenodd" d="M6 2C4.34315 2 3 3.34315 3 5V19C3 20.6569 4.34315 22 6 22H18C19.6569 22 21 20.6569 21 19V9.8C21 9.02967 20.7037 8.28886 20.1724 7.73103L15.601 2.93103C15.0348 2.33649 14.2496 2 13.4286 2H6ZM5 5C5 4.44772 5.44772 4 6 4H12V10C12 10.5523 12.4477 11 13 11H19V19C19 19.5523 18.5523 20 18 20H6C5.44772 20 5 19.5523 5 19V5ZM18.619 9L14.1527 4.31034C14.106 4.26127 14.0548 4.21747 14 4.17934V9H18.619Z" fill="black"/>
</svg>
