<svg width="24" height="24" viewBox="0 0 24 24" fill="none" xmlns="http://www.w3.org/2000/svg">
<path fill-rule="evenodd" clip-rule="evenodd" d="M12 2C9.79082 2 7.99996 3.79086 7.99996 6V10C7.99996 12.2091 9.79082 14 12 14C14.2091 14 16 12.2091 16 10V6C16 3.79086 14.2091 2 12 2ZM9.99996 6C9.99996 4.89543 10.8954 4 12 4C13.1045 4 14 4.89543 14 6V10C14 11.1046 13.1045 12 12 12C10.8954 12 9.99996 11.1046 9.99996 10V6Z" fill="black"/>
<path d="M6.24829 11.7148C6.09075 11.1854 5.53393 10.884 5.00459 11.0416C4.47525 11.1991 4.17385 11.7559 4.33138 12.2853C5.22298 15.2811 7.82193 17.5427 11.0018 17.9384C11.0006 17.9588 11 17.9793 11 18V20H7.99996C7.44768 20 6.99996 20.4477 6.99996 21C6.99996 21.5523 7.44768 22 7.99996 22H16C16.5522 22 17 21.5523 17 21C17 20.4477 16.5522 20 16 20H13V18C13 17.9793 12.9993 17.9588 12.9981 17.9384C16.178 17.5427 18.7769 15.2811 19.6685 12.2853C19.8261 11.7559 19.5247 11.1991 18.9953 11.0416C18.466 10.884 17.9092 11.1854 17.7516 11.7148C17.0138 14.1939 14.7165 16 12 16C9.28342 16 6.98612 14.1939 6.24829 11.7148Z" fill="black"/>
</svg>
