<svg width="24" height="24" viewBox="0 0 24 24" fill="none" xmlns="http://www.w3.org/2000/svg">
<path fill-rule="evenodd" clip-rule="evenodd" d="M19.9706 4.29292C19.6896 4.01199 19.269 3.92401 18.8991 4.06879L2.6356 10.4327C2.24529 10.5855 1.99163 10.9654 2.00021 11.3845C2.00879 11.8035 2.27778 12.1727 2.67402 12.3094L9.57465 14.6888L11.9541 21.5895C12.0908 21.9857 12.46 22.2547 12.879 22.2633C13.2981 22.2719 13.678 22.0182 13.8307 21.6279L20.1947 5.36443C20.3395 4.99445 20.2515 4.57385 19.9706 4.29292ZM17.4993 6.76418L12.9588 18.3678L11.3066 13.5763C11.2063 13.2856 10.9779 13.0571 10.6872 12.9569L5.89573 11.3047L17.4993 6.76418Z" fill="black"/>
</svg>
