<svg width="24" height="24" viewBox="0 0 24 24" fill="none" xmlns="http://www.w3.org/2000/svg">
<path d="M2.29289 2.29289C2.68342 1.90237 3.31658 1.90237 3.70711 2.29289L21.7071 20.2929C22.0976 20.6834 22.0976 21.3166 21.7071 21.7071C21.3167 22.0975 20.6838 22.0976 20.2932 21.7074C19.9015 21.8948 19.4626 22 19 22H17C16.4477 22 16 21.5523 16 21C16 20.4477 16.4477 20 17 20H18.5858L17.5858 19H17.25C17.1119 19 17 18.8881 17 18.75V18.4142L14.5858 16H14.25C14.1119 16 14 15.8881 14 15.75V15.4142L13 14.4142V16.75C13 16.8881 12.8881 17 12.75 17H11.25C11.1119 17 11 16.8881 11 16.75V14.25C11 14.1119 11.1119 14 11.25 14H12.5858L11.5858 13H9.25C9.11193 13 9 12.8881 9 12.75V11.25C9 11.1119 9.11193 11 9.25 11H9.58579L8.58579 10H6C5.44772 10 5 9.55228 5 9V6.41421L4 5.41421V6.99998C4 7.55227 3.55228 7.99998 3 7.99998C2.44772 7.99998 2 7.55227 2 6.99998V4.99998C2 4.53762 2.10513 4.09866 2.29256 3.70677C1.90237 3.31622 1.90248 2.68331 2.29289 2.29289Z" fill="black"/>
<path d="M20 7C20 7.55228 20.4477 8 21 8C21.5523 8 22 7.55228 22 7V5C22 3.34315 20.6569 2 19 2H17C16.4477 2 16 2.44772 16 3C16 3.55228 16.4477 4 17 4H19C19.5523 4 20 4.44772 20 5V7Z" fill="black"/>
<path d="M2 19C2 20.6569 3.34315 22 5 22H7C7.55228 22 8 21.5523 8 21C8 20.4477 7.55228 20 7 20H5C4.44772 20 4 19.5523 4 19V17C4 16.4477 3.55228 16 3 16C2.44772 16 2 16.4477 2 17V19Z" fill="black"/>
<path fill-rule="evenodd" clip-rule="evenodd" d="M5 15C5 14.4477 5.44772 14 6 14H9C9.55228 14 10 14.4477 10 15V18C10 18.5523 9.55228 19 9 19H6C5.44772 19 5 18.5523 5 18V15ZM7 16V17H8V16H7Z" fill="black"/>
<path d="M5.25 11C5.11193 11 5 11.1119 5 11.25V12.75C5 12.8881 5.11193 13 5.25 13H6.75C6.88807 13 7 12.8881 7 12.75V11.25C7 11.1119 6.88807 11 6.75 11H5.25Z" fill="black"/>
<path d="M11 5.25C11 5.11193 11.1119 5 11.25 5H12.75C12.8881 5 13 5.11193 13 5.25V6.75C13 6.88807 12.8881 7 12.75 7H11.25C11.1119 7 11 6.88807 11 6.75V5.25Z" fill="black"/>
<path d="M13.25 17C13.1119 17 13 17.1119 13 17.25V18.75C13 18.8881 13.1119 19 13.25 19H14.75C14.8881 19 15 18.8881 15 18.75V17.25C15 17.1119 14.8881 17 14.75 17H13.25Z" fill="black"/>
<path d="M17 11.25C17 11.1119 17.1119 11 17.25 11H18.75C18.8881 11 19 11.1119 19 11.25V12.75C19 12.8881 18.8881 13 18.75 13H17.25C17.1119 13 17 12.8881 17 12.75V11.25Z" fill="black"/>
<path fill-rule="evenodd" clip-rule="evenodd" d="M15.1 5C14.4925 5 14 5.49249 14 6.1V8.9C14 9.50751 14.4925 10 15.1 10H17.9C18.5075 10 19 9.50751 19 8.9V6.1C19 5.49249 18.5075 5 17.9 5H15.1ZM16 8V7H17V8H16Z" fill="black"/>
</svg>
