<svg width="24" height="24" viewBox="0 0 24 24" fill="none" xmlns="http://www.w3.org/2000/svg">
<path fill-rule="evenodd" clip-rule="evenodd" d="M5 4C3.34315 4 2 5.34315 2 7V7.98554C1.99988 7.99457 1.99988 8.0036 2 8.01262V17C2 18.6569 3.34315 20 5 20H19C20.6569 20 22 18.6569 22 17V8.01469C22.0002 8.00429 22.0002 7.99388 22 7.98347V7C22 5.34315 20.6569 4 19 4H5ZM20 7.46483V7C20 6.44772 19.5523 6 19 6H5C4.44772 6 4 6.44772 4 7V7.46481L12 12.7981L20 7.46483ZM4 9.86851V17C4 17.5523 4.44772 18 5 18H19C19.5523 18 20 17.5523 20 17V9.86853L12.5547 14.8321C12.2188 15.056 11.7812 15.056 11.4453 14.8321L4 9.86851Z" fill="black"/>
</svg>
