<svg width="24" height="24" viewBox="0 0 24 24" fill="none" xmlns="http://www.w3.org/2000/svg">
<path d="M12 13C11.4477 13 11 12.5523 11 12V7C11 6.44772 11.4477 6 12 6C12.5523 6 13 6.44772 13 7V12C13 12.5523 12.5523 13 12 13Z" fill="black"/>
<path d="M12 17C12.5523 17 13 16.5523 13 16C13 15.4477 12.5523 15 12 15C11.4477 15 11 15.4477 11 16C11 16.5523 11.4477 17 12 17Z" fill="black"/>
<path fill-rule="evenodd" clip-rule="evenodd" d="M6.97919 2.87868C7.54179 2.31607 8.30486 2 9.10051 2H14.8995C15.6951 2 16.4582 2.31607 17.0208 2.87868L21.1213 6.97919C21.6839 7.54179 22 8.30486 22 9.10051V14.8995C22 15.6951 21.6839 16.4582 21.1213 17.0208L17.0208 21.1213C16.4582 21.6839 15.6951 22 14.8995 22H9.10051C8.30486 22 7.54179 21.6839 6.97919 21.1213L2.87868 17.0208C2.31607 16.4582 2 15.6951 2 14.8995V9.10051C2 8.30486 2.31607 7.54179 2.87868 6.97919L6.97919 2.87868ZM9.10051 4C8.83529 4 8.58094 4.10536 8.3934 4.29289L4.29289 8.3934C4.10536 8.58093 4 8.83529 4 9.10051V14.8995C4 15.1647 4.10536 15.4191 4.29289 15.6066L8.3934 19.7071C8.58093 19.8946 8.83529 20 9.10051 20H14.8995C15.1647 20 15.4191 19.8946 15.6066 19.7071L19.7071 15.6066C19.8946 15.4191 20 15.1647 20 14.8995V9.10051C20 8.83529 19.8946 8.58094 19.7071 8.3934L15.6066 4.29289C15.4191 4.10536 15.1647 4 14.8995 4L9.10051 4Z" fill="black"/>
</svg>
