<svg width="24" height="24" viewBox="0 0 24 24" fill="none" xmlns="http://www.w3.org/2000/svg">
<path fill-rule="evenodd" clip-rule="evenodd" d="M13.0726 9.49737C13.4675 9.10247 14.1077 9.10247 14.5026 9.49737C16.4772 11.4719 16.4772 14.6732 14.5026 16.6478L10.6313 20.5191C8.65675 22.4936 5.45542 22.4936 3.48089 20.5191C1.50637 18.5446 1.50637 15.3433 3.48089 13.3687L4.19593 12.6537C4.59084 12.2588 5.2311 12.2588 5.62601 12.6537C6.02091 13.0486 6.02091 13.6889 5.62601 14.0838L4.91097 14.7988C3.72625 15.9835 3.72625 17.9043 4.91097 19.089C6.09568 20.2738 8.01648 20.2738 9.2012 19.089L13.0726 15.2177C14.2573 14.033 14.2573 12.1122 13.0726 10.9275C12.6777 10.5325 12.6777 9.89228 13.0726 9.49737Z" fill="black"/>
<path fill-rule="evenodd" clip-rule="evenodd" d="M10.9274 14.5026C10.5325 14.8975 9.89226 14.8975 9.49736 14.5026C7.52283 12.5281 7.52283 9.32678 9.49736 7.35226L13.3687 3.48089C15.3432 1.50637 18.5446 1.50637 20.5191 3.48089C22.4936 5.45542 22.4936 8.65675 20.5191 10.6313L19.8041 11.3463C19.4092 11.7412 18.7689 11.7412 18.374 11.3463C17.9791 10.9514 17.9791 10.3111 18.374 9.91623L19.089 9.2012C20.2737 8.01648 20.2737 6.09568 19.089 4.91097C17.9043 3.72625 15.9835 3.72625 14.7988 4.91097L10.9274 8.78234C9.74272 9.96705 9.74272 11.8879 10.9274 13.0726C11.3223 13.4675 11.3223 14.1077 10.9274 14.5026Z" fill="black"/>
</svg>
