<svg width="24" height="24" viewBox="0 0 24 24" fill="none" xmlns="http://www.w3.org/2000/svg">
<path fill-rule="evenodd" clip-rule="evenodd" d="M3.70711 2.29289C3.31658 1.90237 2.68342 1.90237 2.29289 2.29289C1.90237 2.68342 1.90237 3.31658 2.29289 3.70711L4.6108 6.02501C3.13781 6.21583 2 7.47504 2 9V18C2 19.6569 3.34315 21 5 21H19.5858L20.2929 21.7071C20.6834 22.0976 21.3166 22.0976 21.7071 21.7071C22.0976 21.3166 22.0976 20.6834 21.7071 20.2929L3.70711 2.29289ZM17.5858 19L14.6137 16.0279C13.9132 16.633 12.9997 17 12 17C9.79086 17 8 15.2091 8 13C8 12.0004 8.36709 11.0868 8.9721 10.3863L6.58579 8H5C4.44772 8 4 8.44772 4 9V18C4 18.5523 4.44772 19 5 19H17.5858ZM10.3937 11.8079C10.1459 12.1413 10 12.5537 10 13C10 14.1046 10.8954 15 12 15C12.4463 15 12.8587 14.8541 13.1921 14.6063L10.3937 11.8079Z" fill="black"/>
<path d="M8.5 4C8.5 3.44772 8.94772 3 9.5 3H13.5585C14.8498 3 15.9962 3.82629 16.4045 5.05132L16.4928 5.31623C16.6289 5.72457 17.0111 6 17.4415 6H19C20.6569 6 22 7.34315 22 9V15.25C22 15.8023 21.5523 16.25 21 16.25C20.4477 16.25 20 15.8023 20 15.25V9C20 8.44772 19.5523 8 19 8H17.4415C16.1502 8 15.0038 7.17371 14.5955 5.94868L14.5072 5.68377C14.3711 5.27543 13.9889 5 13.5585 5H9.5C8.94772 5 8.5 4.55228 8.5 4Z" fill="black"/>
</svg>
