<svg width="24" height="24" viewBox="0 0 24 24" fill="none" xmlns="http://www.w3.org/2000/svg">
<path d="M7.10532 8.05963C7.66025 8.05963 8.11011 7.60977 8.11011 7.05484C8.11011 6.49991 7.66025 6.05005 7.10532 6.05005C6.55038 6.05005 6.10052 6.49991 6.10052 7.05484C6.10052 7.60977 6.55038 8.05963 7.10532 8.05963Z" fill="black"/>
<path fill-rule="evenodd" clip-rule="evenodd" d="M5.00958 2C3.34743 2 2 3.34744 2 5.00958V10.6935C2 11.4917 2.31708 12.2572 2.88149 12.8216L11.1784 21.1185C12.3537 22.2938 14.2592 22.2938 15.4346 21.1185L21.1185 15.4346C22.2938 14.2592 22.2938 12.3537 21.1185 11.1784L12.8216 2.88149C12.2572 2.31708 11.4917 2 10.6935 2H5.00958ZM4 5.00958C4 4.452 4.45201 4 5.00958 4H10.6935C10.9613 4 11.2181 4.10637 11.4074 4.2957L19.7043 12.5926C20.0986 12.9868 20.0986 13.6261 19.7043 14.0203L14.0203 19.7043C13.6261 20.0986 12.9869 20.0986 12.5926 19.7043L4.2957 11.4074C4.10637 11.2181 4 10.9613 4 10.6935V5.00958Z" fill="black"/>
</svg>
