<svg width="24" height="24" viewBox="0 0 24 24" fill="none" xmlns="http://www.w3.org/2000/svg">
<path fill-rule="evenodd" clip-rule="evenodd" d="M9 13.1707C7.83481 13.5825 7 14.6938 7 16C7 17.6569 8.34315 19 10 19C11.6569 19 13 17.6569 13 16C13 14.6938 12.1652 13.5825 11 13.1707V8C11 7.44772 10.5523 7 10 7C9.44772 7 9 7.44772 9 8V13.1707ZM10 15C9.44772 15 9 15.4477 9 16C9 16.5523 9.44772 17 10 17C10.5523 17 11 16.5523 11 16C11 15.4477 10.5523 15 10 15Z" fill="black"/>
<path fill-rule="evenodd" clip-rule="evenodd" d="M6 6C6 3.79086 7.79086 2 10 2C12.2091 2 14 3.79086 14 6V11.4982C14.0005 11.5002 14.0019 11.505 14.0056 11.5128C14.0137 11.5296 14.0308 11.5553 14.0608 11.583C15.2516 12.6782 16 14.2524 16 16C16 19.3137 13.3137 22 10 22C6.68629 22 4 19.3137 4 16C4 14.2524 4.7484 12.6782 5.93916 11.583C5.96922 11.5553 5.98627 11.5296 5.99438 11.5128C5.99815 11.505 5.99954 11.5002 6 11.4982V6ZM10 4C8.89543 4 8 4.89543 8 6V11.5001C8 12.145 7.68992 12.69 7.29309 13.055C6.49678 13.7874 6 14.835 6 16C6 18.2091 7.79086 20 10 20C12.2091 20 14 18.2091 14 16C14 14.835 13.5032 13.7874 12.7069 13.055C12.3101 12.69 12 12.145 12 11.5001V6C12 4.89543 11.1046 4 10 4Z" fill="black"/>
<path d="M15 6C15 5.44772 15.4477 5 16 5H19C19.5523 5 20 5.44772 20 6C20 6.55228 19.5523 7 19 7H16C15.4477 7 15 6.55228 15 6Z" fill="black"/>
<path d="M16 9C15.4477 9 15 9.44772 15 10C15 10.5523 15.4477 11 16 11H19C19.5523 11 20 10.5523 20 10C20 9.44772 19.5523 9 19 9H16Z" fill="black"/>
</svg>
