<svg width="24" height="24" viewBox="0 0 24 24" fill="none" xmlns="http://www.w3.org/2000/svg">
<path d="M14.5 5C14.5 6.10457 13.6046 7 12.5 7C11.3954 7 10.5 6.10457 10.5 5C10.5 3.89543 11.3954 3 12.5 3C13.6046 3 14.5 3.89543 14.5 5Z" fill="black"/>
<path d="M10.7425 7.52986C10.4018 7.44466 10.0413 7.54451 9.79289 7.79289L7.29289 10.2929C7.18312 10.4027 7.10041 10.5365 7.05131 10.6838L6.05131 13.6838C5.87667 14.2077 6.15983 14.774 6.68377 14.9487C7.20771 15.1233 7.77403 14.8402 7.94868 14.3162L8.87403 11.5402L10.2596 10.1546L9.04217 14.2127C9.02784 14.2604 9.0171 14.3092 9.01005 14.3586L8.54213 17.634L6.66795 20.4453C6.36159 20.9048 6.48577 21.5257 6.9453 21.8321C7.40483 22.1384 8.02569 22.0142 8.33205 21.5547L10.332 18.5547C10.4149 18.4305 10.4688 18.2892 10.4899 18.1414L10.745 16.3561L12.0965 17.9779L13.0385 21.2747C13.1902 21.8058 13.7437 22.1132 14.2747 21.9615C14.8058 21.8098 15.1132 21.2563 14.9615 20.7253L13.9615 17.2253C13.9232 17.0913 13.8574 16.9668 13.7682 16.8598L11.2682 13.8598C11.2604 13.8504 11.2524 13.8412 11.2444 13.8322L12.062 11.1069L12.5385 12.7747C12.6235 13.0722 12.8414 13.3136 13.1286 13.4285L15.6286 14.4285C16.1414 14.6336 16.7234 14.3842 16.9285 13.8714C17.1336 13.3586 16.8842 12.7766 16.3714 12.5715L14.3268 11.7537L13.4615 8.72528C13.3633 8.38165 13.0892 8.11653 12.7425 8.02986L10.7425 7.52986Z" fill="black"/>
</svg>
