<svg width="24" height="24" viewBox="0 0 24 24" fill="none" xmlns="http://www.w3.org/2000/svg">
<path d="M8.92412 2.61722C8.87568 2.50014 8.80405 2.3904 8.70922 2.29502L8.70498 2.29078C8.6096 2.19595 8.49986 2.12432 8.38278 2.07588C8.26488 2.02699 8.13559 2 8 2H3C2.44772 2 2 2.44772 2 3C2 3.55228 2.44772 4 3 4H5.70319C5.08743 4.71641 4.46325 5.52014 3.90839 6.38477C2.8599 8.01862 2 9.9605 2 12C2 17.5228 6.47715 22 12 22C17.5228 22 22 17.5228 22 12C22 6.47715 17.5228 2 12 2C11.4477 2 11 2.44772 11 3C11 3.55228 11.4477 4 12 4C16.4183 4 20 7.58172 20 12C20 16.4183 16.4183 20 12 20C7.58172 20 4 16.4183 4 12C4 10.5058 4.6401 8.94766 5.59161 7.46494C6.02376 6.79154 6.50806 6.15226 7 5.5632V8C7 8.55228 7.44772 9 8 9C8.55228 9 9 8.55228 9 8V3C9 2.86441 8.97301 2.73512 8.92412 2.61722Z" fill="black"/>
</svg>
