<svg width="24" height="24" viewBox="0 0 24 24" fill="none" xmlns="http://www.w3.org/2000/svg">
<path fill-rule="evenodd" clip-rule="evenodd" d="M19.4921 4.52144L19.4854 4.5146L19.4785 4.50783L17.3641 2.39336C16.9735 2.00283 16.3404 2.00283 15.9498 2.39336C15.5593 2.78388 15.5593 3.41705 15.9498 3.80757L17.364 5.22174L15.9498 6.63592L14.5356 5.22176L14.534 5.2202L13.8285 4.5147C13.438 4.12417 12.8048 4.12417 12.4143 4.5147C12.0238 4.9052 12.0238 5.53834 12.4143 5.92886L4.6361 13.707C3.46453 14.8786 3.46453 16.7781 4.63609 17.9497L2.51477 20.071C2.12425 20.4615 2.12425 21.0947 2.51477 21.4852C2.9053 21.8757 3.53846 21.8757 3.92898 21.4852L6.0503 19.3639C7.22188 20.5354 9.12138 20.5355 10.293 19.3639L12.4121 17.2447C12.4128 17.244 12.4136 17.2433 12.4143 17.2425C12.4151 17.2418 12.4158 17.2411 12.4165 17.2403L15.2357 14.4211L15.2427 14.4142L15.2497 14.4072L18.0711 11.5857C18.4617 11.9762 19.0949 11.9763 19.4854 11.5858C19.8759 11.1952 19.8759 10.5621 19.4854 10.1715L18.7798 9.46596L18.7782 9.4644L17.364 8.05017L18.7782 6.63595L20.1925 8.05021C20.583 8.44073 21.2162 8.44074 21.6067 8.05021C21.9972 7.65969 21.9972 7.02652 21.6067 6.636L19.4921 4.52144ZM11.7072 15.1212L13.1214 13.707L12.4143 13C12.0238 12.6094 12.0238 11.9763 12.4143 11.5857C12.8048 11.1952 13.438 11.1952 13.8285 11.5857L14.5356 12.2928L16.6569 10.1715L13.8285 7.34307L6.05031 15.1213C5.65979 15.5118 5.65979 16.1449 6.05031 16.5355L7.46453 17.9497C7.85505 18.3402 8.48822 18.3402 8.87874 17.9497L10.293 16.5354L9.58589 15.8283C9.19536 15.4378 9.19536 14.8046 9.58589 14.4141C9.97641 14.0236 10.6096 14.0236 11.0001 14.4141L11.7072 15.1212Z" fill="black"/>
</svg>
