<svg width="24" height="24" viewBox="0 0 24 24" fill="none" xmlns="http://www.w3.org/2000/svg">
<path fill-rule="evenodd" clip-rule="evenodd" d="M9 4C7.34315 4 6 5.34315 6 7C6 8.65685 7.34315 10 9 10C10.6569 10 12 8.65685 12 7C12 5.34315 10.6569 4 9 4ZM4 7C4 4.23858 6.23858 2 9 2C11.7614 2 14 4.23858 14 7C14 9.76142 11.7614 12 9 12C6.23858 12 4 9.76142 4 7Z" fill="black"/>
<path fill-rule="evenodd" clip-rule="evenodd" d="M15.1344 3.0344C15.4109 2.55634 16.0227 2.39298 16.5007 2.66952C17.9926 3.53253 19 5.14803 19 7C19 8.85196 17.9926 10.4675 16.5007 11.3305C16.0227 11.607 15.4109 11.4437 15.1344 10.9656C14.8579 10.4875 15.0212 9.87581 15.4993 9.59926C16.3986 9.07904 17 8.10916 17 7C17 5.89083 16.3986 4.92095 15.4993 4.40073C15.0212 4.12419 14.8579 3.51246 15.1344 3.0344Z" fill="black"/>
<path fill-rule="evenodd" clip-rule="evenodd" d="M2 19C2 16.2386 4.23858 14 7 14H11C13.7614 14 16 16.2386 16 19V21C16 21.5523 15.5523 22 15 22C14.4477 22 14 21.5523 14 21V19C14 17.3431 12.6569 16 11 16H7C5.34315 16 4 17.3431 4 19V21C4 21.5523 3.55228 22 3 22C2.44772 22 2 21.5523 2 21V19Z" fill="black"/>
<path fill-rule="evenodd" clip-rule="evenodd" d="M16 15C16 14.4477 16.4477 14 17 14C19.7614 14 22 16.2386 22 19V21C22 21.5523 21.5523 22 21 22C20.4477 22 20 21.5523 20 21V19C20 17.3431 18.6569 16 17 16C16.4477 16 16 15.5523 16 15Z" fill="black"/>
</svg>
