<svg width="24" height="24" viewBox="0 0 24 24" fill="none" xmlns="http://www.w3.org/2000/svg">
<path fill-rule="evenodd" clip-rule="evenodd" d="M12 2C12.3877 2 12.7405 2.22412 12.9052 2.5751L15.4596 8.0173L21.151 8.88686C21.5215 8.94347 21.8293 9.20251 21.9483 9.55793C22.0672 9.91335 21.9775 10.3055 21.7157 10.5737L17.5682 14.8247L18.5492 20.839C18.6109 21.217 18.4513 21.5969 18.1382 21.8175C17.8252 22.038 17.4136 22.0605 17.0785 21.8752L12 19.0679L6.92146 21.8752C6.58631 22.0605 6.17479 22.038 5.86173 21.8175C5.54867 21.5969 5.38907 21.217 5.45072 20.839L6.43177 14.8247L2.28422 10.5737C2.02248 10.3055 1.93272 9.91335 2.05171 9.55793C2.17069 9.20251 2.47844 8.94347 2.84895 8.88686L8.54031 8.0173L11.0947 2.5751C11.2595 2.22412 11.6123 2 12 2ZM12 5.35351L10.1241 9.35013C9.98237 9.65201 9.69952 9.86339 9.36986 9.91376L5.07481 10.57L8.21573 13.7892C8.43739 14.0164 8.53803 14.3353 8.48693 14.6485L7.75616 19.1285L11.5162 17.05C11.8172 16.8836 12.1827 16.8836 12.4838 17.05L16.2438 19.1285L15.513 14.6485C15.4619 14.3353 15.5626 14.0164 15.7842 13.7892L18.9251 10.57L14.6301 9.91376C14.3004 9.86339 14.0176 9.65201 13.8759 9.35013L12 5.35351Z" fill="black"/>
</svg>
