<svg width="24" height="24" viewBox="0 0 24 24" fill="none" xmlns="http://www.w3.org/2000/svg">
<path fill-rule="evenodd" clip-rule="evenodd" d="M12 4C10.3346 4 8.81755 4.62502 7.66691 5.65487C7.25539 6.0232 6.62319 5.98817 6.25487 5.57665C5.88654 5.16512 5.92156 4.53293 6.33309 4.1646C7.83623 2.81925 9.82364 2 12 2C12.7833 2 13.5435 2.10623 14.2661 2.30566C14.7984 2.45259 15.1109 3.00329 14.964 3.53567C14.817 4.06805 14.2663 4.38051 13.7339 4.23358C13.1831 4.08153 12.6019 4 12 4ZM15.7004 3.89887C16.0321 3.45728 16.659 3.36819 17.1006 3.69988C19.1629 5.24894 20.5 7.71846 20.5 10.5V15C20.5 16.4818 19.6937 17.7741 18.5007 18.4643C18.0227 18.7408 17.4109 18.5774 17.1344 18.0994C16.8579 17.6213 17.0212 17.0096 17.4993 16.733C18.0997 16.3857 18.5 15.739 18.5 15V10.5C18.5 8.37408 17.4805 6.48658 15.8994 5.29902C15.4578 4.96733 15.3687 4.34046 15.7004 3.89887ZM12 7C10.067 7 8.5 8.567 8.5 10.5V14.8102C8.5 15.3625 8.05228 15.8102 7.5 15.8102C6.94772 15.8102 6.5 15.3625 6.5 14.8102V10.5C6.5 7.46243 8.96243 5 12 5C15.0376 5 17.5 7.46243 17.5 10.5C17.5 11.0523 17.0523 11.5 16.5 11.5C15.9477 11.5 15.5 11.0523 15.5 10.5C15.5 8.567 13.933 7 12 7ZM5.52444 6.58365C6.03052 6.80477 6.26154 7.39428 6.04042 7.90037C5.69315 8.69518 5.5 9.57372 5.5 10.5V14C5.5 14.5523 5.05228 15 4.5 15C3.94772 15 3.5 14.5523 3.5 14V10.5C3.5 9.29297 3.75219 8.1422 4.20771 7.09963C4.42883 6.59354 5.01835 6.36253 5.52444 6.58365ZM11 9C11 8.44772 11.4477 8 12 8C13.3807 8 14.5 9.11929 14.5 10.5V15C14.5 15.5922 14.7562 16.1233 15.1669 16.491C15.5784 16.8593 15.6135 17.4915 15.2451 17.903C14.8768 18.3145 14.2446 18.3496 13.8331 17.9812C13.0164 17.2502 12.5 16.1848 12.5 15V10.5C12.5 10.2239 12.2761 10 12 10C11.4477 10 11 9.55228 11 9ZM10.5 10.5C11.0523 10.5 11.5 10.9477 11.5 11.5V15C11.5 15.4941 11.573 15.979 11.7121 16.441C11.8713 16.9698 11.5716 17.5276 11.0428 17.6868C10.514 17.846 9.9562 17.5464 9.79699 17.0175C9.6022 16.3705 9.5 15.6915 9.5 15V11.5C9.5 10.9477 9.94772 10.5 10.5 10.5ZM16.5 12.25C17.0523 12.25 17.5 12.6977 17.5 13.25V15C17.5 15.5523 17.0523 16 16.5 16C15.9477 16 15.5 15.5523 15.5 15V13.25C15.5 12.6977 15.9477 12.25 16.5 12.25ZM7.66791 16.7928C8.18885 16.6094 8.75984 16.883 8.94325 17.4039C9.24976 18.2746 9.71043 19.0905 10.3102 19.8102L10.7682 20.3598C11.1218 20.7841 11.0645 21.4147 10.6402 21.7682C10.2159 22.1218 9.58534 22.0645 9.23178 21.6402L8.77381 21.0906C8.02039 20.1865 7.44174 19.1616 7.05675 18.0681C6.87334 17.5472 7.14697 16.9762 7.66791 16.7928ZM12.1 19.2C12.4314 18.7582 13.0582 18.6686 13.5 19L15.1 20.2C15.5418 20.5314 15.6314 21.1582 15.3 21.6C14.9686 22.0418 14.3418 22.1314 13.9 21.8L12.3 20.6C11.8582 20.2686 11.7686 19.6418 12.1 19.2Z" fill="black"/>
</svg>
