<svg width="24" height="24" viewBox="0 0 24 24" fill="none" xmlns="http://www.w3.org/2000/svg">
<path d="M8.36302 21.9321C8.25048 21.9759 8.12805 22 8 22C7.75116 22 7.52355 21.9091 7.34855 21.7587C7.32733 21.7405 7.30687 21.7214 7.28725 21.7014L2.29292 16.7071C1.9024 16.3166 1.9024 15.6834 2.29292 15.2929C2.68345 14.9024 3.31661 14.9024 3.70714 15.2929L7 18.5857V7C7 4.23858 9.23858 2 12 2H21C21.5523 2 22 2.44772 22 3C22 3.55228 21.5523 4 21 4H12C10.3431 4 9 5.34315 9 7V18.5858L12.293 15.2929C12.6835 14.9024 13.3166 14.9024 13.7072 15.2929C14.0977 15.6834 14.0977 16.3166 13.7072 16.7071L8.70715 21.7071C8.60593 21.8083 8.4884 21.8833 8.36302 21.9321Z" fill="black"/>
</svg>
