<svg width="24" height="24" viewBox="0 0 24 24" fill="none" xmlns="http://www.w3.org/2000/svg">
<path fill-rule="evenodd" clip-rule="evenodd" d="M8.86561 5.56953C9.14215 6.04759 8.97879 6.65931 8.50073 6.93586C6.40581 8.1477 5 10.4103 5 13C5 16.866 8.13401 20 12 20C15.866 20 19 16.866 19 13C19 10.4103 17.5942 8.1477 15.4993 6.93586C15.0212 6.65931 14.8579 6.04759 15.1344 5.56953C15.4109 5.09146 16.0227 4.9281 16.5007 5.20465C19.1882 6.75928 21 9.66746 21 13C21 17.9706 16.9706 22 12 22C7.02944 22 3 17.9706 3 13C3 9.66746 4.81178 6.75928 7.49927 5.20465C7.97733 4.9281 8.58906 5.09146 8.86561 5.56953Z" fill="black"/>
<path fill-rule="evenodd" clip-rule="evenodd" d="M12 2C12.5523 2 13 2.44772 13 3V9C13 9.55229 12.5523 10 12 10C11.4477 10 11 9.55229 11 9V3C11 2.44772 11.4477 2 12 2Z" fill="black"/>
</svg>
