<svg width="24" height="24" viewBox="0 0 24 24" fill="none" xmlns="http://www.w3.org/2000/svg">
<path fill-rule="evenodd" clip-rule="evenodd" d="M12 10.0677C10.8954 10.0677 10 10.9632 10 12.0677C10 13.1723 10.8954 14.0677 12 14.0677C13.1046 14.0677 14 13.1723 14 12.0677C14 10.9632 13.1046 10.0677 12 10.0677ZM8 12.0677C8 9.85861 9.79086 8.06775 12 8.06775C14.2091 8.06775 16 9.85861 16 12.0677C16 14.2769 14.2091 16.0677 12 16.0677C9.79086 16.0677 8 14.2769 8 12.0677Z" fill="black"/>
<path fill-rule="evenodd" clip-rule="evenodd" d="M9.35284 4.14909C10.0266 1.37397 13.9734 1.37397 14.6472 4.14909C14.7629 4.62559 15.3088 4.85171 15.7275 4.59658C18.1663 3.11073 20.957 5.90148 19.4712 8.34023C19.216 8.75898 19.4422 9.3049 19.9187 9.42059C22.6938 10.0944 22.6938 14.0411 19.9187 14.7149C19.4422 14.8306 19.216 15.3765 19.4712 15.7953C20.957 18.234 18.1663 21.0248 15.7275 19.5389C15.3088 19.2838 14.7629 19.5099 14.6472 19.9864C13.9734 22.7615 10.0266 22.7615 9.35284 19.9864C9.23715 19.5099 8.69123 19.2838 8.27248 19.5389C5.83373 21.0248 3.04298 18.234 4.52884 15.7953C4.78396 15.3765 4.55784 14.8306 4.08134 14.7149C1.30622 14.0411 1.30622 10.0944 4.08134 9.42059C4.55784 9.3049 4.78396 8.75898 4.52884 8.34023C3.04298 5.90148 5.83373 3.11073 8.27248 4.59658C8.69123 4.85171 9.23715 4.62559 9.35284 4.14909ZM12.7036 4.62098C12.5245 3.88334 11.4755 3.88334 11.2964 4.62098C10.8611 6.41365 8.80727 7.26438 7.23187 6.30455C6.58365 5.9096 5.84185 6.65139 6.2368 7.29962C7.19664 8.87502 6.3459 10.9289 4.55323 11.3641C3.81559 11.5432 3.81559 12.5923 4.55323 12.7714C6.3459 13.2066 7.19664 15.2605 6.2368 16.8359C5.84185 17.4841 6.58365 18.2259 7.23188 17.8309C8.80727 16.8711 10.8611 17.7218 11.2964 19.5145C11.4755 20.2522 12.5245 20.2522 12.7036 19.5145C13.1389 17.7218 15.1927 16.8711 16.7681 17.831C17.4164 18.2259 18.1581 17.4841 17.7632 16.8359C16.8034 15.2605 17.6541 13.2066 19.4468 12.7714C20.1844 12.5923 20.1844 11.5432 19.4468 11.3641C17.6541 10.9289 16.8034 8.87502 17.7632 7.29962C18.1581 6.65139 17.4164 5.9096 16.7681 6.30455C15.1927 7.26438 13.1389 6.41365 12.7036 4.62098Z" fill="black"/>
</svg>
