<svg width="24" height="24" viewBox="0 0 24 24" fill="none" xmlns="http://www.w3.org/2000/svg">
<path fill-rule="evenodd" clip-rule="evenodd" d="M3 7C3 4.23858 5.23858 2 8 2C10.7614 2 13 4.23858 13 7C13 9.76142 10.7614 12 8 12C5.23858 12 3 9.76142 3 7ZM8 4C6.34315 4 5 5.34315 5 7C5 8.65685 6.34315 10 8 10C9.65685 10 11 8.65685 11 7C11 5.34315 9.65685 4 8 4Z" fill="black"/>
<path d="M2 19C2 16.2386 4.23858 14 7 14H8C8.55228 14 9 14.4477 9 15C9 15.5523 8.55228 16 8 16H7C5.34315 16 4 17.3431 4 19V21C4 21.5523 3.55228 22 3 22C2.44772 22 2 21.5523 2 21V19Z" fill="black"/>
<path d="M16 19C16.5523 19 17 18.5523 17 18C17 17.4477 16.5523 17 16 17C15.4477 17 15 17.4477 15 18C15 18.5523 15.4477 19 16 19Z" fill="black"/>
<path fill-rule="evenodd" clip-rule="evenodd" d="M12 13V14.1707C10.8348 14.5825 10 15.6938 10 17V19C10 20.6569 11.3431 22 13 22H19C20.6569 22 22 20.6569 22 19V17C22 15.6938 21.1652 14.5825 20 14.1707V13C20 11.3431 18.6569 10 17 10H15C13.3431 10 12 11.3431 12 13ZM20 17C20 16.4477 19.5523 16 19 16H13C12.4477 16 12 16.4477 12 17V19C12 19.5523 12.4477 20 13 20H19C19.5523 20 20 19.5523 20 19V17ZM18 13V14H14V13C14 12.4477 14.4477 12 15 12H17C17.5523 12 18 12.4477 18 13Z" fill="black"/>
</svg>
