<svg width="24" height="24" viewBox="0 0 24 24" fill="none" xmlns="http://www.w3.org/2000/svg">
<path fill-rule="evenodd" clip-rule="evenodd" d="M8.67428 4.88334C10.1545 2.37222 13.8368 2.37223 15.317 4.88334L21.4678 15.3181C22.9731 17.8717 21.0697 21 18.1465 21H5.84476C2.92154 21 1.01818 17.8717 2.52342 15.3181L8.67428 4.88334ZM13.595 5.89927C12.8882 4.70024 11.1031 4.70024 10.3963 5.89927L4.24542 16.3341C3.56369 17.4906 4.39403 19 5.84476 19H18.1465C19.5972 19 20.4275 17.4906 19.7458 16.3341L13.595 5.89927Z" fill="black"/>
<path fill-rule="evenodd" clip-rule="evenodd" d="M11.9956 14C11.4436 14 10.9961 13.5523 10.9961 13V10C10.9961 9.44772 11.4436 9 11.9956 9C12.5477 9 12.9952 9.44772 12.9952 10V13C12.9952 13.5523 12.5477 14 11.9956 14Z" fill="black"/>
<path d="M12.9952 16C12.9952 16.5523 12.5477 17 11.9956 17C11.4436 17 10.9961 16.5523 10.9961 16C10.9961 15.4477 11.4436 15 11.9956 15C12.5477 15 12.9952 15.4477 12.9952 16Z" fill="black"/>
</svg>
