<svg width="24" height="24" viewBox="0 0 24 24" fill="none" xmlns="http://www.w3.org/2000/svg">
<path d="M11.2929 16.7071C10.9024 16.3166 10.9024 15.6834 11.2929 15.2929L13.5858 13H8C7.44771 13 7 12.5523 7 12C7 11.4477 7.44771 11 8 11H13.5858L11.2929 8.70707C10.9024 8.31655 10.9024 7.68338 11.2929 7.29286C11.6834 6.90234 12.3166 6.90234 12.7071 7.29286L16.7071 11.2929C16.8053 11.391 16.8788 11.5045 16.9276 11.6257C16.9743 11.7413 17 11.8676 17 12C17 12.2605 16.9004 12.4977 16.7372 12.6757C16.7263 12.6876 16.7151 12.6992 16.7036 12.7106L12.7071 16.7071C12.3166 17.0976 11.6834 17.0976 11.2929 16.7071Z" fill="black"/>
<path fill-rule="evenodd" clip-rule="evenodd" d="M22 12C22 6.47715 17.5228 2 12 2C6.47715 2 2 6.47715 2 12C2 17.5228 6.47715 22 12 22C17.5228 22 22 17.5228 22 12ZM12 4C16.4183 4 20 7.58172 20 12C20 16.4183 16.4183 20 12 20C7.58172 20 4 16.4183 4 12C4 7.58172 7.58172 4 12 4Z" fill="black"/>
</svg>
