<svg width="24" height="24" viewBox="0 0 24 24" fill="none" xmlns="http://www.w3.org/2000/svg">
<path fill-rule="evenodd" clip-rule="evenodd" d="M4 7C4 4.23858 6.23858 2 9 2C11.7614 2 14 4.23858 14 7C14 9.76142 11.7614 12 9 12C6.23858 12 4 9.76142 4 7ZM9 4C7.34315 4 6 5.34315 6 7C6 8.65685 7.34315 10 9 10C10.6569 10 12 8.65685 12 7C12 5.34315 10.6569 4 9 4Z" fill="black"/>
<path d="M19 15C19 15.5523 18.5523 16 18 16C17.4477 16 17 15.5523 17 15L17 13L15 13C14.4477 13 14 12.5523 14 12C14 11.4477 14.4477 11 15 11L17 11L17 9C17 8.44772 17.4477 8 18 8C18.5523 8 19 8.44771 19 9L19 11L21 11C21.5523 11 22 11.4477 22 12C22 12.5523 21.5523 13 21 13L19 13L19 15Z" fill="black"/>
<path d="M7 14C4.23858 14 2 16.2386 2 19V21C2 21.5523 2.44772 22 3 22C3.55228 22 4 21.5523 4 21V19C4 17.3431 5.34315 16 7 16H11C12.6569 16 14 17.3431 14 19V21C14 21.5523 14.4477 22 15 22C15.5523 22 16 21.5523 16 21V19C16 16.2386 13.7614 14 11 14H7Z" fill="black"/>
</svg>
