<svg width="24" height="24" viewBox="0 0 24 24" fill="none" xmlns="http://www.w3.org/2000/svg">
<path d="M21.9321 8.36299C21.9759 8.25045 22 8.12802 22 7.99997C22 7.75113 21.9091 7.52352 21.7587 7.34852C21.7405 7.3273 21.7214 7.30684 21.7014 7.28722L16.7071 2.29289C16.3166 1.90237 15.6834 1.90237 15.2929 2.29289C14.9024 2.68342 14.9024 3.31658 15.2929 3.70711L18.5857 6.99997H7C4.23858 6.99997 2 9.23855 2 12V21C2 21.5523 2.44772 22 3 22C3.55228 22 4 21.5523 4 21V12C4 10.3431 5.34315 8.99997 7 8.99997H18.5858L15.2929 12.2929C14.9024 12.6834 14.9024 13.3166 15.2929 13.7071C15.6834 14.0977 16.3166 14.0977 16.7071 13.7071L21.7071 8.70712C21.8083 8.6059 21.8833 8.48837 21.9321 8.36299Z" fill="black"/>
</svg>
