<svg width="24" height="24" viewBox="0 0 24 24" fill="none" xmlns="http://www.w3.org/2000/svg">
<path d="M14.99 3.14142C15.0521 2.70663 14.8232 2.2822 14.4258 2.09518C14.0284 1.90817 13.5555 2.00234 13.2601 2.32732L10.7197 5.1217C10.3482 5.53036 10.3783 6.16281 10.787 6.53432C11.1957 6.90582 11.8281 6.87571 12.1996 6.46705L12.5496 6.0821L12.3526 7.46102C12.2745 8.00775 12.6544 8.51429 13.2011 8.59239C13.7478 8.6705 14.2544 8.2906 14.3325 7.74386L14.99 3.14142Z" fill="black"/>
<path fill-rule="evenodd" clip-rule="evenodd" d="M7.38057 8.79478L2.29289 3.70711C1.90237 3.31658 1.90237 2.68342 2.29289 2.29289C2.68342 1.90237 3.31658 1.90237 3.70711 2.29289L21.7071 20.2929C22.0976 20.6834 22.0976 21.3166 21.7071 21.7071C21.3166 22.0976 20.6834 22.0976 20.2929 21.7071L15.2726 16.6868L10.74 21.6727C10.4445 21.9977 9.97161 22.0918 9.57421 21.9048C9.17681 21.7178 8.94796 21.2934 9.01007 20.8586L9.84701 15H4.00002C3.6042 15 3.24563 14.7665 3.08551 14.4045C2.92538 14.0426 2.99382 13.6202 3.26008 13.3273L7.38057 8.79478ZM8.79639 10.2106L6.26057 13H11C11.2899 13 11.5655 13.1258 11.7555 13.3448C11.9454 13.5638 12.031 13.8544 11.99 14.1414L11.4505 17.9179L13.8568 15.271L8.79639 10.2106Z" fill="black"/>
<path d="M15.7 9C15.1477 9 14.7 9.44771 14.7 10C14.7 10.5523 15.1477 11 15.7 11H17.7395L17.2094 11.5831C16.8379 11.9917 16.868 12.6242 17.2767 12.9957C17.6853 13.3672 18.3178 13.3371 18.6893 12.9284L20.74 10.6727C21.0062 10.3798 21.0747 9.95742 20.9145 9.59544C20.7544 9.23346 20.3958 9 20 9H15.7Z" fill="black"/>
</svg>
