<svg width="24" height="24" viewBox="0 0 24 24" fill="none" xmlns="http://www.w3.org/2000/svg">
<path d="M6 15C6 14.4477 6.44772 14 7 14H13C13.5523 14 14 14.4477 14 15C14 15.5523 13.5523 16 13 16H7C6.44772 16 6 15.5523 6 15Z" fill="black"/>
<path d="M7 8C6.44772 8 6 8.44772 6 9V11C6 11.5523 6.44771 12 7 12H17C17.5523 12 18 11.5523 18 11V9C18 8.44772 17.5523 8 17 8H7Z" fill="black"/>
<path fill-rule="evenodd" clip-rule="evenodd" d="M2 7C2 5.34315 3.34315 4 5 4H19C20.6569 4 22 5.34315 22 7V17C22 18.6569 20.6569 20 19 20H5C3.34315 20 2 18.6569 2 17V7ZM5 6C4.44772 6 4 6.44772 4 7V17C4 17.5523 4.44772 18 5 18H19C19.5523 18 20 17.5523 20 17V7C20 6.44772 19.5523 6 19 6H5Z" fill="black"/>
</svg>
