<svg width="24" height="24" viewBox="0 0 24 24" fill="none" xmlns="http://www.w3.org/2000/svg">
<path d="M3 8C3.55228 8 4 7.55228 4 7V5C4 4.44772 4.44772 4 5 4H7C7.55228 4 8 3.55228 8 3C8 2.44772 7.55228 2 7 2H5C3.34315 2 2 3.34315 2 5V7C2 7.55228 2.44772 8 3 8Z" fill="black"/>
<path d="M3 16C3.55228 16 4 16.4477 4 17V19C4 19.5523 4.44772 20 5 20H7C7.55228 20 8 20.4477 8 21C8 21.5523 7.55228 22 7 22H5C3.34315 22 2 20.6569 2 19V17C2 16.4477 2.44772 16 3 16Z" fill="black"/>
<path d="M21 16C20.4477 16 20 16.4477 20 17V19C20 19.5523 19.5523 20 19 20H17C16.4477 20 16 20.4477 16 21C16 21.5523 16.4477 22 17 22H19C20.6569 22 22 20.6569 22 19V17C22 16.4477 21.5523 16 21 16Z" fill="black"/>
<path d="M21 8C20.4477 8 20 7.55228 20 7V5C20 4.44772 19.5523 4 19 4H17C16.4477 4 16 3.55228 16 3C16 2.44772 16.4477 2 17 2H19C20.6569 2 22 3.34315 22 5V7C22 7.55228 21.5523 8 21 8Z" fill="black"/>
<path d="M8 10C8 9.44772 8.44772 9 9 9H15C15.5523 9 16 9.44772 16 10C16 10.5523 15.5523 11 15 11H9C8.44772 11 8 10.5523 8 10Z" fill="black"/>
<path d="M9 12C8.44772 12 8 12.4477 8 13C8 13.5523 8.44772 14 9 14H14C14.5523 14 15 13.5523 15 13C15 12.4477 14.5523 12 14 12H9Z" fill="black"/>
<path fill-rule="evenodd" clip-rule="evenodd" d="M8 6C6.34315 6 5 7.34315 5 9V15C5 16.6569 6.34315 18 8 18H16C17.6569 18 19 16.6569 19 15V9C19 7.34315 17.6569 6 16 6H8ZM7 9C7 8.44772 7.44772 8 8 8H16C16.5523 8 17 8.44772 17 9V15C17 15.5523 16.5523 16 16 16H8C7.44772 16 7 15.5523 7 15V9Z" fill="black"/>
</svg>
