<svg width="24" height="24" viewBox="0 0 24 24" fill="none" xmlns="http://www.w3.org/2000/svg">
<path fill-rule="evenodd" clip-rule="evenodd" d="M2.07773 5.10272C1.97055 3.37572 3.37789 2 5.04204 2H7.61401C8.85644 2 10.0112 2.77391 10.4002 4.01216C10.6028 4.65695 10.8332 5.4663 10.972 6.21024C11.0412 6.58098 11.0929 6.96261 11.101 7.31401C11.1083 7.63445 11.0848 8.06648 10.8944 8.44721C10.4737 9.28861 9.96696 9.67177 9.51746 10.0116C9.44983 10.0627 9.38349 10.1129 9.31894 10.1635C10.0716 11.2513 10.6649 11.987 11.3165 12.5899C11.9581 13.1837 12.6904 13.68 13.7516 14.2469C14.1334 13.7861 14.846 13 16 13C16.1777 13 16.437 13.0415 16.6419 13.0762C16.8853 13.1175 17.1883 13.1746 17.5175 13.2395C18.1773 13.3696 18.9661 13.5356 19.643 13.6808C21.0249 13.9772 22 15.2 22 16.6043V18.9986C22 20.615 20.6687 22.0819 18.9154 21.933C10.1382 21.1879 3.10979 14.3178 2.11944 5.61301C2.10291 5.46778 2.08926 5.28856 2.07773 5.10272ZM5.04204 4C4.4645 4 4.04221 4.46843 4.07389 4.97883C4.08473 5.15359 4.0959 5.29275 4.10662 5.38693C4.98956 13.1477 11.2597 19.2759 19.0846 19.9402C19.5305 19.978 20 19.5893 20 18.9986V16.6043C20 16.1339 19.6748 15.7331 19.2235 15.6363C18.5501 15.4918 17.7741 15.3286 17.1307 15.2018C16.8084 15.1382 16.5253 15.085 16.3075 15.0481C16.1483 15.0211 16.0583 15.0091 16.0191 15.0039C15.9952 15.0007 15.9902 15 16 15C15.9055 15 15.818 15.0268 15.7008 15.1117C15.5646 15.2103 15.4246 15.3606 15.24 15.5856C14.6596 16.2932 13.6826 16.4737 12.8898 16.0538C11.6943 15.4206 10.7831 14.8212 9.95816 14.0579C9.13849 13.2994 8.43984 12.4119 7.63708 11.2476C7.1028 10.4727 7.16028 9.33946 7.97798 8.67485C8.15094 8.53428 8.29051 8.42686 8.40633 8.33773C8.76895 8.05864 8.89864 7.95883 9.09095 7.58176C9.09299 7.56721 9.10472 7.50138 9.10148 7.35962C9.09687 7.15769 9.06485 6.8927 9.00596 6.57719C8.88864 5.94862 8.68555 5.22696 8.49222 4.61168C8.38147 4.25922 8.03896 4 7.61401 4H5.04204Z" fill="black"/>
</svg>
