<svg width="24" height="24" viewBox="0 0 24 24" fill="none" xmlns="http://www.w3.org/2000/svg">
<path d="M16 20C15.4477 20 15 20.4477 15 21C15 21.5523 15.4477 22 16 22H19C20.6569 22 22 20.6569 22 19V5C22 3.34315 20.6569 2 19 2H16C15.4477 2 15 2.44772 15 3C15 3.55228 15.4477 4 16 4H19C19.5523 4 20 4.44772 20 5V19C20 19.5523 19.5523 20 19 20H16Z" fill="black"/>
<path d="M9.29288 5.29289C8.90235 5.68342 8.90235 6.31658 9.29288 6.70711L13.5858 11H3C2.44771 11 2 11.4477 2 12C2 12.5523 2.44771 13 3 13H13.5858L9.29288 17.2929C8.90235 17.6834 8.90235 18.3166 9.29288 18.7071C9.6834 19.0977 10.3166 19.0977 10.7071 18.7071L16.7071 12.7071C16.8053 12.609 16.8788 12.4955 16.9276 12.3743C16.9732 12.2614 16.9988 12.1382 17 12.0092L17 12L17 11.997C16.9992 11.7377 16.8998 11.5016 16.7372 11.3243C16.7263 11.3124 16.7151 11.3008 16.7036 11.2895L10.7071 5.29289C10.3166 4.90237 9.6834 4.90237 9.29288 5.29289Z" fill="black"/>
</svg>
