<svg width="24" height="24" viewBox="0 0 24 24" fill="none" xmlns="http://www.w3.org/2000/svg">
<path fill-rule="evenodd" clip-rule="evenodd" d="M14.0711 3.29289C14.4616 2.90237 15.0948 2.90237 15.4853 3.29289C20.1716 7.97919 20.1716 15.5772 15.4853 20.2635C15.0948 20.654 14.4616 20.654 14.0711 20.2635C13.6806 19.8729 13.6806 19.2398 14.0711 18.8492C17.9763 14.944 17.9763 8.61235 14.0711 4.70711C13.6806 4.31658 13.6806 3.68342 14.0711 3.29289ZM10.9498 5.29289C11.3403 4.90237 11.9734 4.90237 12.364 5.29289C15.8787 8.80761 15.8787 14.5061 12.364 18.0208C11.9734 18.4113 11.3403 18.4113 10.9498 18.0208C10.5592 17.6303 10.5592 16.9971 10.9498 16.6066C13.6834 13.8729 13.6834 9.44078 10.9498 6.70711C10.5592 6.31658 10.5592 5.68342 10.9498 5.29289ZM7.82842 7.29289C8.21894 6.90237 8.8521 6.90237 9.24263 7.29289C11.5858 9.63604 11.5858 13.435 9.24263 15.7782C8.8521 16.1687 8.21894 16.1687 7.82842 15.7782C7.43789 15.3877 7.43789 14.7545 7.82842 14.364C9.39051 12.8019 9.39051 10.2692 7.82842 8.70711C7.43789 8.31658 7.43789 7.68342 7.82842 7.29289ZM4.70708 9.29289C5.0976 8.90237 5.73077 8.90237 6.12129 9.29289C7.29286 10.4645 7.29286 12.364 6.12129 13.5355C5.73077 13.9261 5.0976 13.9261 4.70708 13.5355C4.31655 13.145 4.31655 12.5118 4.70708 12.1213C5.0976 11.7308 5.0976 11.0976 4.70708 10.7071C4.31655 10.3166 4.31655 9.68342 4.70708 9.29289Z" fill="black"/>
</svg>
