<svg width="24" height="24" viewBox="0 0 24 24" fill="none" xmlns="http://www.w3.org/2000/svg">
<path fill-rule="evenodd" clip-rule="evenodd" d="M12.75 22C13.157 22 13.5233 21.7534 13.6765 21.3764L16.6731 14H19C20.6569 14 22 12.6569 22 11V5C22 3.34315 20.6569 2 19 2H6.66916C5.2193 2 3.97691 3.03687 3.71755 4.46335L2.44482 11.4633C2.11 13.3049 3.52472 15 5.39643 15H8.00001L8.00001 18.0013L8.00001 18.0026L8.00003 18.0059L8.00007 18.0121L8.00033 18.0288C8.00058 18.0414 8.00103 18.057 8.00179 18.0753C8.00332 18.112 8.00614 18.1601 8.01129 18.2178C8.02158 18.333 8.04137 18.4891 8.07962 18.6727C8.15546 19.0367 8.30824 19.53 8.62076 20.03C9.2851 21.0929 10.5552 22 12.75 22ZM17 4V12H19C19.5523 12 20 11.5523 20 11V5C20 4.44771 19.5523 4 19 4H17ZM15 4V12.8046L12.0931 19.9601C11.0153 19.82 10.5476 19.3393 10.3168 18.97C10.1605 18.72 10.0789 18.4633 10.0376 18.2648C10.0172 18.1672 10.0077 18.0888 10.0034 18.04C10.0012 18.0157 10.0004 17.9993 10.0001 17.9921L10 17.9909V15C10 13.8954 9.10458 13 8.00001 13H5.39643C4.77253 13 4.30096 12.435 4.41256 11.8211L5.68529 4.82112C5.77174 4.34562 6.18588 4 6.66916 4H15Z" fill="black"/>
</svg>
