<svg width="24" height="24" viewBox="0 0 24 24" fill="none" xmlns="http://www.w3.org/2000/svg">
<path d="M11.4142 14.8284C11.0237 14.4379 11.0237 13.8048 11.4142 13.4142L12.8284 12L11.4142 10.5858C11.0237 10.1953 11.0237 9.56209 11.4142 9.17156C11.8047 8.78104 12.4379 8.78104 12.8284 9.17156L14.2427 10.5858L15.6569 9.17159C16.0474 8.78107 16.6806 8.78107 17.0711 9.17159C17.4616 9.56211 17.4616 10.1953 17.0711 10.5858L15.6569 12L17.0711 13.4142C17.4616 13.8047 17.4616 14.4379 17.0711 14.8284C16.6805 15.2189 16.0474 15.2189 15.6568 14.8284L14.2427 13.4142L12.8284 14.8284C12.4379 15.219 11.8048 15.219 11.4142 14.8284Z" fill="black"/>
<path fill-rule="evenodd" clip-rule="evenodd" d="M3.91225 14.2038C2.62622 13.016 2.62621 10.984 3.91225 9.79618L9.32578 4.79618C9.88002 4.28428 10.6068 4 11.3613 4H19C20.6569 4 22 5.34315 22 7V17C22 18.6569 20.6569 20 19 20H11.3613C10.6068 20 9.88002 19.7157 9.32578 19.2038L3.91225 14.2038ZM5.26923 11.2654C4.84055 11.6613 4.84055 12.3387 5.26923 12.7346L10.6828 17.7346C10.8675 17.9052 11.1098 18 11.3613 18H19C19.5523 18 20 17.5523 20 17V7C20 6.44771 19.5523 6 19 6H11.3613C11.1098 6 10.8675 6.09476 10.6828 6.26539L5.26923 11.2654Z" fill="black"/>
</svg>
