<svg width="24" height="24" viewBox="0 0 24 24" fill="none" xmlns="http://www.w3.org/2000/svg">
<path d="M17.511 14.6087C17.0184 14.3589 16.8216 13.7571 17.0715 13.2646C17.6575 12.1091 18 10.9971 18 10C18 6.68629 15.3137 4 12 4C10.8468 4 9.77244 4.32435 8.85964 4.8863C8.38933 5.17583 7.77336 5.02929 7.48382 4.55899C7.19429 4.08868 7.34083 3.47271 7.81113 3.18317C9.03016 2.43269 10.4661 2 12 2C16.4183 2 20 5.58172 20 10C20 11.4297 19.518 12.8624 18.8551 14.1692C18.6053 14.6618 18.0035 14.8586 17.511 14.6087Z" fill="black"/>
<path fill-rule="evenodd" clip-rule="evenodd" d="M12 21C11.3492 21.7593 11.3483 21.7585 11.3483 21.7585L11.3467 21.7571L11.3417 21.7528L11.3241 21.7376C11.3092 21.7246 11.2878 21.7059 11.2604 21.6818C11.2055 21.6334 11.1266 21.5632 11.0269 21.4727C10.8277 21.2918 10.5454 21.0296 10.2077 20.6999C9.5335 20.0418 8.63218 19.1086 7.72807 18.0107C6.8264 16.9158 5.90543 15.6374 5.206 14.2884C4.51106 12.9482 4 11.4721 4 10C4 8.67155 4.32451 7.41687 4.8987 6.31292L2.29289 3.70711C1.90237 3.31658 1.90237 2.68342 2.29289 2.29289C2.68342 1.90237 3.31658 1.90237 3.70711 2.29289L6.75765 5.34344C6.8355 5.40175 6.9026 5.46957 6.9584 5.54418L21.7071 20.2929C22.0976 20.6834 22.0976 21.3166 21.7071 21.7071C21.3166 22.0976 20.6834 22.0976 20.2929 21.7071L16.4179 17.8321C15.5838 18.8612 14.743 19.754 14.0719 20.4239C13.6582 20.8368 13.3064 21.1677 13.0565 21.3966C12.9316 21.5111 12.8319 21.6002 12.7627 21.6614C12.7281 21.692 12.701 21.7157 12.6821 21.7321L12.6601 21.7512L12.6538 21.7567L12.6508 21.7593C12.2763 22.0802 11.7237 22.0802 11.3492 21.7593L12 21ZM14.9953 16.4095C14.1766 17.4364 13.3327 18.3359 12.659 19.0084C12.4121 19.2548 12.1892 19.4697 12 19.6481C11.8809 19.5357 11.7483 19.4089 11.6048 19.2688C10.9665 18.6457 10.1178 17.7664 9.27193 16.7393C8.4236 15.7092 7.59457 14.5501 6.9815 13.3678C6.36394 12.1768 6 11.0279 6 10C6 9.23072 6.14435 8.49636 6.40739 7.82161L8.11665 9.53086C8.04219 9.67077 8 9.83046 8 10C8 12.2091 9.79086 14 12 14C12.1695 14 12.3292 13.9578 12.4691 13.8834L14.9953 16.4095Z" fill="black"/>
<path d="M14 10C14 8.89543 13.1046 8 12 8C11.8469 8 11.699 8.01702 11.5576 8.04886C11.0189 8.17024 10.4837 7.83186 10.3623 7.29307C10.241 6.75429 10.5793 6.21913 11.1181 6.09776C11.4028 6.03363 11.6981 6 12 6C14.2091 6 16 7.79086 16 10C16 10.3064 15.9654 10.606 15.8994 10.8945C15.7762 11.4329 15.24 11.7695 14.7016 11.6464C14.1632 11.5233 13.8266 10.987 13.9497 10.4487C13.9825 10.3054 14 10.1553 14 10Z" fill="black"/>
</svg>
