<svg width="24" height="24" viewBox="0 0 24 24" fill="none" xmlns="http://www.w3.org/2000/svg">
<path fill-rule="evenodd" clip-rule="evenodd" d="M12.6508 2.24074L12 3L11.3492 2.24074C11.7237 1.91975 12.2763 1.91975 12.6508 2.24074ZM12 4.35193C11.8809 4.46427 11.7483 4.59111 11.6048 4.7312C10.9665 5.35429 10.1178 6.23355 9.27193 7.26071C8.4236 8.29083 7.59457 9.44985 6.9815 10.6322C6.36394 11.8232 6 12.9721 6 14C6 17.3137 8.68629 20 12 20C15.3137 20 18 17.3137 18 14C18 12.9721 17.6361 11.8232 17.0185 10.6322C16.4054 9.44985 15.5764 8.29083 14.7281 7.26071C13.8822 6.23355 13.0335 5.35429 12.3952 4.7312C12.2517 4.59111 12.1191 4.46427 12 4.35193ZM11.3492 2.24074C11.3494 2.24057 11.3492 2.24074 12 3C12.6508 2.24074 12.6506 2.24057 12.6508 2.24074L12.6533 2.24289L12.6583 2.24724L12.6759 2.26242C12.6908 2.27541 12.7122 2.29409 12.7396 2.31824C12.7945 2.36655 12.8734 2.43681 12.9731 2.5273C13.1723 2.7082 13.4546 2.97037 13.7923 3.30005C14.4665 3.95821 15.3678 4.89145 16.2719 5.98929C17.1736 7.08417 18.0946 8.36265 18.794 9.71156C19.4889 11.0518 20 12.5279 20 14C20 18.4183 16.4183 22 12 22C7.58172 22 4 18.4183 4 14C4 12.5279 4.51106 11.0518 5.206 9.71156C5.90543 8.36265 6.8264 7.08417 7.72807 5.98929C8.63218 4.89145 9.5335 3.95821 10.2077 3.30005C10.5454 2.97037 10.8277 2.7082 11.0269 2.5273C11.1266 2.43681 11.2055 2.36655 11.2604 2.31824C11.2878 2.29409 11.3092 2.27541 11.3241 2.26242L11.3417 2.24724L11.3467 2.24289L11.3492 2.24074Z" fill="black"/>
</svg>
