<svg width="22" height="18" viewBox="0 0 22 18" fill="none" xmlns="http://www.w3.org/2000/svg">
<path fill-rule="evenodd" clip-rule="evenodd" d="M17.5 0C16.9477 0 16.5 0.447715 16.5 1C16.5 1.55228 16.9477 2 17.5 2H18.0858L16.2574 3.8284C15.467 3.30488 14.5191 3 13.5 3C10.7386 3 8.5 5.23858 8.5 8C8.5 9.65685 7.15685 11 5.5 11C3.84315 11 2.5 9.65685 2.5 8C2.5 6.34315 3.84315 5 5.5 5C6.02906 5 6.52332 5.13608 6.9528 5.3744C7.43572 5.64237 8.04443 5.46812 8.3124 4.9852C8.58038 4.50229 8.40613 3.89357 7.92321 3.6256C7.20443 3.22675 6.3772 3 5.5 3C2.73858 3 0.5 5.23858 0.5 8C0.5 10.419 2.21776 12.4367 4.5 12.9V14H4C3.44772 14 3 14.4477 3 15C3 15.5523 3.44772 16 4 16H4.5V17C4.5 17.5523 4.94772 18 5.5 18C6.05228 18 6.5 17.5523 6.5 17V16H7C7.55228 16 8 15.5523 8 15C8 14.4477 7.55228 14 7 14H6.5V12.9C8.78224 12.4367 10.5 10.419 10.5 8C10.5 6.34315 11.8431 5 13.5 5C15.1569 5 16.5 6.34315 16.5 8C16.5 9.65685 15.1569 11 13.5 11C12.9709 11 12.4767 10.8639 12.0472 10.6256C11.5643 10.3576 10.9556 10.5319 10.6876 11.0148C10.4196 11.4977 10.5939 12.1064 11.0768 12.3744C11.7956 12.7732 12.6228 13 13.5 13C16.2614 13 18.5 10.7614 18.5 8C18.5 6.98092 18.1951 6.03304 17.6716 5.24261L19.5 3.41421V4C19.5 4.55228 19.9477 5 20.5 5C21.0523 5 21.5 4.55228 21.5 4V1C21.5 0.447715 21.0523 0 20.5 0H17.5Z" fill="#242423"/>
</svg>
