<svg width="24" height="24" viewBox="0 0 24 24" fill="none" xmlns="http://www.w3.org/2000/svg">
<path fill-rule="evenodd" clip-rule="evenodd" d="M3.70711 2.29289C3.31658 1.90237 2.68342 1.90237 2.29289 2.29289C1.90237 2.68342 1.90237 3.31658 2.29289 3.70711L4.11679 5.531C4.04158 5.67259 4 5.83294 4 6V12C4 14.9441 6.03229 17.4482 7.81955 19.1078C8.73919 19.9617 9.6545 20.6478 10.3381 21.1198C10.6808 21.3564 10.9676 21.5409 11.1708 21.6673C11.2724 21.7306 11.3533 21.7794 11.4099 21.8132C11.4382 21.83 11.4605 21.8431 11.4763 21.8523L11.4951 21.8632L11.5007 21.8665L11.5026 21.8675C11.5026 21.8675 11.5039 21.8682 12 21L11.5039 21.8682C11.8113 22.0439 12.1887 22.0439 12.4961 21.8682L12.4978 21.8673L12.5005 21.8658L12.5088 21.8609L12.5372 21.8444C12.5612 21.8303 12.5953 21.8101 12.6387 21.7841C12.7253 21.7319 12.8489 21.6561 13.0026 21.558C13.3097 21.3621 13.7385 21.0763 14.2335 20.7124C15.0305 20.1264 16.0159 19.3255 16.9435 18.3577L20.2929 21.7071C20.6834 22.0976 21.3166 22.0976 21.7071 21.7071C22.0976 21.3166 22.0976 20.6834 21.7071 20.2929L3.70711 2.29289ZM15.529 16.9432L6 7.41421V12C6 14.0559 7.46771 16.0518 9.18045 17.6422C10.0108 18.4133 10.8455 19.0397 11.4744 19.474C11.6735 19.6114 11.851 19.7289 12 19.8251C12.2703 19.6507 12.6335 19.4064 13.0488 19.1011C13.7981 18.5501 14.6996 17.8132 15.529 16.9432ZM12 21C12.4961 21.8682 12.4961 21.8682 12.4961 21.8682L12 21Z" fill="black"/>
<path d="M12.3939 2.08085C12.1424 1.97305 11.8576 1.97305 11.6061 2.08085L9.27275 3.08086C8.76512 3.29841 8.52997 3.88629 8.74752 4.39392C8.96508 4.90155 9.55296 5.1367 10.0606 4.91915L12 4.08797L18 6.6594V12C18 12.3165 17.9655 12.6317 17.9001 12.9452C17.7874 13.4859 18.1344 14.0155 18.675 14.1282C19.2157 14.241 19.7453 13.894 19.8581 13.3534C19.9495 12.9148 20 12.4628 20 12V6C20 5.59997 19.7616 5.23843 19.3939 5.08085L12.3939 2.08085Z" fill="black"/>
</svg>
