<svg width="24" height="24" viewBox="0 0 24 24" fill="none" xmlns="http://www.w3.org/2000/svg">
<path d="M13.4896 7.59628C13.8802 7.9868 13.8802 8.61997 13.4896 9.01049L9.247 13.2531C8.85648 13.6437 8.22331 13.6437 7.83279 13.2531C7.44226 12.8626 7.44226 12.2294 7.83279 11.8389L12.0754 7.59628C12.466 7.20576 13.0991 7.20576 13.4896 7.59628Z" fill="black"/>
<path d="M16.3181 10.4247C16.7086 10.8152 16.7086 11.4484 16.3181 11.8389L12.0754 16.0816C11.6849 16.4721 11.0517 16.4721 10.6612 16.0816C10.2707 15.691 10.2707 15.0579 10.6612 14.6673L14.9039 10.4247C15.2944 10.0342 15.9275 10.0342 16.3181 10.4247Z" fill="black"/>
<path fill-rule="evenodd" clip-rule="evenodd" d="M11.4853 2.29289C11.8758 1.90237 12.509 1.90237 12.8995 2.29289L13.6773 3.07072C15.6187 1.78452 18.2601 1.99664 19.9706 3.70711C21.681 5.41757 21.8932 8.05898 20.6069 10.0003L20.6777 10.0711C21.4587 10.8521 21.4587 12.1184 20.6777 12.8995L12.8995 20.6777C12.1184 21.4587 10.8521 21.4587 10.0711 20.6777L10.0003 20.6069C8.05898 21.8932 5.41757 21.681 3.70711 19.9706C1.99664 18.2601 1.78452 15.6187 3.07072 13.6773L2.29289 12.8995C2.10536 12.712 2 12.4576 2 12.1924C2 11.9272 2.10536 11.6728 2.29289 11.4853L11.4853 2.29289ZM4.53492 15.1415C4.00222 16.2566 4.19768 17.6327 5.12132 18.5564C6.04496 19.48 7.42102 19.6755 8.53615 19.1427L4.53492 15.1415ZM4.41421 12.1924L12.1924 4.41421L19.2635 11.4853L11.4853 19.2635L4.41421 12.1924ZM19.1427 8.53615C19.6755 7.42102 19.48 6.04496 18.5564 5.12132C17.6327 4.19768 16.2566 4.00222 15.1415 4.53492L19.1427 8.53615Z" fill="black"/>
</svg>
