<svg width="24" height="24" viewBox="0 0 24 24" fill="none" xmlns="http://www.w3.org/2000/svg">
<path fill-rule="evenodd" clip-rule="evenodd" d="M2 3C2 2.44772 2.44772 2 3 2H8C9.6356 2 11.0878 2.78534 12 3.99952C12.9122 2.78534 14.3644 2 16 2H21C21.5523 2 22 2.44772 22 3V18C22 18.5523 21.5517 19 20.9995 19H15C14.425 19 14.0602 19.1409 13.8203 19.3008C13.5742 19.4649 13.3976 19.6908 13.2694 19.9472C13.1393 20.2075 13.0692 20.4799 13.0333 20.6956C13.0157 20.8012 13.0073 20.8869 13.0033 20.9423C13.0014 20.9699 13.0005 20.9894 13.0002 20.9996L13 21.007C12.9962 21.5561 12.5499 22 12 22C11.4501 22 11.0038 21.5561 11 21.007L10.9998 20.9996C10.9995 20.9894 10.9986 20.9699 10.9967 20.9423C10.9927 20.8869 10.9843 20.8012 10.9667 20.6956C10.9308 20.4799 10.8607 20.2075 10.7306 19.9472C10.6024 19.6908 10.4258 19.4649 10.1797 19.3008C9.93979 19.1409 9.57502 19 9 19H3.00055C2.44826 19 2 18.5523 2 18V3ZM8 4C9.65685 4 11 5.34315 11 7V17.4635C10.448 17.1678 9.78304 17 9 17H4V4H8ZM13 17.4635C13.552 17.1678 14.217 17 15 17H20V4H16C14.3431 4 13 5.34315 13 7V17.4635Z" fill="black"/>
</svg>
