<svg width="24" height="24" viewBox="0 0 24 24" fill="none" xmlns="http://www.w3.org/2000/svg">
<path d="M5.25 5C5.11193 5 5 5.11193 5 5.25V5.75C5 5.88807 5.11193 6 5.25 6H5.75C5.88807 6 6 5.88807 6 5.75V5.25C6 5.11193 5.88807 5 5.75 5H5.25Z" fill="black"/>
<path fill-rule="evenodd" clip-rule="evenodd" d="M2 3.25C2 2.55964 2.55964 2 3.25 2H7.75C8.44036 2 9 2.55964 9 3.25V7.75C9 8.44036 8.44036 9 7.75 9H3.25C2.55964 9 2 8.44036 2 7.75V3.25ZM4 4V7H7V4H4Z" fill="black"/>
<path d="M5 18.25C5 18.1119 5.11193 18 5.25 18H5.75C5.88807 18 6 18.1119 6 18.25V18.75C6 18.8881 5.88807 19 5.75 19H5.25C5.11193 19 5 18.8881 5 18.75V18.25Z" fill="black"/>
<path fill-rule="evenodd" clip-rule="evenodd" d="M2 16.25C2 15.5596 2.55964 15 3.25 15H7.75C8.44036 15 9 15.5596 9 16.25V20.75C9 21.4404 8.44036 22 7.75 22H3.25C2.55964 22 2 21.4404 2 20.75V16.25ZM4 17V20H7V17H4Z" fill="black"/>
<path d="M18 5.25C18 5.11193 18.1119 5 18.25 5H18.75C18.8881 5 19 5.11193 19 5.25V5.75C19 5.88807 18.8881 6 18.75 6H18.25C18.1119 6 18 5.88807 18 5.75V5.25Z" fill="black"/>
<path fill-rule="evenodd" clip-rule="evenodd" d="M16.25 2C15.5596 2 15 2.55964 15 3.25V7.75C15 8.44036 15.5596 9 16.25 9H20.75C21.4404 9 22 8.44036 22 7.75V3.25C22 2.55964 21.4404 2 20.75 2H16.25ZM17 7V4H20V7H17Z" fill="black"/>
<path d="M13.25 12C13.1119 12 13 12.1119 13 12.25V13.75C13 13.8881 13.1119 14 13.25 14H17.75C17.8881 14 18 13.8881 18 13.75V12.25C18 12.1119 17.8881 12 17.75 12H13.25Z" fill="black"/>
<path d="M6 10.25C6 10.1119 6.11193 10 6.25 10H12.75C12.8881 10 13 10.1119 13 10.25V11.75C13 11.8881 12.8881 12 12.75 12H11V13.75C11 13.8881 10.8881 14 10.75 14H9.25C9.11193 14 9 13.8881 9 13.75V12H6.25C6.11193 12 6 11.8881 6 11.75V10.25Z" fill="black"/>
<path d="M2.25 10C2.11193 10 2 10.1119 2 10.25V11.75C2 11.8881 2.11193 12 2.25 12H3.75C3.88807 12 4 11.8881 4 11.75V10.25C4 10.1119 3.88807 10 3.75 10H2.25Z" fill="black"/>
<path d="M18 10.25C18 10.1119 18.1119 10 18.25 10H19.75C19.8881 10 20 10.1119 20 10.25V11.75C20 11.8881 19.8881 12 19.75 12H18.25C18.1119 12 18 11.8881 18 11.75V10.25Z" fill="black"/>
<path d="M15.25 17C15.1119 17 15 17.1119 15 17.25V18.75C15 18.8881 15.1119 19 15.25 19H18V21.75C18 21.8881 18.1119 22 18.25 22H21.75C21.8881 22 22 21.8881 22 21.75V20.25C22 20.1119 21.8881 20 21.75 20H20V17.25C20 17.1119 19.8881 17 19.75 17H15.25Z" fill="black"/>
<path d="M20.25 12C20.1119 12 20 12.1119 20 12.25V15.75C20 15.8881 20.1119 16 20.25 16H21.75C21.8881 16 22 15.8881 22 15.75V12.25C22 12.1119 21.8881 12 21.75 12H20.25Z" fill="black"/>
<path d="M12 2.25C12 2.11193 12.1119 2 12.25 2H13.75C13.8881 2 14 2.11193 14 2.25V3.75C14 3.88807 13.8881 4 13.75 4H12.25C12.1119 4 12 3.88807 12 3.75V2.25Z" fill="black"/>
<path d="M12 4.25V7H13.75C13.8881 7 14 7.11193 14 7.25V8.75C14 8.88807 13.8881 9 13.75 9H10.25C10.1119 9 10 8.88807 10 8.75V4.25C10 4.11193 10.1119 4 10.25 4H11.75C11.8881 4 12 4.11193 12 4.25Z" fill="black"/>
<path d="M4.25 12C4.11193 12 4 12.1119 4 12.25V13.75C4 13.8881 4.11193 14 4.25 14H5.75C5.88807 14 6 13.8881 6 13.75V12.25C6 12.1119 5.88807 12 5.75 12H4.25Z" fill="black"/>
<path d="M13 20.25C13 20.1119 13.1119 20 13.25 20H14.75C14.8881 20 15 20.1119 15 20.25V21.75C15 21.8881 14.8881 22 14.75 22H13.25C13.1119 22 13 21.8881 13 21.75V20.25Z" fill="black"/>
<path d="M11.25 14C11.1119 14 11 14.1119 11 14.25V19.75C11 19.8881 11.1119 20 11.25 20H12.75C12.8881 20 13 19.8881 13 19.75V14.25C13 14.1119 12.8881 14 12.75 14H11.25Z" fill="black"/>
</svg>
