<svg width="24" height="24" viewBox="0 0 24 24" fill="none" xmlns="http://www.w3.org/2000/svg">
<path fill-rule="evenodd" clip-rule="evenodd" d="M2 4C2 2.89543 2.89543 2 4 2H20C21.1046 2 22 2.89543 22 4V5.54007C22 6.12391 21.7449 6.67861 21.3016 7.05858L15 12.4599V19.1958C15 20.7666 13.2721 21.7243 11.94 20.8917L9.94 19.6417C9.35524 19.2763 9 18.6353 9 17.9458V12.4599L2.69842 7.05858C2.25513 6.67861 2 6.12392 2 5.54007V4ZM20 4H4V5.54007L10.3016 10.9414C10.7449 11.3214 11 11.8761 11 12.4599V17.9458L13 19.1958V12.4599C13 11.8761 13.2551 11.3214 13.6984 10.9414L20 5.54007V4Z" fill="black"/>
</svg>
