<svg width="24" height="24" viewBox="0 0 24 24" fill="none" xmlns="http://www.w3.org/2000/svg">
<path fill-rule="evenodd" clip-rule="evenodd" d="M12 4C7.58172 4 4 7.58172 4 12C4 16.4183 7.58172 20 12 20C16.4183 20 20 16.4183 20 12C20 7.58172 16.4183 4 12 4ZM2 12C2 6.47715 6.47715 2 12 2C17.5228 2 22 6.47715 22 12C22 17.5228 17.5228 22 12 22C6.47715 22 2 17.5228 2 12Z" fill="black"/>
<path fill-rule="evenodd" clip-rule="evenodd" d="M8.83747 13.0572C9.35818 12.8731 9.92951 13.146 10.1136 13.6668C10.3886 14.4449 11.1308 15 12 15C12.8693 15 13.6114 14.4449 13.8865 13.6668C14.0705 13.146 14.6418 12.8731 15.1625 13.0572C15.6833 13.2412 15.9562 13.8125 15.7721 14.3332C15.2235 15.8855 13.7432 17 12 17C10.2568 17 8.77651 15.8855 8.22787 14.3332C8.04383 13.8125 8.31675 13.2412 8.83747 13.0572Z" fill="black"/>
<circle cx="9" cy="9" r="1" fill="black"/>
<circle cx="15" cy="9" r="1" fill="black"/>
<path fill-rule="evenodd" clip-rule="evenodd" d="M12 4C7.58172 4 4 7.58172 4 12C4 16.4183 7.58172 20 12 20C16.4183 20 20 16.4183 20 12C20 7.58172 16.4183 4 12 4ZM2 12C2 6.47715 6.47715 2 12 2C17.5228 2 22 6.47715 22 12C22 17.5228 17.5228 22 12 22C6.47715 22 2 17.5228 2 12Z" fill="#242423"/>
<path fill-rule="evenodd" clip-rule="evenodd" d="M8.83747 13.0572C9.35819 12.8731 9.92951 13.146 10.1136 13.6668C10.3886 14.4449 11.1308 15 12 15C12.8693 15 13.6114 14.4449 13.8865 13.6668C14.0705 13.146 14.6418 12.8731 15.1625 13.0572C15.6833 13.2412 15.9562 13.8125 15.7721 14.3332C15.2235 15.8855 13.7432 17 12 17C10.2568 17 8.77651 15.8855 8.22788 14.3332C8.04383 13.8125 8.31675 13.2412 8.83747 13.0572Z" fill="#242423"/>
<path d="M10 9C10 9.55228 9.55228 10 9 10C8.44772 10 8 9.55228 8 9C8 8.44772 8.44772 8 9 8C9.55228 8 10 8.44772 10 9Z" fill="#242423"/>
<path d="M16 9C16 9.55228 15.5523 10 15 10C14.4477 10 14 9.55228 14 9C14 8.44772 14.4477 8 15 8C15.5523 8 16 8.44772 16 9Z" fill="#242423"/>
</svg>
