<svg width="24" height="24" viewBox="0 0 24 24" fill="none" xmlns="http://www.w3.org/2000/svg">
<path fill-rule="evenodd" clip-rule="evenodd" d="M10 6C6.68629 6 4 8.68629 4 12C4 15.3137 6.68629 18 10 18H17C18.6569 18 20 16.6569 20 15C20 13.3431 18.6569 12 17 12C16.4562 12 16.0099 11.6002 15.9303 11.0813C15.4888 8.20396 13.0008 6 10 6ZM17.7624 10.0578C20.1619 10.4249 22 12.4978 22 15C22 17.7614 19.7614 20 17 20H10C5.58172 20 2 16.4183 2 12C2 7.58172 5.58172 4 10 4C13.7489 4 16.8941 6.57783 17.7624 10.0578Z" fill="black"/>
</svg>
