<svg width="24" height="24" viewBox="0 0 24 24" fill="none" xmlns="http://www.w3.org/2000/svg">
<path fill-rule="evenodd" clip-rule="evenodd" d="M10 4C6.68629 4 4 6.68629 4 10C4 11.4347 4.50228 12.7493 5.34149 13.7817C5.68986 14.2102 5.62488 14.84 5.19633 15.1884C4.76779 15.5368 4.13796 15.4718 3.78959 15.0432C2.67112 13.6674 2 11.9107 2 10C2 5.58172 5.58172 2 10 2C13.7489 2 16.8941 4.57783 17.7624 8.05775C20.1619 8.42486 22 10.4978 22 13C22 14.3892 21.4322 15.6476 20.5184 16.5526C20.126 16.9412 19.4928 16.9382 19.1042 16.5458C18.7156 16.1534 18.7186 15.5202 19.111 15.1316C19.6611 14.5868 20 13.8339 20 13C20 11.3431 18.6569 10 17 10C16.4562 10 16.0099 9.60015 15.9303 9.08133C15.4888 6.20396 13.0008 4 10 4Z" fill="black"/>
<path fill-rule="evenodd" clip-rule="evenodd" d="M12.4472 8.10557C12.9412 8.35256 13.1414 8.95324 12.8944 9.44721L10.618 14H14C14.3466 14 14.6684 14.1795 14.8507 14.4743C15.0329 14.7691 15.0494 15.1372 14.8944 15.4472L11.8944 21.4472C11.6474 21.9412 11.0468 22.1414 10.5528 21.8944C10.0588 21.6474 9.85858 21.0468 10.1056 20.5528L12.382 16H9C8.65342 16 8.33156 15.8205 8.14935 15.5257C7.96714 15.2309 7.95058 14.8628 8.10557 14.5528L11.1056 8.55279C11.3526 8.05881 11.9532 7.85858 12.4472 8.10557Z" fill="black"/>
</svg>
