<svg width="24" height="24" viewBox="0 0 24 24" fill="none" xmlns="http://www.w3.org/2000/svg">
<path d="M12.7071 7.29289C13.0976 7.68342 13.0976 8.31658 12.7071 8.70711L10.4142 11H16C16.5523 11 17 11.4477 17 12C17 12.5523 16.5523 13 16 13H10.4142L12.7071 15.2929C13.0976 15.6834 13.0976 16.3166 12.7071 16.7071C12.3166 17.0977 11.6834 17.0977 11.2929 16.7071L7.29289 12.7071C7.19473 12.609 7.12123 12.4955 7.07242 12.3743C7.02572 12.2587 7 12.1324 7 12C7 11.7395 7.09959 11.5023 7.26278 11.3243C7.27369 11.3124 7.28489 11.3008 7.29636 11.2894L11.2929 7.29289C11.6834 6.90237 12.3166 6.90237 12.7071 7.29289Z" fill="black"/>
<path fill-rule="evenodd" clip-rule="evenodd" d="M2 12C2 17.5228 6.47715 22 12 22C17.5228 22 22 17.5228 22 12C22 6.47715 17.5228 2 12 2C6.47715 2 2 6.47715 2 12ZM12 20C7.58172 20 4 16.4183 4 12C4 7.58172 7.58172 4 12 4C16.4183 4 20 7.58172 20 12C20 16.4183 16.4183 20 12 20Z" fill="black"/>
</svg>
