<svg width="24" height="24" viewBox="0 0 24 24" fill="none" xmlns="http://www.w3.org/2000/svg">
<path d="M5 2C5.55228 2 6 2.44772 6 3V10C6 10.5523 5.55228 11 5 11C4.44772 11 4 10.5523 4 10V3C4 2.44772 4.44772 2 5 2Z" fill="black"/>
<path d="M6 15H7C7.55228 15 8 14.5523 8 14C8 13.4477 7.55228 13 7 13H3C2.44772 13 2 13.4477 2 14C2 14.5523 2.44772 15 3 15H4V21C4 21.5523 4.44772 22 5 22C5.55228 22 6 21.5523 6 21V15Z" fill="black"/>
<path d="M14 11H13V21C13 21.5523 12.5523 22 12 22C11.4477 22 11 21.5523 11 21V11H10C9.44772 11 9 10.5523 9 10C9 9.44772 9.44772 9 10 9H14C14.5523 9 15 9.44772 15 10C15 10.5523 14.5523 11 14 11Z" fill="black"/>
<path d="M12 2C12.5523 2 13 2.44772 13 3V6C13 6.55228 12.5523 7 12 7C11.4477 7 11 6.55228 11 6V3C11 2.44772 11.4477 2 12 2Z" fill="black"/>
<path d="M20 3C20 2.44772 19.5523 2 19 2C18.4477 2 18 2.44772 18 3V14C18 14.5523 18.4477 15 19 15C19.5523 15 20 14.5523 20 14V3Z" fill="black"/>
<path d="M20 19H21C21.5523 19 22 18.5523 22 18C22 17.4477 21.5523 17 21 17H17C16.4477 17 16 17.4477 16 18C16 18.5523 16.4477 19 17 19H18V21C18 21.5523 18.4477 22 19 22C19.5523 22 20 21.5523 20 21V19Z" fill="black"/>
</svg>
