<svg width="24" height="24" viewBox="0 0 24 24" fill="none" xmlns="http://www.w3.org/2000/svg">
<path fill-rule="evenodd" clip-rule="evenodd" d="M4 5C4 3.34315 5.34315 2 7 2H17C18.6569 2 20 3.34315 20 5V21C20 21.3905 19.7727 21.7453 19.4179 21.9085C19.0631 22.0717 18.6457 22.0134 18.3492 21.7593L12 16.3171L5.65079 21.7593C5.35428 22.0134 4.93694 22.0717 4.58214 21.9085C4.22734 21.7453 4 21.3905 4 21V5ZM7 4C6.44772 4 6 4.44772 6 5V18.8258L11.3492 14.2407C11.7237 13.9198 12.2763 13.9198 12.6508 14.2407L18 18.8258V5C18 4.44772 17.5523 4 17 4H7Z" fill="black"/>
</svg>
