<svg width="24" height="24" viewBox="0 0 24 24" fill="none" xmlns="http://www.w3.org/2000/svg">
<path fill-rule="evenodd" clip-rule="evenodd" d="M7.71429 4C7.36521 4 7 4.31163 7 4.8V19.2C7 19.6884 7.36521 20 7.71429 20H16.2857C16.6348 20 17 19.6884 17 19.2V4.8C17 4.31163 16.6348 4 16.2857 4H7.71429ZM5 4.8C5 3.30014 6.16981 2 7.71429 2H16.2857C17.8302 2 19 3.30014 19 4.8V19.2C19 20.6999 17.8302 22 16.2857 22H7.71429C6.16981 22 5 20.6999 5 19.2V4.8Z" fill="black"/>
<path d="M13 17C13 17.5523 12.5523 18 12 18C11.4477 18 11 17.5523 11 17C11 16.4477 11.4477 16 12 16C12.5523 16 13 16.4477 13 17Z" fill="black"/>
</svg>
