<svg width="24" height="24" viewBox="0 0 24 24" fill="none" xmlns="http://www.w3.org/2000/svg">
<path fill-rule="evenodd" clip-rule="evenodd" d="M12 4C7.58172 4 4 7.58172 4 12C4 16.4183 7.58172 20 12 20C16.4183 20 20 16.4183 20 12C20 7.58172 16.4183 4 12 4ZM2 12C2 6.47715 6.47715 2 12 2C17.5228 2 22 6.47715 22 12C22 17.5228 17.5228 22 12 22C6.47715 22 2 17.5228 2 12Z" fill="black"/>
<path d="M13 16C13 16.5523 12.5523 17 12 17C11.4477 17 11 16.5523 11 16C11 15.4477 11.4477 15 12 15C12.5523 15 13 15.4477 13 16Z" fill="black"/>
<path fill-rule="evenodd" clip-rule="evenodd" d="M12 9C11.4477 9 11 9.44772 11 10C11 10.5523 10.5523 11 10 11C9.44772 11 9 10.5523 9 10C9 8.34315 10.3431 7 12 7C13.6569 7 15 8.34315 15 10C15 11.2242 14.1846 12.0447 13.6306 12.4949C13.4018 12.6808 13.1695 12.8409 13 12.9564V13.25C13 13.8023 12.5523 14.25 12 14.25C11.4477 14.25 11 13.8023 11 13.25V12.5C11 12.1642 11.1585 11.9328 11.2216 11.8484C11.2981 11.746 11.3804 11.6704 11.4313 11.6264C11.5341 11.5373 11.6567 11.4522 11.746 11.3908C11.7813 11.3665 11.8166 11.3425 11.8518 11.3185C12.0241 11.2009 12.1948 11.0845 12.3694 10.9426C12.8154 10.5803 13 10.2758 13 10C13 9.44772 12.5523 9 12 9Z" fill="black"/>
</svg>
