<svg width="24" height="24" viewBox="0 0 24 24" fill="none" xmlns="http://www.w3.org/2000/svg">
<path fill-rule="evenodd" clip-rule="evenodd" d="M14.0603 3.4464C14.7578 3.15186 15.5061 3 16.2623 3C17.0185 3 17.7668 3.15186 18.4643 3.4464C19.1617 3.74092 19.7942 4.17208 20.326 4.71431C20.8578 5.25617 21.2788 5.89847 21.5656 6.60406C21.8526 7.30976 22 8.06552 22 8.82833C22 9.59113 21.8526 10.3469 21.5656 11.0526C21.2787 11.7583 20.8577 12.4006 20.3258 12.9425L12.7135 20.7004C12.5255 20.892 12.2683 21 11.9998 21C11.7313 21 11.474 20.892 11.286 20.7004L3.67373 12.9425C2.59994 11.8482 2 10.3679 2 8.82833C2 7.28873 2.59995 5.80847 3.67373 4.71414C4.74815 3.61917 6.20946 3.00047 7.73725 3.00047C9.26504 3.00047 10.7263 3.61917 11.8008 4.71414L11.9998 4.91696L12.1986 4.71431C12.7304 4.17216 13.3629 3.74089 14.0603 3.4464ZM18.8981 6.11473C18.5503 5.76006 18.1383 5.47975 17.6862 5.28886C17.2342 5.09799 16.7504 5 16.2623 5C15.7742 5 15.2904 5.09799 14.8384 5.28886C14.3863 5.47975 13.9743 5.76006 13.6265 6.11473L12.7135 7.04513C12.5255 7.23678 12.2683 7.34476 11.9998 7.34476C11.7313 7.34476 11.474 7.23678 11.286 7.04513L10.3732 6.11489C9.67082 5.39907 8.72225 5.00047 7.73725 5.00047C6.75225 5.00047 5.80367 5.39907 5.10128 6.11489C4.39826 6.83136 4 7.80707 4 8.82833C4 9.84959 4.39826 10.8253 5.10128 11.5418L11.9998 18.5722L18.8983 11.5418C19.2463 11.1872 19.5235 10.7651 19.7129 10.2993C19.9023 9.83352 20 9.33361 20 8.82833C20 8.32304 19.9023 7.82314 19.7129 7.35733C19.5235 6.89156 19.2461 6.46926 18.8981 6.11473Z" fill="black"/>
</svg>
