<svg width="24" height="24" viewBox="0 0 24 24" fill="none" xmlns="http://www.w3.org/2000/svg">
<path d="M14 13C14 12.4477 14.4477 12 15 12H17C17.5523 12 18 12.4477 18 13C18 13.5523 17.5523 14 17 14H15C14.4477 14 14 13.5523 14 13Z" fill="black"/>
<path d="M15 9C14.4477 9 14 9.44772 14 10C14 10.5523 14.4477 11 15 11H18C18.5523 11 19 10.5523 19 10C19 9.44772 18.5523 9 18 9H15Z" fill="black"/>
<path fill-rule="evenodd" clip-rule="evenodd" d="M6 10.25C6 8.59315 7.34315 7.25 9 7.25C10.6569 7.25 12 8.59315 12 10.25C12 11.1136 11.6351 11.8919 11.0511 12.4393C12.1895 12.8652 13 13.963 13 15.25V15.75C13 16.3023 12.5523 16.75 12 16.75C11.4477 16.75 11 16.3023 11 15.75V15.25C11 14.6977 10.5523 14.25 10 14.25H8C7.44772 14.25 7 14.6977 7 15.25V15.75C7 16.3023 6.55228 16.75 6 16.75C5.44772 16.75 5 16.3023 5 15.75V15.25C5 13.963 5.81048 12.8652 6.94889 12.4393C6.36489 11.8919 6 11.1136 6 10.25ZM9 9.25C8.44772 9.25 8 9.69772 8 10.25C8 10.8023 8.44772 11.25 9 11.25C9.55228 11.25 10 10.8023 10 10.25C10 9.69772 9.55228 9.25 9 9.25Z" fill="black"/>
<path fill-rule="evenodd" clip-rule="evenodd" d="M2 7C2 5.34315 3.34315 4 5 4H19C20.6569 4 22 5.34315 22 7V17C22 18.6569 20.6569 20 19 20H5C3.34315 20 2 18.6569 2 17V7ZM5 6C4.44772 6 4 6.44772 4 7V17C4 17.5523 4.44772 18 5 18H19C19.5523 18 20 17.5523 20 17V7C20 6.44772 19.5523 6 19 6H5Z" fill="black"/>
</svg>
