<svg width="24" height="24" viewBox="0 0 24 24" fill="none" xmlns="http://www.w3.org/2000/svg">
<path d="M6.49998 16C7.32841 16 7.99998 15.3284 7.99998 14.5C7.99998 13.6716 7.32841 13 6.49998 13C5.67156 13 4.99998 13.6716 4.99998 14.5C4.99998 15.3284 5.67156 16 6.49998 16Z" fill="black"/>
<path d="M17.5 16C18.3284 16 19 15.3284 19 14.5C19 13.6716 18.3284 13 17.5 13C16.6716 13 16 13.6716 16 14.5C16 15.3284 16.6716 16 17.5 16Z" fill="black"/>
<path fill-rule="evenodd" clip-rule="evenodd" d="M4.03846 3.72528C4.16112 3.29598 4.5535 3 4.99998 3H19C19.4465 3 19.8389 3.29598 19.9615 3.72528L21.9552 10.703C21.9843 10.7969 22 10.8966 22 11V21C22 21.5523 21.5523 22 21 22H19C18.4477 22 18 21.5523 18 21V19H5.99998V21C5.99998 21.5523 5.55227 22 4.99998 22H2.99998C2.4477 22 1.99998 21.5523 1.99998 21V11C1.99998 10.8966 2.01568 10.7969 2.04481 10.7031L4.03846 3.72528ZM3.99998 17H20V12H3.99998V17ZM18.2457 5L19.6743 10H4.32571L5.75429 5H18.2457Z" fill="black"/>
</svg>
