<svg width="24" height="24" viewBox="0 0 24 24" fill="none" xmlns="http://www.w3.org/2000/svg">
<path d="M16.7071 12.7071C16.3166 13.0976 15.6834 13.0976 15.2929 12.7071L13 10.4142V16C13 16.5523 12.5523 17 12 17C11.4477 17 11 16.5523 11 16V10.4142L8.70707 12.7071C8.31655 13.0976 7.68338 13.0976 7.29286 12.7071C6.90234 12.3166 6.90234 11.6834 7.29286 11.2929L11.2929 7.29289C11.391 7.19473 11.5045 7.12123 11.6257 7.07242C11.7413 7.02572 11.8676 7 12 7C12.2605 7 12.4977 7.09959 12.6757 7.26278C12.6876 7.27369 12.6992 7.28489 12.7106 7.29636L16.7071 11.2929C17.0976 11.6834 17.0976 12.3166 16.7071 12.7071Z" fill="black"/>
<path fill-rule="evenodd" clip-rule="evenodd" d="M12 2C6.47715 2 2 6.47715 2 12C2 17.5228 6.47715 22 12 22C17.5228 22 22 17.5228 22 12C22 6.47715 17.5228 2 12 2ZM4 12C4 7.58172 7.58172 4 12 4C16.4183 4 20 7.58172 20 12C20 16.4183 16.4183 20 12 20C7.58172 20 4 16.4183 4 12Z" fill="black"/>
</svg>
