<svg width="24" height="24" viewBox="0 0 24 24" fill="none" xmlns="http://www.w3.org/2000/svg">
<path d="M10 4C6.68629 4 4 6.68629 4 10C4 11.4347 4.50228 12.7493 5.34149 13.7817C5.68986 14.2102 5.62488 14.84 5.19633 15.1884C4.76779 15.5368 4.13796 15.4718 3.78959 15.0432C2.67112 13.6674 2 11.9107 2 10C2 5.58172 5.58172 2 10 2C13.7489 2 16.8941 4.57783 17.7624 8.05775C20.1619 8.42486 22 10.4978 22 13C22 14.3892 21.4322 15.6476 20.5184 16.5526C20.126 16.9412 19.4928 16.9382 19.1042 16.5458C18.7156 16.1534 18.7186 15.5202 19.111 15.1316C19.6611 14.5868 20 13.8339 20 13C20 11.3431 18.6569 10 17 10C16.4562 10 16.0099 9.60015 15.9303 9.08133C15.4888 6.20396 13.0008 4 10 4Z" fill="black"/>
<path d="M16.7072 16.7071C16.3166 17.0976 15.6835 17.0976 15.293 16.7071L13.0001 14.4142V21C13.0001 21.5523 12.5523 22 12.0001 22C11.4478 22 11.0001 21.5523 11.0001 21V14.4142L8.70714 16.7071C8.31661 17.0976 7.68345 17.0976 7.29292 16.7071C6.9024 16.3166 6.9024 15.6834 7.29292 15.2929L11.2929 11.2929C11.3911 11.1947 11.5046 11.1212 11.6257 11.0724C11.7387 11.0268 11.8618 11.0012 11.9908 11C11.9939 11 11.997 11 12.0001 11L12.0031 11C12.1408 11.0004 12.272 11.0287 12.3913 11.0794C12.4934 11.1228 12.5898 11.1839 12.6757 11.2628C12.6876 11.2737 12.6993 11.2849 12.7106 11.2964L16.7072 15.2929C17.0977 15.6834 17.0977 16.3166 16.7072 16.7071Z" fill="black"/>
</svg>
