<svg width="24" height="24" viewBox="0 0 24 24" fill="none" xmlns="http://www.w3.org/2000/svg">
<path fill-rule="evenodd" clip-rule="evenodd" d="M12 16C12.5523 16 13 16.4477 13 17V21C13 21.5523 12.5523 22 12 22C11.4477 22 11 21.5523 11 21V17C11 16.4477 11.4477 16 12 16Z" fill="black"/>
<path fill-rule="evenodd" clip-rule="evenodd" d="M12 2C12.5523 2 13 2.44772 13 3V7C13 7.55228 12.5523 8 12 8C11.4477 8 11 7.55228 11 7V3C11 2.44772 11.4477 2 12 2Z" fill="black"/>
<path fill-rule="evenodd" clip-rule="evenodd" d="M16 12C16 11.4477 16.4477 11 17 11H21C21.5523 11 22 11.4477 22 12C22 12.5523 21.5523 13 21 13H17C16.4477 13 16 12.5523 16 12Z" fill="black"/>
<path fill-rule="evenodd" clip-rule="evenodd" d="M2 12C2 11.4477 2.44772 11 3 11H7C7.55228 11 8 11.4477 8 12C8 12.5523 7.55228 13 7 13H3C2.44772 13 2 12.5523 2 12Z" fill="black"/>
<path fill-rule="evenodd" clip-rule="evenodd" d="M9.17156 14.8284C9.56209 15.2189 9.56209 15.8521 9.17156 16.2426L6.34314 19.071C5.95261 19.4615 5.31945 19.4615 4.92892 19.071C4.5384 18.6805 4.5384 18.0473 4.92892 17.6568L7.75735 14.8284C8.14788 14.4378 8.78104 14.4378 9.17156 14.8284Z" fill="black"/>
<path fill-rule="evenodd" clip-rule="evenodd" d="M19.0711 4.92888C19.4616 5.3194 19.4616 5.95257 19.0711 6.34309L16.2426 9.17152C15.8521 9.56204 15.2189 9.56204 14.8284 9.17152C14.4379 8.781 14.4379 8.14783 14.8284 7.75731L17.6568 4.92888C18.0474 4.53836 18.6805 4.53836 19.0711 4.92888Z" fill="black"/>
<path fill-rule="evenodd" clip-rule="evenodd" d="M14.8284 14.8284C15.219 14.4379 15.8521 14.4379 16.2426 14.8284L19.0711 17.6568C19.4616 18.0473 19.4616 18.6805 19.0711 19.071C18.6806 19.4615 18.0474 19.4615 17.6569 19.071L14.8284 16.2426C14.4379 15.8521 14.4379 15.2189 14.8284 14.8284Z" fill="black"/>
<path fill-rule="evenodd" clip-rule="evenodd" d="M4.92894 4.92888C5.31946 4.53836 5.95263 4.53836 6.34315 4.92888L9.17158 7.75731C9.56211 8.14783 9.56211 8.781 9.17158 9.17152C8.78106 9.56204 8.14789 9.56204 7.75737 9.17152L4.92894 6.34309C4.53842 5.95257 4.53842 5.3194 4.92894 4.92888Z" fill="black"/>
</svg>
