<svg width="24" height="24" viewBox="0 0 24 24" fill="none" xmlns="http://www.w3.org/2000/svg">
<path fill-rule="evenodd" clip-rule="evenodd" d="M3.00192 3.93867C3.00035 3.96388 2.99973 3.98916 3.00008 4.01447V14.9884C2.99997 14.9967 2.99997 15.0051 3.00008 15.0134V21C3.00008 21.5522 3.44779 22 4.00008 22C4.55236 22 5.00008 21.5522 5.00008 21V15.5975C5.29625 15.4655 5.73796 15.3049 6.31251 15.1952C7.50093 14.9685 9.30059 14.9514 11.613 15.9221L11.6344 15.9308C14.3136 16.9833 16.5015 16.9978 18.0509 16.7211C18.8211 16.5835 19.4251 16.3756 19.8459 16.1959C20.0564 16.106 20.2213 16.0231 20.3388 15.9593C20.3976 15.9273 20.4445 15.9001 20.4795 15.8792C20.4969 15.8688 20.5114 15.8598 20.5228 15.8527L20.5376 15.8433L20.5433 15.8396L20.5457 15.838L20.5469 15.8373C20.5469 15.8373 20.5479 15.8366 20.0001 15L20.5479 15.8366C20.8301 15.6519 21.0001 15.3373 21.0001 15V3.99997C21.0001 3.62988 20.7957 3.29004 20.4687 3.11659C20.1443 2.94449 19.7519 2.96413 19.4465 3.16719L19.4381 3.17246C19.4267 3.17954 19.4044 3.19303 19.3715 3.21152C19.3057 3.24853 19.1976 3.30539 19.0492 3.37092C18.7524 3.50201 18.2957 3.66725 17.6935 3.77847C16.4989 3.9991 14.6931 4.01483 12.3765 3.07353C9.69309 1.98318 7.49892 1.96746 5.94345 2.25476C5.17065 2.3975 4.56488 2.6132 4.14294 2.79956C3.93195 2.89275 3.76659 2.97874 3.64885 3.04491C3.58996 3.078 3.54291 3.10618 3.50793 3.12787C3.49452 3.13619 3.48288 3.14356 3.47302 3.14989C3.42337 3.18074 3.37663 3.21581 3.33329 3.25461C3.25495 3.32452 3.18978 3.40483 3.13846 3.49201C3.06028 3.62436 3.01172 3.77629 3.00192 3.93867ZM5.00008 13.4649C5.27808 13.378 5.59111 13.2968 5.93766 13.2307C7.49711 12.9331 9.69356 12.9498 12.3761 14.0733C14.692 14.981 16.5004 14.9663 17.6993 14.7522C18.2646 14.6513 18.7021 14.5045 19.0001 14.3819V5.51658C18.7207 5.60139 18.4058 5.68074 18.0567 5.74521C16.5012 6.0325 14.3071 6.01677 11.6236 4.92642C9.30707 3.98513 7.50125 4.00086 6.30671 4.22149C5.73679 4.32676 5.29716 4.48041 5.00008 4.6077V13.4649Z" fill="black"/>
</svg>
