<svg width="24" height="24" viewBox="0 0 24 24" fill="none" xmlns="http://www.w3.org/2000/svg">
<path fill-rule="evenodd" clip-rule="evenodd" d="M18.7071 4.29288C18.3166 3.90235 17.6834 3.90235 17.2929 4.29288L12 9.58579L6.7071 4.29288C6.31658 3.90235 5.68341 3.90235 5.29289 4.29288C4.90236 4.6834 4.90236 5.31657 5.29289 5.70709L11.2929 11.7071C11.6834 12.0976 12.3166 12.0976 12.7071 11.7071L18.7071 5.70709C19.0977 5.31657 19.0977 4.6834 18.7071 4.29288Z" fill="black"/>
<path fill-rule="evenodd" clip-rule="evenodd" d="M18.7071 12.2929C18.3166 11.9024 17.6834 11.9024 17.2929 12.2929L12 17.5858L6.7071 12.2929C6.31658 11.9024 5.68341 11.9024 5.29289 12.2929C4.90236 12.6834 4.90236 13.3166 5.29289 13.7071L11.2929 19.7071C11.6834 20.0976 12.3166 20.0976 12.7071 19.7071L18.7071 13.7071C19.0977 13.3166 19.0977 12.6834 18.7071 12.2929Z" fill="black"/>
</svg>
