<svg width="24" height="24" viewBox="0 0 24 24" fill="none" xmlns="http://www.w3.org/2000/svg">
<path d="M8 20C8.55228 20 9 20.4477 9 21C9 21.5523 8.55228 22 8 22H5C3.34315 22 2 20.6569 2 19V5C2 3.34315 3.34315 2 5 2H8C8.55228 2 9 2.44772 9 3C9 3.55228 8.55228 4 8 4H5C4.44772 4 4 4.44772 4 5V19C4 19.5523 4.44772 20 5 20H8Z" fill="black"/>
<path d="M14.2929 5.29289C13.9024 5.68342 13.9024 6.31658 14.2929 6.70711L18.5858 11H8C7.44771 11 7 11.4477 7 12C7 12.5523 7.44771 13 8 13H18.5858L14.2929 17.2929C13.9024 17.6834 13.9024 18.3166 14.2929 18.7071C14.6834 19.0977 15.3166 19.0977 15.7071 18.7071L21.7071 12.7071C21.8053 12.609 21.8788 12.4955 21.9276 12.3743C21.9732 12.2614 21.9988 12.1382 22 12.0092L22 12L22 11.997C21.9992 11.7377 21.8998 11.5016 21.7372 11.3243C21.7263 11.3124 21.7151 11.3008 21.7036 11.2895L15.7071 5.29289C15.3166 4.90237 14.6834 4.90237 14.2929 5.29289Z" fill="black"/>
</svg>
