<svg width="24" height="24" viewBox="0 0 24 24" fill="none" xmlns="http://www.w3.org/2000/svg">
<path fill-rule="evenodd" clip-rule="evenodd" d="M21.5847 3.18877C21.8455 3.37672 22 3.67856 22 4.00001V19C22 19.4304 21.7246 19.8126 21.3162 19.9487L15.3162 21.9487C15.111 22.0171 14.889 22.0171 14.6838 21.9487L9 20.0541L3.31623 21.9487C3.01128 22.0503 2.67606 21.9992 2.41529 21.8113C2.15452 21.6233 2 21.3215 2 21V6.00001C2 5.56958 2.27543 5.18744 2.68377 5.05132L8.68377 3.05132C8.88904 2.9829 9.11096 2.9829 9.31623 3.05132L15 4.94591L20.6838 3.05132C20.9887 2.94967 21.3239 3.00081 21.5847 3.18877ZM4 6.72077V19.6126L8.68377 18.0513C8.88904 17.9829 9.11096 17.9829 9.31623 18.0513L15 19.9459L20 18.2792V5.38743L15.3162 6.94869C15.111 7.01711 14.889 7.01711 14.6838 6.94869L9 5.0541L4 6.72077Z" fill="black"/>
<path fill-rule="evenodd" clip-rule="evenodd" d="M9 3.50001C9.55228 3.50001 10 3.94772 10 4.50001V18.5C10 19.0523 9.55228 19.5 9 19.5C8.44772 19.5 8 19.0523 8 18.5V4.50001C8 3.94772 8.44772 3.50001 9 3.50001Z" fill="black"/>
<path fill-rule="evenodd" clip-rule="evenodd" d="M15 5.50001C15.5523 5.50001 16 5.94772 16 6.50001V20.5C16 21.0523 15.5523 21.5 15 21.5C14.4477 21.5 14 21.0523 14 20.5V6.50001C14 5.94772 14.4477 5.50001 15 5.50001Z" fill="black"/>
</svg>
