<svg width="24" height="24" viewBox="0 0 24 24" fill="none" xmlns="http://www.w3.org/2000/svg">
<path fill-rule="evenodd" clip-rule="evenodd" d="M15.9584 3.03942C17.3405 1.65353 19.5825 1.65353 20.9646 3.03942C22.3451 4.42379 22.3451 6.66716 20.9646 8.05153L8.54562 20.5047C8.41694 20.6337 8.25544 20.7251 8.07858 20.7691L3.24101 21.9705C2.89877 22.0555 2.53706 21.954 2.28906 21.7033C2.04106 21.4526 1.94343 21.0898 2.03212 20.7485L3.27974 15.9472C3.32441 15.7753 3.41408 15.6184 3.53951 15.4926L15.9584 3.03942ZM19.5484 4.45169C18.9478 3.84944 17.9752 3.84944 17.3746 4.45168L5.14723 16.7128L4.39068 19.6242L7.32616 18.8952L19.5484 6.63926C20.1505 6.03549 20.1505 5.05545 19.5484 4.45169Z" fill="black"/>
</svg>
