<svg width="24" height="24" viewBox="0 0 24 24" fill="none" xmlns="http://www.w3.org/2000/svg">
<path fill-rule="evenodd" clip-rule="evenodd" d="M17 2C16.4477 2 16 2.44772 16 3V5H14V3C14 2.44772 13.5523 2 13 2C12.4477 2 12 2.44772 12 3V5H11C9.89543 5 9 5.89543 9 7V9C9 11.973 11.1623 14.441 14 14.917V18.25C14 19.2165 13.2165 20 12.25 20C11.2835 20 10.5 19.2165 10.5 18.25V17.4423C10.5 15.3712 8.82107 13.6923 6.75 13.6923C4.67893 13.6923 3 15.3712 3 17.4423V18.3846C3 18.9369 3.44772 19.3846 4 19.3846C4.55228 19.3846 5 18.9369 5 18.3846V17.4423C5 16.4758 5.7835 15.6923 6.75 15.6923C7.7165 15.6923 8.5 16.4758 8.5 17.4423V18.25C8.5 20.3211 10.1789 22 12.25 22C14.3211 22 16 20.3211 16 18.25V14.917C18.8377 14.441 21 11.973 21 9V7C21 5.89543 20.1046 5 19 5H18V3C18 2.44772 17.5523 2 17 2ZM19 7V9C19 11.2091 17.2091 13 15 13C12.7909 13 11 11.2091 11 9V7H19Z" fill="black"/>
</svg>
