<svg width="24" height="24" viewBox="0 0 24 24" fill="none" xmlns="http://www.w3.org/2000/svg">
<path fill-rule="evenodd" clip-rule="evenodd" d="M12 4C7.58172 4 4 7.58172 4 12C4 16.4183 7.58172 20 12 20C16.4183 20 20 16.4183 20 12C20 7.58172 16.4183 4 12 4ZM2 12C2 6.47715 6.47715 2 12 2C17.5228 2 22 6.47715 22 12C22 17.5228 17.5228 22 12 22C6.47715 22 2 17.5228 2 12Z" fill="black"/>
<path fill-rule="evenodd" clip-rule="evenodd" d="M16.7071 7.29289C16.9812 7.56699 17.0722 7.97481 16.9406 8.33943L14.8193 14.2181C14.7183 14.498 14.498 14.7183 14.2181 14.8193L8.33943 16.9406C7.97481 17.0722 7.56699 16.9812 7.29289 16.7071C7.01879 16.433 6.92779 16.0252 7.05937 15.6606L9.18069 9.78189C9.28167 9.50203 9.50203 9.28167 9.78189 9.18069L15.6606 7.05937C16.0252 6.92779 16.433 7.01879 16.7071 7.29289ZM10.9025 10.9025L9.66332 14.3367L13.0975 13.0975L14.3367 9.66332L10.9025 10.9025Z" fill="black"/>
</svg>
