<svg width="24" height="24" viewBox="0 0 24 24" fill="none" xmlns="http://www.w3.org/2000/svg">
<path fill-rule="evenodd" clip-rule="evenodd" d="M9.0254 2.00033C9.46506 2.0115 9.84581 2.3086 9.96352 2.73236L14.087 17.5768L16.0513 11.6838C16.1874 11.2754 16.5696 11 17 11H21C21.5523 11 22 11.4477 22 12C22 12.5523 21.5523 13 21 13H17.7208L14.9487 21.3162C14.8096 21.7335 14.4143 22.0108 13.9746 21.9997C13.5349 21.9885 13.1542 21.6914 13.0365 21.2676L8.91303 6.4232L6.94868 12.3162C6.81257 12.7246 6.43043 13 6 13H3C2.44772 13 2 12.5523 2 12C2 11.4477 2.44772 11 3 11H5.27924L8.05132 2.68378C8.19039 2.26654 8.58574 1.98915 9.0254 2.00033Z" fill="black"/>
</svg>
