<svg width="24" height="24" viewBox="0 0 24 24" fill="none" xmlns="http://www.w3.org/2000/svg">
<path fill-rule="evenodd" clip-rule="evenodd" d="M15.6044 4.06119C14.0224 3.81636 12.3497 4.30395 11.1322 5.52147C9.60811 7.04563 9.22762 9.28304 9.99669 11.1639C10.2146 11.6968 10.1342 12.36 9.67297 12.8213L4.31122 18.1832C3.89621 18.5982 3.89585 19.2711 4.31259 19.6878C4.72874 20.104 5.40251 20.1039 5.81808 19.6883L11.1774 14.3289C11.6352 13.871 12.2986 13.7837 12.8363 14.0036C14.7171 14.7727 16.9544 14.3922 18.4785 12.868C19.696 11.6505 20.1836 9.97775 19.9388 8.39569L17.7015 10.633C16.9064 11.4282 15.6206 11.4242 14.8283 10.6319L13.3682 9.17178C12.5755 8.37906 12.5727 7.09297 13.3674 6.29824L15.6044 4.06119ZM9.718 4.10727C11.9342 1.89104 15.2343 1.42422 17.9074 2.70117C18.2003 2.8411 18.407 3.1145 18.4619 3.43444C18.5168 3.75438 18.413 4.08106 18.1834 4.3106L14.7817 7.71244C14.77 7.72412 14.7688 7.7439 14.7825 7.75758L16.2426 9.21769C16.2566 9.23179 16.276 9.23006 16.2873 9.21882L19.6894 5.81665C19.9189 5.5871 20.2456 5.48326 20.5655 5.53814C20.8855 5.59302 21.1589 5.79979 21.2988 6.09271C22.5757 8.76577 22.1089 12.066 19.8928 14.2822C17.8571 16.3179 14.9067 16.8774 12.3688 15.9659L7.23231 21.1025C6.03511 22.2997 4.09498 22.2987 2.89836 21.102C1.70233 19.906 1.69922 17.9667 2.89699 16.769L8.03438 11.6314C7.12289 9.09346 7.68233 6.14299 9.718 4.10727Z" fill="black"/>
</svg>
