<svg width="24" height="24" viewBox="0 0 24 24" fill="none" xmlns="http://www.w3.org/2000/svg">
<path fill-rule="evenodd" clip-rule="evenodd" d="M21.1924 9.29289C21.5829 9.68341 21.5829 10.3166 21.1924 10.7071L19.6568 12.2426L20.9498 13.5356C21.3403 13.9261 21.3403 14.5593 20.9498 14.9498C20.5592 15.3403 19.9261 15.3403 19.5355 14.9498L18.2426 13.6569L16.9497 14.9498C16.5592 15.3403 15.926 15.3403 15.5355 14.9498C15.145 14.5592 15.145 13.9261 15.5355 13.5355L16.8284 12.2427L15.2929 10.7072C14.9024 10.3166 14.9024 9.68347 15.2929 9.29295C15.6834 8.90242 16.3166 8.90242 16.7071 9.29294L18.2426 10.8284L19.7781 9.2929C20.1687 8.90237 20.8018 8.90237 21.1924 9.29289Z" fill="black"/>
<path fill-rule="evenodd" clip-rule="evenodd" d="M9 4C7.34315 4 6 5.34315 6 7C6 8.65685 7.34315 10 9 10C10.6569 10 12 8.65685 12 7C12 5.34315 10.6569 4 9 4ZM4 7C4 4.23858 6.23858 2 9 2C11.7614 2 14 4.23858 14 7C14 9.76142 11.7614 12 9 12C6.23858 12 4 9.76142 4 7Z" fill="black"/>
<path fill-rule="evenodd" clip-rule="evenodd" d="M2 19C2 16.2386 4.23858 14 7 14H11C13.7614 14 16 16.2386 16 19V21C16 21.5523 15.5523 22 15 22C14.4477 22 14 21.5523 14 21V19C14 17.3431 12.6569 16 11 16H7C5.34315 16 4 17.3431 4 19V21C4 21.5523 3.55228 22 3 22C2.44772 22 2 21.5523 2 21V19Z" fill="black"/>
</svg>
