<svg width="24" height="24" viewBox="0 0 24 24" fill="none" xmlns="http://www.w3.org/2000/svg">
<path d="M9.99998 17C9.4477 17 8.99998 17.4477 8.99998 18C8.99998 18.5523 9.4477 19 9.99998 19H14C14.5523 19 15 18.5523 15 18C15 17.4477 14.5523 17 14 17H9.99998Z" fill="black"/>
<path fill-rule="evenodd" clip-rule="evenodd" d="M3.99998 4C3.99998 2.89543 4.89542 2 5.99998 2H18C19.1046 2 20 2.89543 20 4V13.8599L21.5973 19.4506C21.9624 20.7282 21.003 22 19.6743 22H4.32573C2.99697 22 2.03764 20.7282 2.40268 19.4506L3.99998 13.86V4ZM18 4V13H5.99998V4L18 4ZM19.6743 20H4.32573L5.7543 15H18.2457L19.6743 20Z" fill="black"/>
</svg>
