<svg width="24" height="24" viewBox="0 0 24 24" fill="none" xmlns="http://www.w3.org/2000/svg">
<path d="M16.7071 11.2929C16.3166 10.9024 15.6834 10.9024 15.2929 11.2929L13 13.5858V8C13 7.44771 12.5523 7 12 7C11.4477 7 11 7.44771 11 8V13.5858L8.70707 11.2929C8.31655 10.9024 7.68338 10.9024 7.29286 11.2929C6.90234 11.6834 6.90234 12.3166 7.29286 12.7071L11.2929 16.7071C11.391 16.8053 11.5045 16.8788 11.6257 16.9276C11.7413 16.9743 11.8676 17 12 17C12.2605 17 12.4977 16.9004 12.6757 16.7372C12.6876 16.7263 12.6992 16.7151 12.7106 16.7036L16.7071 12.7071C17.0976 12.3166 17.0976 11.6834 16.7071 11.2929Z" fill="black"/>
<path fill-rule="evenodd" clip-rule="evenodd" d="M12 22C6.47715 22 2 17.5228 2 12C2 6.47715 6.47715 2 12 2C17.5228 2 22 6.47715 22 12C22 17.5228 17.5228 22 12 22ZM4 12C4 16.4183 7.58172 20 12 20C16.4183 20 20 16.4183 20 12C20 7.58172 16.4183 4 12 4C7.58172 4 4 7.58172 4 12Z" fill="black"/>
</svg>
