<svg width="24" height="24" viewBox="0 0 24 24" fill="none" xmlns="http://www.w3.org/2000/svg">
<path fill-rule="evenodd" clip-rule="evenodd" d="M12 4C7.58172 4 4 7.58172 4 12C4 16.4183 7.58172 20 12 20C16.4183 20 20 16.4183 20 12C20 7.58172 16.4183 4 12 4ZM2 12C2 6.47715 6.47715 2 12 2C17.5228 2 22 6.47715 22 12C22 17.5228 17.5228 22 12 22C6.47715 22 2 17.5228 2 12Z" fill="black"/>
<path fill-rule="evenodd" clip-rule="evenodd" d="M8.46289 8.46446C8.85342 8.07394 9.48658 8.07394 9.87711 8.46446L11.9984 10.5858L14.1197 8.46446C14.5103 8.07394 15.1434 8.07394 15.534 8.46446C15.9245 8.85499 15.9245 9.48815 15.534 9.87868L13.4126 12L15.534 14.1213C15.9245 14.5118 15.9245 15.145 15.534 15.5355C15.1434 15.9261 14.5103 15.9261 14.1197 15.5355L11.9984 13.4142L9.87711 15.5355C9.48658 15.9261 8.85342 15.9261 8.46289 15.5355C8.07237 15.145 8.07237 14.5118 8.46289 14.1213L10.5842 12L8.46289 9.87868C8.07237 9.48815 8.07237 8.85499 8.46289 8.46446Z" fill="black"/>
</svg>
