<svg width="24" height="24" viewBox="0 0 24 24" fill="none" xmlns="http://www.w3.org/2000/svg">
<path fill-rule="evenodd" clip-rule="evenodd" d="M12.5 4C8.35784 4 4.99998 7.35786 4.99998 11.5C4.99998 12.564 5.22093 13.5737 5.61849 14.4879C5.80737 14.9222 5.861 15.4373 5.70173 15.9377C5.30856 17.173 4.90029 18.4275 4.57698 19.4133L4.57604 19.4163C4.57719 19.4181 4.57885 19.4202 4.58107 19.4224C4.58384 19.4252 4.58657 19.4272 4.58867 19.4284C4.58867 19.4284 4.59142 19.4277 4.59336 19.4271C5.59328 19.1046 6.87362 18.6983 8.14508 18.3132C8.6332 18.1653 9.13196 18.2191 9.55401 18.3996C10.4571 18.7857 11.4522 19 12.5 19C16.6421 19 20 15.6421 20 11.5C20 7.35786 16.6421 4 12.5 4ZM2.99998 11.5C2.99998 6.25329 7.25327 2 12.5 2C17.7467 2 22 6.25329 22 11.5C22 16.7467 17.7467 21 12.5 21C11.177 21 9.91473 20.729 8.76767 20.2385C8.74999 20.2309 8.7363 20.2285 8.72856 20.2279C8.72583 20.2277 8.72313 20.2278 8.72313 20.2278C7.46766 20.6082 6.20025 21.0103 5.20718 21.3306C3.64867 21.8331 2.16386 20.3532 2.67658 18.79C2.99875 17.8077 3.40487 16.5598 3.79549 15.3325C3.79549 15.3325 3.79567 15.3295 3.79544 15.3261C3.79487 15.3179 3.7923 15.3036 3.78441 15.2855C3.27946 14.1243 2.99998 12.8435 2.99998 11.5Z" fill="black"/>
</svg>
