<svg width="24" height="24" viewBox="0 0 24 24" fill="none" xmlns="http://www.w3.org/2000/svg">
<path d="M15.637 2.06793C15.7495 2.02407 15.8719 2 16 2C16.2488 2 16.4765 2.09089 16.6514 2.24128C16.6727 2.25953 16.6931 2.27865 16.7128 2.29859L21.7071 7.29291C22.0976 7.68343 22.0976 8.3166 21.7071 8.70712C21.3166 9.09765 20.6834 9.09765 20.2929 8.70712L17 5.41426V17C17 19.7614 14.7614 22 12 22H3C2.44771 22 2 21.5523 2 21C2 20.4477 2.44771 20 3 20H12C13.6569 20 15 18.6569 15 17V5.41417L11.707 8.70712C11.3165 9.09765 10.6834 9.09765 10.2928 8.70712C9.90231 8.3166 9.90231 7.68343 10.2928 7.29291L15.2928 2.29289C15.3941 2.19167 15.5116 2.11668 15.637 2.06793Z" fill="black"/>
</svg>
