<svg width="24" height="24" viewBox="0 0 24 24" fill="none" xmlns="http://www.w3.org/2000/svg">
<path d="M12 4C11.2334 4 10.52 4.21468 9.91312 4.5867C9.44227 4.87534 8.82657 4.72763 8.53793 4.25678C8.24928 3.78593 8.39699 3.17023 8.86784 2.88159C9.78025 2.32225 10.854 2 12 2C15.3137 2 18 4.68629 18 8C18 8.86838 18.2241 10.26 18.6987 11.6838C18.8733 12.2077 18.5902 12.774 18.0662 12.9487C17.5423 13.1233 16.976 12.8402 16.8013 12.3162C16.2759 10.74 16 9.13162 16 8C16 5.79086 14.2091 4 12 4Z" fill="black"/>
<path fill-rule="evenodd" clip-rule="evenodd" d="M6.02585 7.44006L2.29289 3.70711C1.90237 3.31658 1.90237 2.68342 2.29289 2.29289C2.68342 1.90237 3.31658 1.90237 3.70711 2.29289L21.7071 20.2929C22.0976 20.6834 22.0976 21.3166 21.7071 21.7071C21.3166 22.0976 20.6834 22.0976 20.2929 21.7071L15.5824 16.9967C15.5553 16.9989 15.5278 17 15.5 17H4C3.59554 17 3.2309 16.7564 3.07612 16.3827C2.92134 16.009 3.0069 15.5789 3.2929 15.2929C4.13666 14.4491 4.82424 13.115 5.30132 11.6838C5.77591 10.26 6 8.86839 6 8C6 7.8114 6.00873 7.62462 6.02585 7.44006ZM13.5858 15H6.00114C6.50266 14.15 6.89841 13.2171 7.19869 12.3162C7.54325 11.2825 7.78051 10.235 7.90301 9.31723L13.5858 15Z" fill="black"/>
<path d="M9.09701 19.2549C9.50854 18.8865 10.1407 18.9216 10.5091 19.3331C10.8767 19.7439 11.4078 20 12 20C12.5923 20 13.1234 19.7439 13.491 19.3331C13.8593 18.9216 14.4915 18.8865 14.9031 19.2549C15.3146 19.6232 15.3496 20.2554 14.9813 20.6669C14.2503 21.4837 13.1848 22 12 22C10.8153 22 9.74979 21.4837 9.01879 20.6669C8.65046 20.2554 8.68548 19.6232 9.09701 19.2549Z" fill="black"/>
</svg>
