<svg width="24" height="24" viewBox="0 0 24 24" fill="none" xmlns="http://www.w3.org/2000/svg">
<path d="M10 7C10 6.44772 9.55228 6 9 6C8.44772 6 8 6.44772 8 7V10C8 10.5523 8.44772 11 9 11C9.55228 11 10 10.5523 10 10V7Z" fill="black"/>
<path d="M8 13C8 12.4477 8.44772 12 9 12H15C15.5523 12 16 12.4477 16 13C16 13.5523 15.5523 14 15 14H9C8.44772 14 8 13.5523 8 13Z" fill="black"/>
<path fill-rule="evenodd" clip-rule="evenodd" d="M12 6C11.4477 6 11 6.44772 11 7V10C11 10.5523 11.4477 11 12 11H15C15.5523 11 16 10.5523 16 10V7C16 6.44772 15.5523 6 15 6H12ZM13 9V8H14V9H13Z" fill="black"/>
<path d="M12 15C12.5523 15 13 15.4477 13 16H14C14 15.4477 14.4477 15 15 15C15.5523 15 16 15.4477 16 16V17C16 17.5523 15.5523 18 15 18H12C11.4477 18 11 17.5523 11 17V16C11 15.4477 11.4477 15 12 15Z" fill="black"/>
<path d="M10 16C10 15.4477 9.55228 15 9 15C8.44772 15 8 15.4477 8 16V17C8 17.5523 8.44772 18 9 18C9.55228 18 10 17.5523 10 17V16Z" fill="black"/>
<path fill-rule="evenodd" clip-rule="evenodd" d="M8 2C6.34315 2 5 3.34315 5 5V19C5 20.6569 6.34315 22 8 22H16C17.6569 22 19 20.6569 19 19V5C19 3.34315 17.6569 2 16 2H8ZM7 5C7 4.44772 7.44772 4 8 4H16C16.5523 4 17 4.44772 17 5V19C17 19.5523 16.5523 20 16 20H8C7.44772 20 7 19.5523 7 19V5Z" fill="black"/>
</svg>
