<svg width="24" height="24" viewBox="0 0 24 24" fill="none" xmlns="http://www.w3.org/2000/svg">
<path fill-rule="evenodd" clip-rule="evenodd" d="M8 11C8 9.34315 9.34315 8 11 8H19C20.6569 8 22 9.34315 22 11V19C22 20.6569 20.6569 22 19 22H11C9.34315 22 8 20.6569 8 19V11ZM11 10C10.4477 10 10 10.4477 10 11V19C10 19.5523 10.4477 20 11 20H19C19.5523 20 20 19.5523 20 19V11C20 10.4477 19.5523 10 19 10H11Z" fill="black"/>
<path fill-rule="evenodd" clip-rule="evenodd" d="M2 5C2 3.34315 3.34315 2 5 2H13C14.6569 2 16 3.34315 16 5C16 5.55228 15.5523 6 15 6C14.4477 6 14 5.55228 14 5C14 4.44772 13.5523 4 13 4H5C4.44772 4 4 4.44772 4 5V13C4 13.5523 4.44772 14 5 14C5.55228 14 6 14.4477 6 15C6 15.5523 5.55228 16 5 16C3.34315 16 2 14.6569 2 13V5Z" fill="black"/>
</svg>
