<svg width="24" height="24" viewBox="0 0 24 24" fill="none" xmlns="http://www.w3.org/2000/svg">
<path d="M17.2929 9.70714C16.9024 9.31662 16.9024 8.68345 17.2929 8.29293L18.5858 6.99997H7C5.34315 6.99997 4 8.34312 4 9.99997V12C4 12.5523 3.55228 13 3 13C2.44772 13 2 12.5523 2 12V9.99997C2 7.23855 4.23858 4.99997 7 4.99997H18.5857L17.2929 3.70711C16.9024 3.31658 16.9024 2.68342 17.2929 2.29289C17.6834 1.90237 18.3166 1.90237 18.7071 2.29289L21.7015 5.28732C21.7211 5.30658 21.7399 5.32665 21.7578 5.34746C21.8239 5.42401 21.8764 5.50819 21.9154 5.59688C21.9694 5.71934 21.9996 5.85467 22 5.99699L22 5.99997C22 6.00306 22 6.00614 22 6.00923C21.9988 6.13392 21.9749 6.25317 21.9321 6.36299C21.8833 6.48837 21.8083 6.6059 21.7071 6.70712L18.7071 9.70714C18.3166 10.0977 17.6834 10.0977 17.2929 9.70714Z" fill="black"/>
<path d="M2.06793 17.637C2.02407 17.7495 2 17.8719 2 18C2 18.2493 2.09126 18.4773 2.2422 18.6525C2.26016 18.6733 2.27897 18.6934 2.29857 18.7127L5.29291 21.707C5.68343 22.0976 6.3166 22.0976 6.70712 21.707C7.09765 21.3165 7.09765 20.6834 6.70712 20.2928L5.41426 19H17C19.7614 19 22 16.7614 22 14V12C22 11.4477 21.5523 11 21 11C20.4477 11 20 11.4477 20 12V14C20 15.6568 18.6569 17 17 17H5.41417L6.70712 15.707C7.09765 15.3165 7.09765 14.6833 6.70712 14.2928C6.3166 13.9023 5.68343 13.9023 5.29291 14.2928L2.29289 17.2928C2.19167 17.394 2.11668 17.5116 2.06793 17.637Z" fill="black"/>
</svg>
