<svg width="24" height="24" viewBox="0 0 24 24" fill="none" xmlns="http://www.w3.org/2000/svg">
<path d="M15.7072 6.70712C15.3166 7.09765 14.6835 7.09765 14.293 6.70712L13.0001 5.41423V9C13.0001 9.55228 12.5523 10 12.0001 10C11.4478 10 11.0001 9.55228 11.0001 9V5.4142L9.70714 6.70712C9.31661 7.09765 8.68345 7.09765 8.29292 6.70712C7.9024 6.3166 7.9024 5.68343 8.29292 5.29291L11.2929 2.29289C11.3911 2.19473 11.5046 2.12123 11.6257 2.07242C11.7414 2.02572 11.8677 2 12.0001 2C12.1389 2 12.2711 2.02829 12.3913 2.07942C12.4934 2.12278 12.5898 2.1839 12.6757 2.26278C12.6876 2.27369 12.6992 2.28488 12.7106 2.29634L15.7072 5.29291C16.0977 5.68343 16.0977 6.3166 15.7072 6.70712Z" fill="black"/>
<path d="M7.40379 10.9896C7.79432 11.3801 7.79432 12.0133 7.40379 12.4038C7.01327 12.7943 6.38011 12.7943 5.98958 12.4038L4.92892 11.3431C4.5384 10.9526 4.5384 10.3195 4.92892 9.92893C5.31944 9.53841 5.95261 9.53841 6.34313 9.92893L7.40379 10.9896Z" fill="black"/>
<path d="M16.5962 12.4038C16.9867 12.7943 17.6199 12.7943 18.0104 12.4038L19.0711 11.3431C19.4616 10.9526 19.4616 10.3195 19.0711 9.92894C18.6805 9.53841 18.0474 9.53841 17.6568 9.92894L16.5962 10.9896C16.2057 11.3801 16.2057 12.0133 16.5962 12.4038Z" fill="black"/>
<path d="M9 17C9 15.3431 10.3431 14 12 14C13.6569 14 15 15.3431 15 17C15 17.5523 15.4477 18 16 18C16.5523 18 17 17.5523 17 17C17 14.2386 14.7614 12 12 12C9.23858 12 7 14.2386 7 17C7 17.5523 7.44772 18 8 18C8.55228 18 9 17.5523 9 17Z" fill="black"/>
<path d="M19.5 18C18.9477 18 18.5 17.5523 18.5 17C18.5 16.4477 18.9477 16 19.5 16H21C21.5523 16 22 16.4477 22 17C22 17.5523 21.5523 18 21 18H19.5Z" fill="black"/>
<path d="M2 17C2 17.5523 2.44772 18 3 18H4.5C5.05228 18 5.5 17.5523 5.5 17C5.5 16.4477 5.05228 16 4.5 16H3C2.44772 16 2 16.4477 2 17Z" fill="black"/>
<path d="M3 22C2.44772 22 2 21.5523 2 21C2 20.4477 2.44772 20 3 20H21C21.5523 20 22 20.4477 22 21C22 21.5523 21.5523 22 21 22H3Z" fill="black"/>
</svg>
