<svg width="24" height="24" viewBox="0 0 24 24" fill="none" xmlns="http://www.w3.org/2000/svg">
<path fill-rule="evenodd" clip-rule="evenodd" d="M10.5 2.71131C11.4282 2.17541 12.5718 2.17541 13.5 2.71131L19.2943 6.05661C20.2225 6.59251 20.7943 7.58289 20.7943 8.65469V15.3453C20.7943 16.4171 20.2225 17.4075 19.2943 17.9434L13.5 21.2887C12.5718 21.8246 11.4282 21.8246 10.5 21.2887L4.70579 17.9434C3.77759 17.4075 3.2058 16.4171 3.2058 15.3453V8.65469C3.2058 7.58289 3.77759 6.59251 4.7058 6.05661L10.5 2.71131ZM12.5 4.44336C12.1906 4.26473 11.8094 4.26473 11.5 4.44336L5.7058 7.78866C5.39639 7.96729 5.2058 8.29742 5.2058 8.65469V15.3453C5.2058 15.7026 5.39639 16.0327 5.70579 16.2113L11.5 19.5566C11.8094 19.7352 12.1906 19.7352 12.5 19.5566L18.2943 16.2113C18.6037 16.0327 18.7943 15.7026 18.7943 15.3453V8.65469C18.7943 8.29742 18.6037 7.96729 18.2943 7.78866L12.5 4.44336Z" fill="black"/>
</svg>
