<svg width="24" height="24" viewBox="0 0 24 24" fill="none" xmlns="http://www.w3.org/2000/svg">
<path fill-rule="evenodd" clip-rule="evenodd" d="M14.4258 2.09521C14.8232 2.28222 15.0521 2.70665 14.99 3.14144L14.153 9.00002H20C20.3958 9.00002 20.7544 9.23348 20.9145 9.59547C21.0746 9.95745 21.0062 10.3798 20.7399 10.6727L10.7399 21.6727C10.4445 21.9977 9.97159 22.0918 9.57419 21.9048C9.1768 21.7178 8.94794 21.2934 9.01005 20.8586L9.84699 15H4C3.60419 15 3.24562 14.7666 3.08549 14.4046C2.92536 14.0426 2.99381 13.6202 3.26006 13.3273L13.2601 2.32735C13.5555 2.00236 14.0284 1.90819 14.4258 2.09521ZM6.26056 13H11C11.2899 13 11.5655 13.1258 11.7555 13.3448C11.9454 13.5638 12.031 13.8545 11.99 14.1414L11.4505 17.9179L17.7395 11H13C12.7101 11 12.4345 10.8742 12.2445 10.6552C12.0546 10.4362 11.9691 10.1456 12.0101 9.8586L12.5496 6.08212L6.26056 13Z" fill="black"/>
</svg>
