<svg width="24" height="24" viewBox="0 0 24 24" fill="none" xmlns="http://www.w3.org/2000/svg">
<path fill-rule="evenodd" clip-rule="evenodd" d="M17.9074 2.70108C15.2343 1.42413 11.9342 1.89095 9.71799 4.10718C9.48598 4.33919 9.27315 4.58308 9.07949 4.83689C9.03111 4.78734 8.97731 4.74253 8.91865 4.70342L4.67601 1.875C4.27938 1.61058 3.75126 1.66288 3.4142 1.99994L1.99999 3.41415C1.66292 3.75122 1.61063 4.27934 1.87504 4.67596L4.70347 8.9186C4.86965 9.16788 5.13885 9.32951 5.43698 9.35904C5.73512 9.38856 6.03078 9.28285 6.24263 9.07101L6.94974 8.3639L7.61284 9.027C7.59247 9.90823 7.73304 10.7923 8.03437 11.6313L2.89698 16.7689C1.69921 17.9667 1.70232 19.9059 2.89835 21.1019C4.09497 22.2986 6.0351 22.2996 7.2323 21.1024L12.046 16.2886L16.8493 21.0918C18.0208 22.2634 19.9203 22.2634 21.0919 21.0918C22.2635 19.9203 22.2635 18.0208 21.0919 16.8492L19.1632 14.9205C19.417 14.7269 19.6608 14.5141 19.8927 14.2821C22.1089 12.0659 22.5757 8.76568 21.2988 6.09261C21.1589 5.7997 20.8855 5.59293 20.5655 5.53805C20.2456 5.48317 19.9189 5.58701 19.6894 5.81655L16.2873 9.21873C16.276 9.22997 16.2566 9.2317 16.2425 9.2176L14.7824 7.75748C14.7688 7.7438 14.77 7.72403 14.7817 7.71235L18.1834 4.3105C18.4129 4.08096 18.5168 3.75429 18.4619 3.43435C18.407 3.1144 18.2003 2.84101 17.9074 2.70108ZM11.1322 5.52137C12.3497 4.30385 14.0224 3.81626 15.6044 4.0611L13.3674 6.29815C12.5727 7.09288 12.5755 8.37897 13.3682 9.17169L14.8283 10.6318C15.6206 11.4241 16.9064 11.4281 17.7015 10.6329L19.9388 8.3956C20.1836 9.97766 19.696 11.6504 18.4785 12.8679C16.9544 14.3921 14.7171 14.7726 12.8363 14.0035C12.2986 13.7836 11.6352 13.8709 11.1773 14.3288L5.81807 19.6882C5.4025 20.1038 4.72873 20.1039 4.31258 19.6877C3.89584 19.271 3.8962 18.5981 4.31121 18.1831L9.67296 12.8212C10.1342 12.3599 10.2146 11.6967 9.99668 11.1638C9.22761 9.28294 9.6081 7.04553 11.1322 5.52137ZM17.3431 15.9288C16.5799 16.2159 15.7777 16.3687 14.9732 16.3873L18.2635 19.6776C18.654 20.0682 19.2872 20.0682 19.6777 19.6776C20.0682 19.2871 20.0682 18.6539 19.6777 18.2634L17.3431 15.9288ZM4.24873 3.99384L3.99389 4.24868L5.69095 6.79426L6.79431 5.6909L4.24873 3.99384Z" fill="black"/>
</svg>
