<svg width="24" height="24" viewBox="0 0 24 24" fill="none" xmlns="http://www.w3.org/2000/svg">
<path fill-rule="evenodd" clip-rule="evenodd" d="M12 4C9.79083 4 7.99997 5.79086 7.99997 8C7.99997 9.13161 7.72407 10.74 7.19866 12.3162C6.89838 13.2171 6.50263 14.15 6.00111 15H17.9988C17.4973 14.15 17.1016 13.2171 16.8013 12.3162C16.2759 10.74 16 9.13162 16 8C16 5.79086 14.2091 4 12 4ZM5.99997 8C5.99997 4.68629 8.68626 2 12 2C15.3137 2 18 4.68629 18 8C18 8.86838 18.2241 10.26 18.6987 11.6838C19.1757 13.115 19.8633 14.4491 20.7071 15.2929C20.9931 15.5789 21.0786 16.009 20.9238 16.3827C20.7691 16.7564 20.4044 17 20 17H3.99997C3.5955 17 3.23087 16.7564 3.07609 16.3827C2.92131 16.009 3.00687 15.5789 3.29287 15.2929C4.13663 14.4491 4.82421 13.115 5.30129 11.6838C5.77588 10.26 5.99997 8.86839 5.99997 8Z" fill="black"/>
<path fill-rule="evenodd" clip-rule="evenodd" d="M9.09697 19.2549C9.5085 18.8865 10.1407 18.9216 10.509 19.3331C10.8767 19.7439 11.4078 20 12 20C12.5922 20 13.1233 19.7439 13.491 19.3331C13.8593 18.9216 14.4915 18.8865 14.903 19.2549C15.3145 19.6232 15.3496 20.2554 14.9812 20.6669C14.2502 21.4836 13.1848 22 12 22C10.8152 22 9.74975 21.4836 9.01875 20.6669C8.65042 20.2554 8.68544 19.6232 9.09697 19.2549Z" fill="black"/>
</svg>
