<svg width="24" height="24" viewBox="0 0 24 24" fill="none" xmlns="http://www.w3.org/2000/svg">
<path fill-rule="evenodd" clip-rule="evenodd" d="M9.5 2C8.67157 2 8 2.67157 8 3.5V4H7C5.34315 4 4 5.34315 4 7V19C4 20.6569 5.34315 22 7 22H17C18.6569 22 20 20.6569 20 19V7C20 5.34315 18.6569 4 17 4H16V3.5C16 2.67157 15.3284 2 14.5 2H9.5ZM14 6H10V4H14V6ZM16 6V6.5C16 7.32843 15.3284 8 14.5 8H9.5C8.67157 8 8 7.32843 8 6.5V6H7C6.44772 6 6 6.44772 6 7V19C6 19.5523 6.44772 20 7 20H17C17.5523 20 18 19.5523 18 19V7C18 6.44772 17.5523 6 17 6H16Z" fill="black"/>
</svg>
