<svg width="24" height="24" viewBox="0 0 24 24" fill="none" xmlns="http://www.w3.org/2000/svg">
<path d="M3.66123 9.15056C5.96457 7.12023 8.92954 6 12 6C15.0704 6 18.0354 7.12023 20.3387 9.15056C20.753 9.51576 21.3849 9.47595 21.7501 9.06164C22.1153 8.64734 22.0755 8.01542 21.6612 7.65023C18.9926 5.29789 15.5574 4 12 4C8.44257 4 5.00738 5.29789 2.33873 7.65023C1.92443 8.01542 1.88462 8.64734 2.24982 9.06164C2.61501 9.47595 3.24693 9.51576 3.66123 9.15056Z" fill="black"/>
<path d="M6.63999 12.9358C8.14169 11.685 10.0343 11 11.9887 11C13.943 11 15.8356 11.685 17.3373 12.9358C17.7617 13.2892 18.3922 13.2317 18.7457 12.8074C19.0991 12.383 19.0417 11.7525 18.6173 11.399C16.7562 9.84887 14.4107 9 11.9887 9C9.56656 9 7.22107 9.84887 5.35999 11.399C4.93563 11.7525 4.87816 12.383 5.23162 12.8074C5.58508 13.2317 6.21563 13.2892 6.63999 12.9358Z" fill="black"/>
<path d="M11.956 16C11.1042 16 10.2735 16.265 9.57915 16.7584C9.12893 17.0782 8.50464 16.9726 8.18478 16.5223C7.86491 16.0721 7.97059 15.4478 8.42082 15.128C9.45362 14.3942 10.6891 14 11.956 14C13.2229 14 14.4585 14.3942 15.4913 15.128C15.9415 15.4478 16.0472 16.0721 15.7273 16.5223C15.4074 16.9726 14.7831 17.0782 14.3329 16.7584C13.6385 16.265 12.8078 16 11.956 16Z" fill="black"/>
<path d="M12 21C12.5523 21 13 20.5523 13 20C13 19.4477 12.5523 19 12 19C11.4477 19 11 19.4477 11 20C11 20.5523 11.4477 21 12 21Z" fill="black"/>
</svg>
