<svg width="24" height="24" viewBox="0 0 24 24" fill="none" xmlns="http://www.w3.org/2000/svg">
<path d="M5 4C3.34315 4 2 5.34315 2 7V17C2 18.6569 3.34315 20 5 20H10C10.5523 20 11 19.5523 11 19C11 18.4477 10.5523 18 10 18H5C4.44772 18 4 17.5523 4 17V7C4 6.44772 4.44772 6 5 6H19C19.5523 6 20 6.44772 20 7V11C20 11.5523 20.4477 12 21 12C21.5523 12 22 11.5523 22 11V7C22 5.34315 20.6569 4 19 4H5Z" fill="black"/>
<path fill-rule="evenodd" clip-rule="evenodd" d="M11.4002 11.8C11.7768 11.2986 12 10.6754 12 10C12 8.34315 10.6569 7 9 7C7.34315 7 6 8.34315 6 10C6 10.6753 6.22314 11.2985 6.59972 11.7999C5.62832 12.5297 5 13.6915 5 15V16C5 16.5523 5.44772 17 6 17C6.55228 17 7 16.5523 7 16V15C7 13.8954 7.89543 13 9 13C9.51288 13 9.97858 13.1917 10.3331 13.509C10.4073 13.5755 10.4766 13.6474 10.5402 13.7241C10.8929 14.1491 11.5234 14.2078 11.9484 13.8551C12.3734 13.5024 12.4321 12.872 12.0794 12.447C11.9526 12.2942 11.8147 12.1511 11.6669 12.0188C11.5813 11.9421 11.4923 11.8691 11.4002 11.8ZM8 10C8 9.44772 8.44772 9 9 9C9.55228 9 10 9.44772 10 10C10 10.5523 9.55228 11 9 11C8.44772 11 8 10.5523 8 10Z" fill="black"/>
<path d="M13 10C13 9.44772 13.4477 9 14 9H17C17.5523 9 18 9.44772 18 10C18 10.5523 17.5523 11 17 11H14C13.4477 11 13 10.5523 13 10Z" fill="black"/>
<path fill-rule="evenodd" clip-rule="evenodd" d="M13 17C13 14.7909 14.7909 13 17 13C19.2091 13 21 14.7909 21 17C21 17.7418 20.7981 18.4365 20.4462 19.032L21.7071 20.2929C22.0976 20.6834 22.0976 21.3166 21.7071 21.7071C21.3166 22.0976 20.6834 22.0976 20.2929 21.7071L19.032 20.4462C18.4365 20.7981 17.7418 21 17 21C14.7909 21 13 19.2091 13 17ZM17 15C15.8954 15 15 15.8954 15 17C15 18.1046 15.8954 19 17 19C18.1046 19 19 18.1046 19 17C19 15.8954 18.1046 15 17 15Z" fill="black"/>
</svg>
